M48
; DRILL file {KiCad 8.0.1} date 2024-06-21T13:13:54-0400
; FORMAT={-:-/ absolute / inch / decimal}
; #@! TF.CreationDate,2024-06-21T13:13:54-04:00
; #@! TF.GenerationSoftware,Kicad,Pcbnew,8.0.1
; #@! TF.FileFunction,Plated,1,4,PTH
FMAT,2
INCH
; #@! TA.AperFunction,Plated,PTH,ViaDrill
T1C0.0118
; #@! TA.AperFunction,Plated,PTH,ComponentDrill
T2C0.0236
; #@! TA.AperFunction,Plated,PTH,ComponentDrill
T3C0.0315
; #@! TA.AperFunction,Plated,PTH,ComponentDrill
T4C0.0394
; #@! TA.AperFunction,Plated,PTH,ComponentDrill
T5C0.0400
; #@! TA.AperFunction,Plated,PTH,ComponentDrill
T6C0.0402
; #@! TA.AperFunction,Plated,PTH,ComponentDrill
T7C0.0591
%
G90
G05
T1
X2.6801Y-3.2913
X2.7293Y-2.8248
X2.7785Y-2.3917
X2.8002Y-2.2549
X2.8238Y-2.2805
X2.8504Y-2.2333
X2.8898Y-3.128
X2.8937Y-3.6053
X2.9213Y-2.752
X2.9321Y-3.7018
X2.9528Y-1.9961
X3.0103Y-2.1216
X3.0502Y-1.9055
X3.0827Y-4.3209
X3.0827Y-4.3465
X3.1073Y-4.3209
X3.1073Y-4.3465
X3.1319Y-4.3209
X3.1319Y-4.3465
X3.1403Y-1.9434
X3.1565Y-4.3209
X3.1565Y-4.3465
X3.1929Y-1.751
X3.2008Y-4.003
X3.2018Y-3.9508
X3.2047Y-3.8012
X3.3386Y-1.6358
X3.4105Y-1.7814
X3.4144Y-1.6693
X3.4321Y-3.5167
X3.5669Y-1.4213
X3.6142Y-1.6841
X3.6201Y-1.5344
X3.627Y-3.9094
X3.6407Y-1.6486
X3.6417Y-1.6014
X3.6978Y-4.0167
X3.7234Y-1.5108
X4.0Y-1.3701
X4.0108Y-3.877
X4.0226Y-1.56
X4.064Y-1.936
X4.0679Y-1.8622
X4.1063Y-4.0394
X4.124Y-1.5108
X4.188Y-3.9754
X4.2018Y-1.8622
X4.2067Y-3.6811
X4.2755Y-4.0232
X4.2781Y-1.6973
X4.2865Y-1.6486
X4.3056Y-1.6018
X4.3366Y-1.3327
X4.4134Y-1.6093
X4.4488Y-3.7579
X4.4577Y-1.9183
X4.498Y-4.0955
X4.499Y-3.7569
X4.5128Y-1.9321
X4.5246Y-1.7165
X4.622Y-1.8199
X4.6717Y-3.9671
X4.7275Y-2.0896
X4.7455Y-2.0408
X4.7559Y-1.3839
X4.7628Y-3.9213
X4.7913Y-1.7766
X4.8081Y-3.7598
X4.814Y-3.6181
X4.8484Y-3.6693
X4.8947Y-3.6673
X4.9026Y-1.8947
X4.9026Y-2.001
X4.9045Y-4.0522
X4.9616Y-1.9183
X4.9813Y-3.7953
X4.9985Y-3.5212
X5.0076Y-1.9459
X5.0512Y-3.5738
X5.0896Y-3.5394
X5.0974Y-3.3809
X5.1929Y-2.2205
X5.2047Y-1.9183
X5.2126Y-3.4616
X5.2152Y-2.1979
X5.2333Y-3.3041
X5.2381Y-2.1764
X5.2598Y-2.1535
X5.2618Y-3.7667
X5.3278Y-3.2874
X5.3366Y-3.6978
X5.3583Y-3.4783
X5.4163Y-3.2874
X5.4636Y-2.1565
X5.565Y-3.2874
X6.3524Y-3.2844
X6.4094Y-2.378
X6.4341Y-2.1703
X6.5359Y-2.5044
X6.5915Y-3.5059
X6.6358Y-3.3704
X6.7156Y-2.0017
X6.7736Y-3.3661
X6.81Y-1.9843
X6.8282Y-2.3046
X6.8775Y-2.1629
X7.0059Y-3.7037
X7.0256Y-2.062
X7.0541Y-1.7392
X7.1073Y-1.6398
X7.1201Y-2.0472
X7.1405Y-3.6065
X7.1849Y-2.3151
X7.189Y-1.8484
X7.2107Y-2.3332
X7.2293Y-2.3586
X7.2451Y-2.3858
X7.25Y-1.9291
X7.2638Y-2.5197
X7.3258Y-1.6683
X7.3386Y-4.0423
X7.3858Y-1.8238
X7.4341Y-4.0079
X7.436Y-1.4646
X7.4567Y-3.9504
X7.4783Y-2.9478
X7.4813Y-2.6486
X7.4887Y-1.6471
X7.5098Y-3.9326
X7.5138Y-2.8711
X7.5374Y-2.5157
X7.5728Y-3.0689
X7.5728Y-3.1496
X7.6024Y-2.6467
X7.6634Y-2.935
X7.7106Y-3.2028
X7.7402Y-2.7106
X7.749Y-3.2175
X7.7736Y-2.6368
X7.7844Y-4.3681
X7.7922Y-1.6839
X7.7923Y-2.4803
X7.7972Y-3.311
X7.8248Y-2.5817
X7.8474Y-4.064
X7.8858Y-3.1388
X7.8858Y-3.312
X7.9024Y-1.7224
X7.9094Y-1.376
X7.9144Y-3.9606
X7.9508Y-4.0
X7.9508Y-4.06
X7.9685Y-3.3091
X7.97Y-2.5817
X8.0148Y-2.9154
X8.0217Y-2.6752
X8.0266Y-2.5807
X8.0276Y-3.1811
X8.0512Y-3.5689
X8.0521Y-2.5623
X8.0866Y-2.562
X8.1053Y-1.5148
X8.1094Y-2.5837
X8.1186Y-1.7279
X8.1294Y-1.6718
X8.165Y-1.622
X8.2059Y-2.8613
X8.2372Y-3.6801
X8.2411Y-2.9104
X8.2643Y-1.6786
X8.2923Y-4.0413
X8.3061Y-2.6142
X8.3153Y-3.855
X8.3337Y-1.564
X8.3376Y-2.9626
X8.3376Y-3.0413
X8.3642Y-3.251
X8.373Y-2.686
X8.4326Y-3.6767
X8.4429Y-2.747
X8.4715Y-3.4606
X8.496Y-3.6801
X8.5098Y-4.0955
X8.5571Y-3.9055
X8.561Y-4.0984
X8.5689Y-3.2293
X8.5738Y-3.1457
X8.6637Y-3.7484
X8.7156Y-1.7451
X8.719Y-3.748
X8.7343Y-1.9085
X8.7343Y-3.7756
X8.748Y-3.3612
X8.7785Y-3.9026
X8.7972Y-3.3788
X8.8054Y-3.5318
X8.8366Y-2.6772
X8.9331Y-3.5315
X8.9463Y-2.3175
X8.9665Y-3.6831
X9.0069Y-3.622
X9.0118Y-2.7402
X9.0285Y-2.2264
X9.0408Y-2.999
X9.0435Y-3.1496
X9.0443Y-3.9498
X9.0541Y-2.6791
X9.0748Y-2.2697
X9.0817Y-2.0374
X9.1299Y-2.5366
X9.1348Y-3.0837
X9.1614Y-2.6781
X9.2087Y-3.2559
X9.2589Y-2.3957
X9.2776Y-2.8238
T3
X4.65Y-3.3327
X4.65Y-3.4114
X4.65Y-3.4902
T4
X6.4068Y-3.7573
X6.4834Y-3.8215
X6.56Y-3.8858
T5
X3.7309Y-1.7356
X3.7309Y-1.8356
X3.8309Y-1.7356
X3.8309Y-1.8356
X3.9309Y-1.7356
X3.9309Y-1.8356
X4.3707Y-4.1874
X4.3707Y-4.2874
X4.4707Y-4.1874
X4.4707Y-4.2874
X4.5707Y-4.1874
X4.5707Y-4.2874
X7.5114Y-1.7356
X7.5114Y-1.8356
X7.6114Y-1.7356
X7.6114Y-1.8356
X7.7114Y-1.7356
X7.7114Y-1.8356
X8.4258Y-4.1874
X8.4258Y-4.2874
X8.5258Y-4.1874
X8.5258Y-4.2874
X8.6258Y-4.1874
X8.6258Y-4.2874
T6
X4.8754Y-2.4549
X4.8754Y-3.0451
T7
X4.65Y-3.25
X4.65Y-3.5728
T2
G00X5.1506Y-3.8481
M15
G01X5.1234Y-3.8144
M16
G05
G00X5.248Y-3.9683
M15
G01X5.2331Y-3.95
M16
G05
G00X5.415Y-3.634
M15
G01X5.3877Y-3.6004
M16
G05
G00X5.5124Y-3.7543
M15
G01X5.4975Y-3.7359
M16
G05
M30
