%TF.GenerationSoftware,KiCad,Pcbnew,8.0.1*%
%TF.CreationDate,2024-06-01T14:38:50-07:00*%
%TF.ProjectId,CHV_DC32,4348565f-4443-4333-922e-6b696361645f,rev?*%
%TF.SameCoordinates,Original*%
%TF.FileFunction,Paste,Top*%
%TF.FilePolarity,Positive*%
%FSLAX46Y46*%
G04 Gerber Fmt 4.6, Leading zero omitted, Abs format (unit mm)*
G04 Created by KiCad (PCBNEW 8.0.1) date 2024-06-01 14:38:50*
%MOMM*%
%LPD*%
G01*
G04 APERTURE LIST*
G04 Aperture macros list*
%AMRoundRect*
0 Rectangle with rounded corners*
0 $1 Rounding radius*
0 $2 $3 $4 $5 $6 $7 $8 $9 X,Y pos of 4 corners*
0 Add a 4 corners polygon primitive as box body*
4,1,4,$2,$3,$4,$5,$6,$7,$8,$9,$2,$3,0*
0 Add four circle primitives for the rounded corners*
1,1,$1+$1,$2,$3*
1,1,$1+$1,$4,$5*
1,1,$1+$1,$6,$7*
1,1,$1+$1,$8,$9*
0 Add four rect primitives between the rounded corners*
20,1,$1+$1,$2,$3,$4,$5,0*
20,1,$1+$1,$4,$5,$6,$7,0*
20,1,$1+$1,$6,$7,$8,$9,0*
20,1,$1+$1,$8,$9,$2,$3,0*%
G04 Aperture macros list end*
%ADD10RoundRect,0.250000X0.051303X-0.727061X0.665667X-0.296879X-0.051303X0.727061X-0.665667X0.296879X0*%
%ADD11RoundRect,0.250000X0.665667X0.296879X0.051303X0.727061X-0.665667X-0.296879X-0.051303X-0.727061X0*%
%ADD12RoundRect,0.250000X-0.566147X-0.459050X0.138622X-0.715565X0.566147X0.459050X-0.138622X0.715565X0*%
%ADD13RoundRect,0.250000X0.523984X0.506646X-0.200460X0.700761X-0.523984X-0.506646X0.200460X-0.700761X0*%
%ADD14RoundRect,0.250000X0.296879X-0.665667X0.727061X-0.051303X-0.296879X0.665667X-0.727061X0.051303X0*%
%ADD15RoundRect,0.250000X-0.707107X-0.176777X-0.176777X-0.707107X0.707107X0.176777X0.176777X0.707107X0*%
%ADD16RoundRect,0.250000X-0.665667X-0.296879X-0.051303X-0.727061X0.665667X0.296879X0.051303X0.727061X0*%
%ADD17RoundRect,0.250000X0.700761X-0.200460X0.506646X0.523984X-0.700761X0.200460X-0.506646X-0.523984X0*%
%ADD18RoundRect,0.250000X-0.114476X0.719823X-0.689009X0.237732X0.114476X-0.719823X0.689009X-0.237732X0*%
%ADD19RoundRect,0.250000X0.625000X-0.375000X0.625000X0.375000X-0.625000X0.375000X-0.625000X-0.375000X0*%
%ADD20RoundRect,0.250000X-0.176777X0.707107X-0.707107X0.176777X0.176777X-0.707107X0.707107X-0.176777X0*%
%ADD21RoundRect,0.250000X0.727061X0.051303X0.296879X0.665667X-0.727061X-0.051303X-0.296879X-0.665667X0*%
%ADD22RoundRect,0.250000X-0.260773X-0.680623X0.477833X-0.550387X0.260773X0.680623X-0.477833X0.550387X0*%
%ADD23RoundRect,0.250000X0.138622X0.715565X-0.566147X0.459050X-0.138622X-0.715565X0.566147X-0.459050X0*%
%ADD24RoundRect,0.250000X-0.051303X0.727061X-0.665667X0.296879X0.051303X-0.727061X0.665667X-0.296879X0*%
%ADD25RoundRect,0.250000X-0.013182X0.728750X-0.649218X0.331310X0.013182X-0.728750X0.649218X-0.331310X0*%
%ADD26RoundRect,0.250000X0.375000X0.625000X-0.375000X0.625000X-0.375000X-0.625000X0.375000X-0.625000X0*%
%ADD27RoundRect,0.250000X0.506646X-0.523984X0.700761X0.200460X-0.506646X0.523984X-0.700761X-0.200460X0*%
%ADD28RoundRect,0.250000X0.715565X-0.138622X0.459050X0.566147X-0.715565X0.138622X-0.459050X-0.566147X0*%
%ADD29RoundRect,0.250000X-0.428045X-0.589938X0.319101X-0.655305X0.428045X0.589938X-0.319101X0.655305X0*%
%ADD30RoundRect,0.250000X-0.689009X-0.237732X-0.114476X-0.719823X0.689009X0.237732X0.114476X0.719823X0*%
G04 APERTURE END LIST*
D10*
%TO.C,D38*%
X80775649Y-42628104D03*
X83069275Y-41022090D03*
%TD*%
D11*
%TO.C,D26*%
X221346813Y-42803007D03*
X219053187Y-41196993D03*
%TD*%
D12*
%TO.C,D40*%
X112259430Y-38546172D03*
X114890570Y-39503828D03*
%TD*%
D13*
%TO.C,D7*%
X211627296Y-37937347D03*
X208922704Y-37212653D03*
%TD*%
D14*
%TO.C,D20*%
X226946993Y-91996813D03*
X228553007Y-89703187D03*
%TD*%
D15*
%TO.C,D3*%
X161360051Y-81585051D03*
X163339949Y-83564949D03*
%TD*%
D16*
%TO.C,D13*%
X122203187Y-43271993D03*
X124496813Y-44878007D03*
%TD*%
D17*
%TO.C,D35*%
X69750000Y-82475000D03*
X69025306Y-79770408D03*
%TD*%
D18*
%TO.C,D31*%
X133197462Y-89100097D03*
X131052538Y-90899903D03*
%TD*%
D19*
%TO.C,D24*%
X233900000Y-71750000D03*
X233900000Y-68950000D03*
%TD*%
D20*
%TO.C,D9*%
X141339949Y-81535051D03*
X139360051Y-83514949D03*
%TD*%
D13*
%TO.C,D34*%
X93225000Y-103425000D03*
X90520408Y-102700306D03*
%TD*%
D21*
%TO.C,D25*%
X228556014Y-50943626D03*
X226950000Y-48650000D03*
%TD*%
D22*
%TO.C,D12*%
X90596269Y-37718107D03*
X93353731Y-37231893D03*
%TD*%
D14*
%TO.C,D37*%
X73396993Y-50696813D03*
X75003007Y-48403187D03*
%TD*%
D20*
%TO.C,D30*%
X163414949Y-57060051D03*
X161435051Y-59039949D03*
%TD*%
D23*
%TO.C,D6*%
X114940570Y-101271172D03*
X112309430Y-102228828D03*
%TD*%
D24*
%TO.C,D32*%
X124421813Y-95721993D03*
X122128187Y-97328007D03*
%TD*%
D19*
%TO.C,D36*%
X67925000Y-71775000D03*
X67925000Y-68975000D03*
%TD*%
D10*
%TO.C,D19*%
X219053187Y-99528007D03*
X221346813Y-97921993D03*
%TD*%
D25*
%TO.C,D8*%
X180487267Y-43308113D03*
X178112733Y-44791887D03*
%TD*%
D26*
%TO.C,D33*%
X104300000Y-104150000D03*
X101500000Y-104150000D03*
%TD*%
D21*
%TO.C,D10*%
X74903007Y-92321813D03*
X73296993Y-90028187D03*
%TD*%
D23*
%TO.C,D28*%
X190215570Y-38521172D03*
X187584430Y-39478828D03*
%TD*%
D27*
%TO.C,D23*%
X232075306Y-82529592D03*
X232800000Y-79825000D03*
%TD*%
%TO.C,D11*%
X68987653Y-60677296D03*
X69712347Y-57972704D03*
%TD*%
D18*
%TO.C,D29*%
X171522462Y-49625097D03*
X169377538Y-51424903D03*
%TD*%
D26*
%TO.C,D27*%
X200900000Y-36500000D03*
X198100000Y-36500000D03*
%TD*%
D15*
%TO.C,D42*%
X139435051Y-57010051D03*
X141414949Y-58989949D03*
%TD*%
D28*
%TO.C,D21*%
X232932656Y-60831140D03*
X231975000Y-58200000D03*
%TD*%
D29*
%TO.C,D39*%
X101580327Y-36327982D03*
X104369673Y-36572018D03*
%TD*%
D16*
%TO.C,D14*%
X177950000Y-95750000D03*
X180243626Y-97356014D03*
%TD*%
D12*
%TO.C,D15*%
X187409430Y-101171172D03*
X190040570Y-102128828D03*
%TD*%
D29*
%TO.C,D17*%
X198030327Y-104052982D03*
X200819673Y-104297018D03*
%TD*%
D30*
%TO.C,D41*%
X131152538Y-49750097D03*
X133297462Y-51549903D03*
%TD*%
%TO.C,D5*%
X169327538Y-89050097D03*
X171472462Y-90849903D03*
%TD*%
M02*
