%TF.GenerationSoftware,KiCad,Pcbnew,8.0.1*%
%TF.CreationDate,2024-06-21T13:46:25-04:00*%
%TF.ProjectId,CHV_DC32,4348565f-4443-4333-922e-6b696361645f,rev?*%
%TF.SameCoordinates,Original*%
%TF.FileFunction,Profile,NP*%
%FSLAX46Y46*%
G04 Gerber Fmt 4.6, Leading zero omitted, Abs format (unit mm)*
G04 Created by KiCad (PCBNEW 8.0.1) date 2024-06-21 13:46:25*
%MOMM*%
%LPD*%
G01*
G04 APERTURE LIST*
%TA.AperFunction,Profile*%
%ADD10C,0.100000*%
%TD*%
G04 APERTURE END LIST*
D10*
%TO.C,FID1*%
X53486553Y-69975157D02*
X53493255Y-69199298D01*
X53491139Y-70750996D02*
X53486553Y-69975157D01*
X53493255Y-69199298D02*
X53511600Y-68423617D01*
X53507014Y-71526624D02*
X53491139Y-70750996D01*
X53511600Y-68423617D02*
X53541586Y-67648303D01*
X53534530Y-72301850D02*
X53507014Y-71526624D01*
X53541586Y-67648303D02*
X53582508Y-66873546D01*
X53573689Y-73076477D02*
X53534530Y-72301850D01*
X53582508Y-66873546D02*
X53635425Y-66099533D01*
X53624489Y-73850313D02*
X53573689Y-73076477D01*
X53635425Y-66099533D02*
X53699278Y-65326491D01*
X53686578Y-74623179D02*
X53624489Y-73850313D01*
X53699278Y-65326491D02*
X53774772Y-64554577D01*
X53760308Y-75394845D02*
X53686578Y-74623179D01*
X53774772Y-64554577D02*
X53861203Y-63783969D01*
X53845681Y-76165171D02*
X53760308Y-75394845D01*
X53861203Y-63783969D02*
X53959275Y-63014913D01*
X53942695Y-76933910D02*
X53845681Y-76165171D01*
X53959275Y-63014913D02*
X54068636Y-62247585D01*
X54051350Y-77700920D02*
X53942695Y-76933910D01*
X54068636Y-62247585D02*
X54189286Y-61482128D01*
X54171648Y-78465954D02*
X54051350Y-77700920D01*
X54189286Y-61482128D02*
X54321225Y-60718822D01*
X54303234Y-79228872D02*
X54171648Y-78465954D01*
X54321225Y-60718822D02*
X54464453Y-59957774D01*
X54446814Y-79989461D02*
X54303234Y-79228872D01*
X54464453Y-59957774D02*
X54618970Y-59199231D01*
X54602037Y-80747511D02*
X54446814Y-79989461D01*
X54618970Y-59199231D02*
X54784776Y-58443369D01*
X54769253Y-81502844D02*
X54602037Y-80747511D01*
X54784776Y-58443369D02*
X54961517Y-57690364D01*
X54947759Y-82255249D02*
X54769253Y-81502844D01*
X54961517Y-57690364D02*
X55149548Y-56940464D01*
X55138259Y-83004584D02*
X54947759Y-82255249D01*
X55149548Y-56940464D02*
X55348868Y-56193774D01*
X55340401Y-83750604D02*
X55138259Y-83004584D01*
X55348868Y-56193774D02*
X55559476Y-55450576D01*
X55554537Y-84493131D02*
X55340401Y-83750604D01*
X55559476Y-55450576D02*
X55781021Y-54711013D01*
X55780315Y-85231989D02*
X55554537Y-84493131D01*
X55781021Y-54711013D02*
X56013854Y-53975294D01*
X56013854Y-53975294D02*
X56257624Y-53243597D01*
X56017735Y-85966967D02*
X55780315Y-85231989D01*
X56257624Y-53243597D02*
X56512330Y-52516134D01*
X56267502Y-86697852D02*
X56017735Y-85966967D01*
X56512330Y-52516134D02*
X56778324Y-51793080D01*
X56528557Y-87424505D02*
X56267502Y-86697852D01*
X56778324Y-51793080D02*
X57055608Y-51074612D01*
X56801608Y-88146712D02*
X56528557Y-87424505D01*
X57055608Y-51074612D02*
X57343475Y-50360978D01*
X57086652Y-88864262D02*
X56801608Y-88146712D01*
X57343475Y-50360978D02*
X57574544Y-49830011D01*
X57383691Y-89576944D02*
X57086652Y-88864262D01*
X57574544Y-49830011D02*
X57812669Y-49301903D01*
X57692372Y-90284617D02*
X57383691Y-89576944D01*
X57812669Y-49301903D02*
X58057144Y-48776687D01*
X58013400Y-90987068D02*
X57692372Y-90284617D01*
X58057144Y-48776687D02*
X58308322Y-48254470D01*
X58308322Y-48254470D02*
X58566203Y-47735392D01*
X58346070Y-91684123D02*
X58013400Y-90987068D01*
X58566203Y-47735392D02*
X58830434Y-47219454D01*
X58690734Y-92375532D02*
X58346070Y-91684123D01*
X58830434Y-47219454D02*
X59101367Y-46706833D01*
X59047392Y-93061156D02*
X58690734Y-92375532D01*
X59101367Y-46706833D02*
X59379004Y-46197598D01*
X59379004Y-46197598D02*
X59662637Y-45691820D01*
X59416045Y-93740783D02*
X59047392Y-93061156D01*
X59662637Y-45691820D02*
X59952621Y-45189605D01*
X59796693Y-94414201D02*
X59416045Y-93740783D01*
X59952621Y-45189605D02*
X60249307Y-44691024D01*
X60189687Y-95081269D02*
X59796693Y-94414201D01*
X60249307Y-44691024D02*
X60551990Y-44196182D01*
X60551990Y-44196182D02*
X60860671Y-43705186D01*
X60594324Y-95741740D02*
X60189687Y-95081269D01*
X60860671Y-43705186D02*
X61175702Y-43218105D01*
X61011307Y-96395437D02*
X60594324Y-95741740D01*
X61175702Y-43218105D02*
X61497083Y-42735046D01*
X61440285Y-97042185D02*
X61011307Y-96395437D01*
X61497083Y-42735046D02*
X61824108Y-42256115D01*
X61824108Y-42256115D02*
X62157130Y-41781346D01*
X61881258Y-97681772D02*
X61440285Y-97042185D01*
X62157130Y-41781346D02*
X62496503Y-41310881D01*
X62270372Y-98274792D02*
X61881258Y-97681772D01*
X62496503Y-41310881D02*
X62841520Y-40844791D01*
X62670070Y-98858604D02*
X62270372Y-98274792D01*
X62841520Y-40844791D02*
X63192534Y-40383181D01*
X63079998Y-99433174D02*
X62670070Y-98858604D01*
X63192534Y-40383181D02*
X63549192Y-39926157D01*
X63500156Y-99998500D02*
X63079998Y-99433174D01*
X63549192Y-39926157D02*
X63911495Y-39473755D01*
X63911495Y-39473755D02*
X64279796Y-39026115D01*
X63930193Y-100554549D02*
X63500156Y-99998500D01*
X64279796Y-39026115D02*
X64653387Y-38583308D01*
X64370107Y-101101355D02*
X63930193Y-100554549D01*
X64653387Y-38583308D02*
X65032977Y-38145440D01*
X64819546Y-101638883D02*
X64370107Y-101101355D01*
X65032977Y-38145440D02*
X65417857Y-37712581D01*
X65278510Y-102167132D02*
X64819546Y-101638883D01*
X65417857Y-37712581D02*
X65808383Y-37284838D01*
X65746294Y-102686034D02*
X65278510Y-102167132D01*
X65808383Y-37284838D02*
X66204200Y-36862316D01*
X66204200Y-36862316D02*
X66605661Y-36445050D01*
X66223602Y-103195657D02*
X65746294Y-102686034D01*
X66605661Y-36445050D02*
X67012061Y-36033217D01*
X66709378Y-103695966D02*
X66223602Y-103195657D01*
X67012061Y-36033217D02*
X67424106Y-35626816D01*
X67203972Y-104186963D02*
X66709378Y-103695966D01*
X67424106Y-35626816D02*
X67841089Y-35226025D01*
X67707034Y-104668611D02*
X67203972Y-104186963D01*
X67841089Y-35226025D02*
X68263718Y-34830879D01*
X68218562Y-105140875D02*
X67707034Y-104668611D01*
X68263718Y-34830879D02*
X68691284Y-34441376D01*
X68691284Y-34441376D02*
X69123790Y-34057907D01*
X68737851Y-105603755D02*
X68218562Y-105140875D01*
X69123790Y-34057907D02*
X69561235Y-33680434D01*
X69265254Y-106057427D02*
X68737851Y-105603755D01*
X69561235Y-33680434D02*
X70003971Y-33308606D01*
X69800771Y-106501575D02*
X69265254Y-106057427D01*
X70003971Y-33308606D02*
X70451647Y-32943128D01*
X70343344Y-106936197D02*
X69800771Y-106501575D01*
X70451647Y-32943128D02*
X70904261Y-32584000D01*
X70893678Y-107361647D02*
X70343344Y-106936197D01*
X70904261Y-32584000D02*
X71361461Y-32230870D01*
X71361461Y-32230870D02*
X71823600Y-31884442D01*
X71451067Y-107777573D02*
X70893678Y-107361647D01*
X71823600Y-31884442D02*
X72290326Y-31544364D01*
X72015512Y-108184326D02*
X71451067Y-107777573D01*
X72290326Y-31544364D02*
X72761990Y-31210988D01*
X72586659Y-108581554D02*
X72015512Y-108184326D01*
X72761990Y-31210988D02*
X73238240Y-30883963D01*
X73164510Y-108969257D02*
X72586659Y-108581554D01*
X73238240Y-30883963D02*
X73719077Y-30563993D01*
X73719077Y-30563993D02*
X74204146Y-30250727D01*
X73749063Y-109347435D02*
X73164510Y-108969257D01*
X74204146Y-30250727D02*
X74694155Y-29944515D01*
X74339966Y-109716088D02*
X73749063Y-109347435D01*
X74694155Y-29944515D02*
X75188397Y-29645007D01*
X74936513Y-110075569D02*
X74339966Y-109716088D01*
X75188397Y-29645007D02*
X75686872Y-29352907D01*
X75539411Y-110425172D02*
X74936513Y-110075569D01*
X75686872Y-29352907D02*
X76189934Y-29068215D01*
X76147953Y-110765602D02*
X75539411Y-110425172D01*
X76189934Y-29068215D02*
X76697228Y-28790578D01*
X76697228Y-28790578D02*
X77208757Y-28520351D01*
X76762140Y-111096508D02*
X76147953Y-110765602D01*
X77208757Y-28520351D02*
X77724165Y-28257531D01*
X77381618Y-111417536D02*
X76762140Y-111096508D01*
X77724165Y-28257531D02*
X78244160Y-28002472D01*
X78006388Y-111729392D02*
X77381618Y-111417536D01*
X78244160Y-28002472D02*
X78768035Y-27754822D01*
X78636096Y-112031723D02*
X78006388Y-111729392D01*
X78768035Y-27754822D02*
X79295791Y-27515286D01*
X79270744Y-112324528D02*
X78636096Y-112031723D01*
X79295791Y-27515286D02*
X79827780Y-27283158D01*
X79827780Y-27283158D02*
X80363650Y-27059497D01*
X79909978Y-112607456D02*
X79270744Y-112324528D01*
X80363650Y-27059497D02*
X80903400Y-26843597D01*
X80553797Y-112881212D02*
X79909978Y-112607456D01*
X80903400Y-26843597D02*
X81447031Y-26635810D01*
X81201851Y-113145090D02*
X80553797Y-112881212D01*
X81447031Y-26635810D02*
X81994543Y-26436138D01*
X81854137Y-113399796D02*
X81201851Y-113145090D01*
X81994543Y-26436138D02*
X82545582Y-26244932D01*
X82510304Y-113644624D02*
X81854137Y-113399796D01*
X82545582Y-26244932D02*
X83100149Y-26062193D01*
X83100149Y-26062193D02*
X83658597Y-25887921D01*
X83170352Y-113879927D02*
X82510304Y-113644624D01*
X83658597Y-25887921D02*
X84314411Y-25659321D01*
X83833575Y-114105352D02*
X83170352Y-113879927D01*
X84314411Y-25659321D02*
X84972695Y-25441304D01*
X84500678Y-114321252D02*
X83833575Y-114105352D01*
X84972695Y-25441304D02*
X85633448Y-25234223D01*
X85170603Y-114527627D02*
X84500678Y-114321252D01*
X85633448Y-25234223D02*
X86296671Y-25038079D01*
X85843704Y-114724477D02*
X85170603Y-114527627D01*
X86296671Y-25038079D02*
X86962363Y-24852518D01*
X86519626Y-114911449D02*
X85843704Y-114724477D01*
X86962363Y-24852518D02*
X87630171Y-24677540D01*
X87198371Y-115088897D02*
X86519626Y-114911449D01*
X87630171Y-24677540D02*
X88299744Y-24513498D01*
X87879233Y-115256819D02*
X87198371Y-115088897D01*
X88299744Y-24513498D02*
X88971433Y-24359687D01*
X88562916Y-115414864D02*
X87879233Y-115256819D01*
X88971433Y-24359687D02*
X89644887Y-24216459D01*
X89248364Y-115563030D02*
X88562916Y-115414864D01*
X89644887Y-24216459D02*
X90320104Y-24083814D01*
X89935576Y-115701672D02*
X89248364Y-115563030D01*
X90320104Y-24083814D02*
X90997085Y-23961400D01*
X90624904Y-115830789D02*
X89935576Y-115701672D01*
X90997085Y-23961400D02*
X91675124Y-23849570D01*
X91315643Y-115949675D02*
X90624904Y-115830789D01*
X91675124Y-23849570D02*
X92354927Y-23747970D01*
X92007794Y-116059389D02*
X91315643Y-115949675D01*
X92354927Y-23747970D02*
X93035436Y-23656600D01*
X92701355Y-116158872D02*
X92007794Y-116059389D01*
X93035436Y-23656600D02*
X93717356Y-23575461D01*
X93395622Y-116248831D02*
X92701355Y-116158872D01*
X93717356Y-23575461D02*
X94400334Y-23504553D01*
X94090948Y-116329264D02*
X93395622Y-116248831D01*
X94400334Y-23504553D02*
X95083665Y-23443875D01*
X94786979Y-116399467D02*
X94090948Y-116329264D01*
X95083665Y-23443875D02*
X95768054Y-23393075D01*
X95483362Y-116460145D02*
X94786979Y-116399467D01*
X95768054Y-23393075D02*
X96453149Y-23352506D01*
X96179746Y-116510945D02*
X95483362Y-116460145D01*
X96453149Y-23352506D02*
X97138597Y-23321461D01*
X96876836Y-116551867D02*
X96179746Y-116510945D01*
X97138597Y-23321461D02*
X97824397Y-23300647D01*
X97573572Y-116583264D02*
X96876836Y-116551867D01*
X97824397Y-23300647D02*
X98510550Y-23289711D01*
X98269956Y-116604431D02*
X97573572Y-116583264D01*
X98510550Y-23289711D02*
X99196704Y-23288653D01*
X98965987Y-116616073D02*
X98269956Y-116604431D01*
X99196704Y-23288653D02*
X99882857Y-23297119D01*
X99661312Y-116617837D02*
X98965987Y-116616073D01*
X99882857Y-23297119D02*
X100569010Y-23315464D01*
X100356285Y-116609370D02*
X99661312Y-116617837D01*
X100569010Y-23315464D02*
X101254811Y-23343686D01*
X101144744Y-116589262D02*
X100356285Y-116609370D01*
X101254811Y-23343686D02*
X101940258Y-23381081D01*
X101930380Y-116555042D02*
X101144744Y-116589262D01*
X101940258Y-23381081D02*
X102625353Y-23428353D01*
X102625353Y-23428353D02*
X103309742Y-23485150D01*
X102712489Y-116507064D02*
X101930380Y-116555042D01*
X103309742Y-23485150D02*
X103993426Y-23551472D01*
X103491776Y-116444975D02*
X102712489Y-116507064D01*
X103993426Y-23551472D02*
X104676404Y-23626967D01*
X104267535Y-116369481D02*
X103491776Y-116444975D01*
X104676404Y-23626967D02*
X105357971Y-23711986D01*
X105040471Y-116280934D02*
X104267535Y-116369481D01*
X105357971Y-23711986D02*
X106038833Y-23806178D01*
X105809880Y-116178981D02*
X105040471Y-116280934D01*
X106038833Y-23806178D02*
X106718636Y-23909895D01*
X106576114Y-116063975D02*
X105809880Y-116178981D01*
X106718636Y-23909895D02*
X107396676Y-24022431D01*
X107338820Y-115936622D02*
X106576114Y-116063975D01*
X107396676Y-24022431D02*
X108073657Y-24144492D01*
X108073657Y-24144492D02*
X108748874Y-24275373D01*
X108098704Y-115796569D02*
X107338820Y-115936622D01*
X108748874Y-24275373D02*
X109422327Y-24415779D01*
X108855060Y-115644169D02*
X108098704Y-115796569D01*
X109422327Y-24415779D02*
X110094369Y-24564651D01*
X109608241Y-115480128D02*
X108855060Y-115644169D01*
X110094369Y-24564651D02*
X110763942Y-24723048D01*
X110357894Y-115303739D02*
X109608241Y-115480128D01*
X110763942Y-24723048D02*
X111431750Y-24889912D01*
X111104725Y-115116061D02*
X110357894Y-115303739D01*
X111431750Y-24889912D02*
X112097442Y-25065948D01*
X111847676Y-114916741D02*
X111104725Y-115116061D01*
X112097442Y-25065948D02*
X112761018Y-25250451D01*
X112587804Y-114706133D02*
X111847676Y-114916741D01*
X112761018Y-25250451D02*
X113421771Y-25444126D01*
X113324404Y-114484235D02*
X112587804Y-114706133D01*
X113421771Y-25444126D02*
X114080055Y-25646268D01*
X114057830Y-114252107D02*
X113324404Y-114484235D01*
X114080055Y-25646268D02*
X114735869Y-25857229D01*
X114735869Y-25857229D02*
X115388861Y-26076657D01*
X114787727Y-114009043D02*
X114057830Y-114252107D01*
X115388861Y-26076657D02*
X116039031Y-26304552D01*
X115514097Y-113755396D02*
X114787727Y-114009043D01*
X116039031Y-26304552D02*
X116686026Y-26541266D01*
X116237645Y-113491518D02*
X115514097Y-113755396D01*
X116686026Y-26541266D02*
X117330198Y-26786447D01*
X116957312Y-113218115D02*
X116237645Y-113491518D01*
X117330198Y-26786447D02*
X117970843Y-27039741D01*
X117673804Y-112934481D02*
X116957312Y-113218115D01*
X117970843Y-27039741D02*
X118608313Y-27301503D01*
X118387121Y-112641323D02*
X117673804Y-112934481D01*
X118608313Y-27301503D02*
X119241902Y-27571730D01*
X119096911Y-112338992D02*
X118387121Y-112641323D01*
X119241902Y-27571730D02*
X119872317Y-27850072D01*
X119803172Y-112027136D02*
X119096911Y-112338992D01*
X119872317Y-27850072D02*
X120498850Y-28136881D01*
X120498850Y-28136881D02*
X121121504Y-28431450D01*
X120505906Y-111706461D02*
X119803172Y-112027136D01*
X121121504Y-28431450D02*
X121739923Y-28734487D01*
X121205465Y-111377319D02*
X120505906Y-111706461D01*
X121739923Y-28734487D02*
X122354815Y-29045284D01*
X121901496Y-111039358D02*
X121205465Y-111377319D01*
X122354815Y-29045284D02*
X122965121Y-29364548D01*
X122594352Y-110692930D02*
X121901496Y-111039358D01*
X122965121Y-29364548D02*
X123571194Y-29691221D01*
X123283327Y-110338741D02*
X122594352Y-110692930D01*
X123571194Y-29691221D02*
X124172681Y-30026360D01*
X123969128Y-109976085D02*
X123283327Y-110338741D01*
X124172681Y-30026360D02*
X124769581Y-30368907D01*
X124651400Y-109606021D02*
X123969128Y-109976085D01*
X124769581Y-30368907D02*
X125361895Y-30719569D01*
X125330145Y-109228549D02*
X124651400Y-109606021D01*
X125361895Y-30719569D02*
X125949271Y-31077991D01*
X125949271Y-31077991D02*
X126815341Y-31576466D01*
X126005715Y-108843668D02*
X125330145Y-109228549D01*
X126677404Y-108451731D02*
X126005715Y-108843668D01*
X126815341Y-31576466D02*
X127673649Y-32085878D01*
X127345919Y-108052740D02*
X126677404Y-108451731D01*
X127673649Y-32085878D02*
X128524550Y-32606225D01*
X128010552Y-107647045D02*
X127345919Y-108052740D01*
X128524550Y-32606225D02*
X129368042Y-33136803D01*
X128672011Y-107235000D02*
X128010552Y-107647045D01*
X129329589Y-106816958D02*
X128672011Y-107235000D01*
X129368042Y-33136803D02*
X130204832Y-33677612D01*
X129983993Y-106392213D02*
X129329589Y-106816958D01*
X130204832Y-33677612D02*
X131034565Y-34227946D01*
X130634868Y-105962177D02*
X129983993Y-106392213D01*
X131034565Y-34227946D02*
X131857596Y-34787734D01*
X131281863Y-105526143D02*
X130634868Y-105962177D01*
X131857596Y-34787734D02*
X132674278Y-35356447D01*
X131925330Y-105084818D02*
X131281863Y-105526143D01*
X132565622Y-104638237D02*
X131925330Y-105084818D01*
X132674278Y-35356447D02*
X133484609Y-35933874D01*
X133202033Y-104186575D02*
X132565622Y-104638237D01*
X133484609Y-35933874D02*
X134289013Y-36519627D01*
X133834917Y-103730115D02*
X133202033Y-104186575D01*
X134289013Y-36519627D02*
X135087526Y-37113423D01*
X134464061Y-103269070D02*
X133834917Y-103730115D01*
X135087526Y-37113423D02*
X135880430Y-37714874D01*
X135089713Y-102803579D02*
X134464061Y-103269070D01*
X135711767Y-102333891D02*
X135089713Y-102803579D01*
X135880430Y-37714874D02*
X136667866Y-38323663D01*
X136667866Y-38323663D02*
X137450045Y-38939472D01*
X136944973Y-101382766D02*
X135711767Y-102333891D01*
X137450045Y-38939472D02*
X138227180Y-39561949D01*
X138163609Y-100417283D02*
X136944973Y-101382766D01*
X138227180Y-39561949D02*
X138999481Y-40190776D01*
X138999481Y-40190776D02*
X139767091Y-40825565D01*
X139367640Y-99439171D02*
X138163609Y-100417283D01*
X139767091Y-40825565D02*
X140530256Y-41466068D01*
X140530256Y-41466068D02*
X141289187Y-42111864D01*
X140556926Y-98450052D02*
X139367640Y-99439171D01*
X141289187Y-42111864D02*
X142044026Y-42762704D01*
X141731465Y-97451584D02*
X140556926Y-98450052D01*
X142044026Y-42762704D02*
X142795020Y-43418165D01*
X142795020Y-43418165D02*
X143542380Y-44077966D01*
X142891152Y-96445426D02*
X141731465Y-97451584D01*
X143542380Y-44077966D02*
X145026834Y-45409209D01*
X144035916Y-95433235D02*
X142891152Y-96445426D01*
X144897330Y-94640684D02*
X144035916Y-95433235D01*
X145026834Y-45409209D02*
X146499012Y-46753752D01*
X145755004Y-93844112D02*
X144897330Y-94640684D01*
X146499012Y-46753752D02*
X147960536Y-48108878D01*
X147462061Y-92242112D02*
X145755004Y-93844112D01*
X147960536Y-48108878D02*
X149412959Y-49471942D01*
X149412959Y-49471942D02*
X150857867Y-50840262D01*
X150857867Y-50840262D02*
X151920928Y-49794910D01*
X150864217Y-89025305D02*
X147462061Y-92242112D01*
X151920928Y-49794910D02*
X152993444Y-48753086D01*
X152307784Y-90417085D02*
X150864217Y-89025305D01*
X152993444Y-48753086D02*
X154075731Y-47715919D01*
X153760595Y-91801950D02*
X152307784Y-90417085D01*
X154075731Y-47715919D02*
X155167932Y-46684502D01*
X155167932Y-46684502D02*
X156270293Y-45660034D01*
X155224094Y-93177255D02*
X153760595Y-91801950D01*
X156270293Y-45660034D02*
X157382990Y-44643575D01*
X156699906Y-94540390D02*
X155224094Y-93177255D01*
X157382990Y-44643575D02*
X158506305Y-43636288D01*
X157442856Y-95216524D02*
X156699906Y-94540390D01*
X158189476Y-95888601D02*
X157442856Y-95216524D01*
X158506305Y-43636288D02*
X159640416Y-42639267D01*
X158939905Y-96556304D02*
X158189476Y-95888601D01*
X159640416Y-42639267D02*
X160785534Y-41653676D01*
X159694391Y-97219315D02*
X158939905Y-96556304D01*
X160453040Y-97877246D02*
X159694391Y-97219315D01*
X160785534Y-41653676D02*
X161941905Y-40680643D01*
X161216134Y-98529815D02*
X160453040Y-97877246D01*
X161941905Y-40680643D02*
X163109741Y-39721264D01*
X161983815Y-99176633D02*
X161216134Y-98529815D01*
X162756293Y-99817455D02*
X161983815Y-99176633D01*
X163109741Y-39721264D02*
X164289254Y-38776701D01*
X163533745Y-100451855D02*
X162756293Y-99817455D01*
X164289254Y-38776701D02*
X165480621Y-37848083D01*
X164316347Y-101079553D02*
X163533745Y-100451855D01*
X165104312Y-101700231D02*
X164316347Y-101079553D01*
X165480621Y-37848083D02*
X166080844Y-37390107D01*
X165897851Y-102313500D02*
X165104312Y-101700231D01*
X166080844Y-37390107D02*
X166684116Y-36936540D01*
X166684116Y-36936540D02*
X167290467Y-36487489D01*
X166697123Y-102919079D02*
X165897851Y-102313500D01*
X167290467Y-36487489D02*
X167899930Y-36043165D01*
X167502328Y-103516579D02*
X166697123Y-102919079D01*
X167899930Y-36043165D02*
X168512525Y-35603639D01*
X168313657Y-104105753D02*
X167502328Y-103516579D01*
X168512525Y-35603639D02*
X169128285Y-35169087D01*
X169128285Y-35169087D02*
X169747231Y-34739650D01*
X169131305Y-104686179D02*
X168313657Y-104105753D01*
X169747231Y-34739650D02*
X170369397Y-34315435D01*
X169955461Y-105257574D02*
X169131305Y-104686179D01*
X170369397Y-34315435D02*
X170994802Y-33896687D01*
X170786317Y-105819655D02*
X169955461Y-105257574D01*
X170994802Y-33896687D02*
X171623481Y-33483584D01*
X171623481Y-33483584D02*
X172255458Y-33075773D01*
X171624063Y-106371752D02*
X170786317Y-105819655D01*
X172255458Y-33075773D02*
X172890761Y-32673959D01*
X172468888Y-106914325D02*
X171624063Y-106371752D01*
X172890761Y-32673959D02*
X173529427Y-32278142D01*
X173321006Y-107445961D02*
X172468888Y-106914325D01*
X173529427Y-32278142D02*
X174171448Y-31888675D01*
X174171448Y-31888675D02*
X174816890Y-31505205D01*
X174180550Y-107967367D02*
X173321006Y-107445961D01*
X174816890Y-31505205D02*
X175465755Y-31128086D01*
X175047784Y-108477484D02*
X174180550Y-107967367D01*
X175465755Y-31128086D02*
X176118077Y-30757669D01*
X175922850Y-108976312D02*
X175047784Y-108477484D01*
X176118077Y-30757669D02*
X176773926Y-30393602D01*
X176498160Y-109325915D02*
X175922850Y-108976312D01*
X176773926Y-30393602D02*
X177433269Y-30036590D01*
X177078056Y-109667757D02*
X176498160Y-109325915D01*
X177433269Y-30036590D02*
X178096138Y-29686282D01*
X177662398Y-110002191D02*
X177078056Y-109667757D01*
X178096138Y-29686282D02*
X178762571Y-29343382D01*
X178251149Y-110328510D02*
X177662398Y-110002191D01*
X178762571Y-29343382D02*
X179432638Y-29007537D01*
X178844134Y-110647422D02*
X178251149Y-110328510D01*
X179432638Y-29007537D02*
X180106303Y-28679101D01*
X179441246Y-110958572D02*
X178844134Y-110647422D01*
X180042379Y-111261608D02*
X179441246Y-110958572D01*
X180106303Y-28679101D02*
X180783601Y-28358073D01*
X180647429Y-111556883D02*
X180042379Y-111261608D01*
X180783601Y-28358073D02*
X181464604Y-28044806D01*
X181256253Y-111844045D02*
X180647429Y-111556883D01*
X181464604Y-28044806D02*
X182149311Y-27739300D01*
X181868817Y-112123445D02*
X181256253Y-111844045D01*
X182149311Y-27739300D02*
X182837757Y-27441555D01*
X182484908Y-112394731D02*
X181868817Y-112123445D01*
X182837757Y-27441555D02*
X183529943Y-27152277D01*
X183104457Y-112658256D02*
X182484908Y-112394731D01*
X183529943Y-27152277D02*
X184225903Y-26870761D01*
X183727392Y-112913315D02*
X183104457Y-112658256D01*
X184225903Y-26870761D02*
X184925709Y-26598063D01*
X184353503Y-113160612D02*
X183727392Y-112913315D01*
X184925709Y-26598063D02*
X185629325Y-26333480D01*
X184982788Y-113399443D02*
X184353503Y-113160612D01*
X185615072Y-113630160D02*
X184982788Y-113399443D01*
X185629325Y-26333480D02*
X186336856Y-26077716D01*
X186250214Y-113852763D02*
X185615072Y-113630160D01*
X186336856Y-26077716D02*
X187048233Y-25830771D01*
X186888178Y-114066899D02*
X186250214Y-113852763D01*
X187048233Y-25830771D02*
X187763561Y-25592646D01*
X187528787Y-114272568D02*
X186888178Y-114066899D01*
X187763561Y-25592646D02*
X188482840Y-25363693D01*
X188171972Y-114470124D02*
X187528787Y-114272568D01*
X188482840Y-25363693D02*
X189206070Y-25143560D01*
X188817591Y-114659213D02*
X188171972Y-114470124D01*
X189206070Y-25143560D02*
X189933322Y-24933304D01*
X189465538Y-114839835D02*
X188817591Y-114659213D01*
X189933322Y-24933304D02*
X190664595Y-24732220D01*
X190115708Y-115011991D02*
X189465538Y-114839835D01*
X190664595Y-24732220D02*
X191510557Y-24526551D01*
X190767959Y-115175327D02*
X190115708Y-115011991D01*
X191422257Y-115330550D02*
X190767959Y-115175327D01*
X191510557Y-24526551D02*
X192361034Y-24337109D01*
X192078389Y-115476953D02*
X191422257Y-115330550D01*
X192361034Y-24337109D02*
X193215674Y-24163895D01*
X192736284Y-115614536D02*
X192078389Y-115476953D01*
X193215674Y-24163895D02*
X194074124Y-24006556D01*
X193395873Y-115743653D02*
X192736284Y-115614536D01*
X194056979Y-115863950D02*
X193395873Y-115743653D01*
X194074124Y-24006556D02*
X194936102Y-23865445D01*
X194719496Y-115975428D02*
X194056979Y-115863950D01*
X194936102Y-23865445D02*
X195801220Y-23740209D01*
X195383354Y-116078086D02*
X194719496Y-115975428D01*
X195801220Y-23740209D02*
X196669195Y-23631200D01*
X196048411Y-116171572D02*
X195383354Y-116078086D01*
X196669195Y-23631200D02*
X197539710Y-23538067D01*
X196714562Y-116256592D02*
X196048411Y-116171572D01*
X197381700Y-116332439D02*
X196714562Y-116256592D01*
X197539710Y-23538067D02*
X198412376Y-23460456D01*
X198049685Y-116399467D02*
X197381700Y-116332439D01*
X198412376Y-23460456D02*
X199286878Y-23399072D01*
X198718411Y-116457323D02*
X198049685Y-116399467D01*
X199286878Y-23399072D02*
X200162896Y-23353564D01*
X199387772Y-116506359D02*
X198718411Y-116457323D01*
X200057698Y-116546223D02*
X199387772Y-116506359D01*
X200162896Y-23353564D02*
X201040114Y-23323931D01*
X200728011Y-116576562D02*
X200057698Y-116546223D01*
X201040114Y-23323931D02*
X201918178Y-23309819D01*
X201398607Y-116598081D02*
X200728011Y-116576562D01*
X201918178Y-23309819D02*
X202796737Y-23311583D01*
X202069414Y-116610428D02*
X201398607Y-116598081D01*
X202740292Y-116613250D02*
X202069414Y-116610428D01*
X202796737Y-23311583D02*
X203675507Y-23329222D01*
X203411135Y-116606900D02*
X202740292Y-116613250D01*
X203675507Y-23329222D02*
X204554136Y-23362383D01*
X204081836Y-116591025D02*
X203411135Y-116606900D01*
X204554136Y-23362383D02*
X205432271Y-23411420D01*
X204752256Y-116565978D02*
X204081836Y-116591025D01*
X205422393Y-116531406D02*
X204752256Y-116565978D01*
X205432271Y-23411420D02*
X206309629Y-23475978D01*
X206091965Y-116487309D02*
X205422393Y-116531406D01*
X206309629Y-23475978D02*
X207185930Y-23556059D01*
X206760833Y-116433686D02*
X206091965Y-116487309D01*
X207185930Y-23556059D02*
X208060467Y-23651661D01*
X207428994Y-116370539D02*
X206760833Y-116433686D01*
X208060467Y-23651661D02*
X208933592Y-23763139D01*
X208096450Y-116297867D02*
X207428994Y-116370539D01*
X208762848Y-116215670D02*
X208096450Y-116297867D01*
X208933592Y-23763139D02*
X209804248Y-23889787D01*
X209428540Y-116123595D02*
X208762848Y-116215670D01*
X209804248Y-23889787D02*
X210672788Y-24031956D01*
X210092468Y-116021642D02*
X209428540Y-116123595D01*
X210672788Y-24031956D02*
X211538152Y-24189648D01*
X210755691Y-115910164D02*
X210092468Y-116021642D01*
X211417149Y-115788808D02*
X210755691Y-115910164D01*
X211538152Y-24189648D02*
X212400694Y-24362862D01*
X212077197Y-115657575D02*
X211417149Y-115788808D01*
X212400694Y-24362862D02*
X213259709Y-24551245D01*
X212735834Y-115516464D02*
X212077197Y-115657575D01*
X213259709Y-24551245D02*
X214114843Y-24755151D01*
X213392353Y-115365475D02*
X212735834Y-115516464D01*
X214047462Y-115204608D02*
X213392353Y-115365475D01*
X214114843Y-24755151D02*
X214966096Y-24974226D01*
X214700454Y-115033511D02*
X214047462Y-115204608D01*
X214966096Y-24974226D02*
X215812410Y-25208471D01*
X215350977Y-114852535D02*
X214700454Y-115033511D01*
X215812410Y-25208471D02*
X216654492Y-25458237D01*
X215999736Y-114661683D02*
X215350977Y-114852535D01*
X216646378Y-114460246D02*
X215999736Y-114661683D01*
X216654492Y-25458237D02*
X217490928Y-25722821D01*
X217290198Y-114248932D02*
X216646378Y-114460246D01*
X217490928Y-25722821D02*
X218322426Y-26002927D01*
X217858523Y-114082774D02*
X217290198Y-114248932D01*
X218322426Y-26002927D02*
X219147926Y-26298202D01*
X218423673Y-113907796D02*
X217858523Y-114082774D01*
X218984943Y-113723999D02*
X218423673Y-113907796D01*
X219147926Y-26298202D02*
X219967430Y-26608647D01*
X219542332Y-113531735D02*
X218984943Y-113723999D01*
X219967430Y-26608647D02*
X220780230Y-26933908D01*
X220096194Y-113330651D02*
X219542332Y-113531735D01*
X220645822Y-113121454D02*
X220096194Y-113330651D01*
X220780230Y-26933908D02*
X221586328Y-27274339D01*
X221191922Y-112903437D02*
X220645822Y-113121454D01*
X221586328Y-27274339D02*
X222385370Y-27629939D01*
X221734142Y-112677659D02*
X221191922Y-112903437D01*
X222272128Y-112443415D02*
X221734142Y-112677659D01*
X222385370Y-27629939D02*
X223177004Y-28000356D01*
X222806234Y-112201056D02*
X222272128Y-112443415D01*
X223177004Y-28000356D02*
X223960877Y-28385942D01*
X223336460Y-111950936D02*
X222806234Y-112201056D01*
X223862099Y-111692703D02*
X223336460Y-111950936D01*
X223960877Y-28385942D02*
X224736636Y-28786345D01*
X224383858Y-111427061D02*
X223862099Y-111692703D01*
X224736636Y-28786345D02*
X225504280Y-29201565D01*
X224901383Y-111153305D02*
X224383858Y-111427061D01*
X225414322Y-110872141D02*
X224901383Y-111153305D01*
X225504280Y-29201565D02*
X226262753Y-29631601D01*
X225923028Y-110583216D02*
X225414322Y-110872141D01*
X226262753Y-29631601D02*
X227012406Y-30076454D01*
X226427500Y-110287235D02*
X225923028Y-110583216D01*
X226927387Y-109983846D02*
X226427500Y-110287235D01*
X227012406Y-30076454D02*
X227752535Y-30536477D01*
X227422334Y-109673049D02*
X226927387Y-109983846D01*
X227752535Y-30536477D02*
X228482785Y-31010963D01*
X227913049Y-109355549D02*
X227422334Y-109673049D01*
X228399177Y-109030640D02*
X227913049Y-109355549D01*
X228482785Y-31010963D02*
X229202805Y-31500266D01*
X228880719Y-108699029D02*
X228399177Y-109030640D01*
X229202805Y-31500266D02*
X229912947Y-32004033D01*
X229357322Y-108360362D02*
X228880719Y-108699029D01*
X229828986Y-108014992D02*
X229357322Y-108360362D01*
X229912947Y-32004033D02*
X230611800Y-32522970D01*
X230296064Y-107662920D02*
X229828986Y-108014992D01*
X230611800Y-32522970D02*
X231300070Y-33056017D01*
X230758203Y-107304497D02*
X230296064Y-107662920D01*
X231215404Y-106939372D02*
X230758203Y-107304497D01*
X231300070Y-33056017D02*
X231976346Y-33603882D01*
X231667312Y-106568250D02*
X231215404Y-106939372D01*
X231976346Y-33603882D02*
X232641332Y-34166562D01*
X232114282Y-106190424D02*
X231667312Y-106568250D01*
X232556313Y-105806955D02*
X232114282Y-106190424D01*
X232641332Y-34166562D02*
X233293971Y-34743566D01*
X232993052Y-105416782D02*
X232556313Y-105806955D01*
X233293971Y-34743566D02*
X233934616Y-35335140D01*
X233424499Y-105021071D02*
X232993052Y-105416782D01*
X233850655Y-104619363D02*
X233424499Y-105021071D01*
X233934616Y-35335140D02*
X234562208Y-35941177D01*
X234271167Y-104211834D02*
X233850655Y-104619363D01*
X234562208Y-35941177D02*
X235176748Y-36561643D01*
X234686739Y-103798590D02*
X234271167Y-104211834D01*
X235096667Y-103379772D02*
X234686739Y-103798590D01*
X235176748Y-36561643D02*
X235777881Y-37196537D01*
X235500951Y-102955450D02*
X235096667Y-103379772D01*
X235777881Y-37196537D02*
X236365257Y-37845825D01*
X235899943Y-102525696D02*
X235500951Y-102955450D01*
X236293290Y-102090650D02*
X235899943Y-102525696D01*
X236365257Y-37845825D02*
X236938874Y-38509471D01*
X236680640Y-101650348D02*
X236293290Y-102090650D01*
X236938874Y-38509471D02*
X237497674Y-39187440D01*
X237062699Y-101204966D02*
X236680640Y-101650348D01*
X237438760Y-100754504D02*
X237062699Y-101204966D01*
X237497674Y-39187440D02*
X238042011Y-39879661D01*
X237808824Y-100299138D02*
X237438760Y-100754504D01*
X238042011Y-39879661D02*
X238571178Y-40586170D01*
X238173244Y-99838904D02*
X237808824Y-100299138D01*
X238531666Y-99373942D02*
X238173244Y-99838904D01*
X238571178Y-40586170D02*
X239085175Y-41306930D01*
X238884092Y-98904324D02*
X238531666Y-99373942D01*
X239085175Y-41306930D02*
X239583298Y-42041837D01*
X239230167Y-98430155D02*
X238884092Y-98904324D01*
X239570245Y-97951506D02*
X239230167Y-98430155D01*
X239583298Y-42041837D02*
X239826362Y-42414618D01*
X239826362Y-42414618D02*
X240065192Y-42790926D01*
X239904326Y-97468482D02*
X239570245Y-97951506D01*
X240065192Y-42790926D02*
X240494876Y-43430477D01*
X240232409Y-96981225D02*
X239904326Y-97468482D01*
X240494876Y-43430477D02*
X240912212Y-44076908D01*
X240553790Y-96489770D02*
X240232409Y-96981225D01*
X240868821Y-95994223D02*
X240553790Y-96489770D01*
X240912212Y-44076908D02*
X241317554Y-44730006D01*
X241177854Y-95494725D02*
X240868821Y-95994223D01*
X241317554Y-44730006D02*
X241711255Y-45389630D01*
X241480185Y-94991310D02*
X241177854Y-95494725D01*
X241711255Y-45389630D02*
X242092608Y-46055569D01*
X241776166Y-94484086D02*
X241480185Y-94991310D01*
X242065444Y-93973193D02*
X241776166Y-94484086D01*
X242092608Y-46055569D02*
X242462319Y-46727611D01*
X242348019Y-93458666D02*
X242065444Y-93973193D01*
X242462319Y-46727611D02*
X242820036Y-47405615D01*
X242624244Y-92940647D02*
X242348019Y-93458666D01*
X242820036Y-47405615D02*
X243165758Y-48089370D01*
X242893414Y-92419206D02*
X242624244Y-92940647D01*
X243156233Y-91894449D02*
X242893414Y-92419206D01*
X243165758Y-48089370D02*
X243499486Y-48778662D01*
X243411997Y-91366446D02*
X243156233Y-91894449D01*
X243499486Y-48778662D02*
X243821573Y-49473353D01*
X243660706Y-90835339D02*
X243411997Y-91366446D01*
X243821573Y-49473353D02*
X244131664Y-50173229D01*
X243902712Y-90301198D02*
X243660706Y-90835339D01*
X244131664Y-50173229D02*
X244430115Y-50878115D01*
X244137662Y-89764093D02*
X243902712Y-90301198D01*
X244427292Y-89058008D02*
X244137662Y-89764093D01*
X244430115Y-50878115D02*
X244716570Y-51587834D01*
X244705987Y-88347125D02*
X244427292Y-89058008D01*
X244716570Y-51587834D02*
X244991384Y-52302139D01*
X244973746Y-87631691D02*
X244705987Y-88347125D01*
X244991384Y-52302139D02*
X245254557Y-53020888D01*
X245230921Y-86911848D02*
X244973746Y-87631691D01*
X245254557Y-53020888D02*
X245505735Y-53743907D01*
X245476807Y-86187841D02*
X245230921Y-86911848D01*
X245505735Y-53743907D02*
X245745271Y-54470947D01*
X245712110Y-85459778D02*
X245476807Y-86187841D01*
X245745271Y-54470947D02*
X245973166Y-55201903D01*
X245936477Y-84727905D02*
X245712110Y-85459778D01*
X245973166Y-55201903D02*
X246189066Y-55936528D01*
X246149907Y-83992398D02*
X245936477Y-84727905D01*
X246189066Y-55936528D02*
X246393677Y-56674645D01*
X246352755Y-83253434D02*
X246149907Y-83992398D01*
X246393677Y-56674645D02*
X246586647Y-57416079D01*
X246543960Y-82511189D02*
X246352755Y-83253434D01*
X246586647Y-57416079D02*
X246767622Y-58160652D01*
X246724583Y-81765875D02*
X246543960Y-82511189D01*
X246767622Y-58160652D02*
X246937308Y-58908118D01*
X246894269Y-81017703D02*
X246724583Y-81765875D01*
X246937308Y-58908118D02*
X247095352Y-59658371D01*
X247052666Y-80266815D02*
X246894269Y-81017703D01*
X247095352Y-59658371D02*
X247241755Y-60411164D01*
X247200127Y-79513387D02*
X247052666Y-80266815D01*
X247241755Y-60411164D02*
X247376869Y-61166321D01*
X247336653Y-78757666D02*
X247200127Y-79513387D01*
X247376869Y-61166321D02*
X247499989Y-61923700D01*
X247461889Y-77999793D02*
X247336653Y-78757666D01*
X247499989Y-61923700D02*
X247611819Y-62683019D01*
X247576189Y-77239980D02*
X247461889Y-77999793D01*
X247611819Y-62683019D02*
X247712361Y-63444173D01*
X247679553Y-76478403D02*
X247576189Y-77239980D01*
X247712361Y-63444173D02*
X247801261Y-64206950D01*
X247771275Y-75715238D02*
X247679553Y-76478403D01*
X247801261Y-64206950D02*
X247878520Y-64971173D01*
X247852061Y-74950733D02*
X247771275Y-75715238D01*
X247878520Y-64971173D02*
X247944489Y-65736630D01*
X247921911Y-74184993D02*
X247852061Y-74950733D01*
X247944489Y-65736630D02*
X247999170Y-66503129D01*
X247980472Y-73418248D02*
X247921911Y-74184993D01*
X247999170Y-66503129D02*
X248042561Y-67270506D01*
X248027392Y-72650684D02*
X247980472Y-73418248D01*
X248042561Y-67270506D02*
X248074311Y-68038563D01*
X248063728Y-71882485D02*
X248027392Y-72650684D01*
X248074311Y-68038563D02*
X248094772Y-68807115D01*
X248088422Y-71113842D02*
X248063728Y-71882485D01*
X248094772Y-68807115D02*
X248103945Y-69575970D01*
X248101828Y-70344941D02*
X248088422Y-71113842D01*
X248103945Y-69575970D02*
X248101828Y-70344941D01*
%TD*%
M02*
