%TF.GenerationSoftware,KiCad,Pcbnew,8.0.1*%
%TF.CreationDate,2024-06-01T14:38:50-07:00*%
%TF.ProjectId,CHV_DC32,4348565f-4443-4333-922e-6b696361645f,rev?*%
%TF.SameCoordinates,Original*%
%TF.FileFunction,Copper,L4,Bot*%
%TF.FilePolarity,Positive*%
%FSLAX46Y46*%
G04 Gerber Fmt 4.6, Leading zero omitted, Abs format (unit mm)*
G04 Created by KiCad (PCBNEW 8.0.1) date 2024-06-01 14:38:50*
%MOMM*%
%LPD*%
G01*
G04 APERTURE LIST*
G04 Aperture macros list*
%AMRoundRect*
0 Rectangle with rounded corners*
0 $1 Rounding radius*
0 $2 $3 $4 $5 $6 $7 $8 $9 X,Y pos of 4 corners*
0 Add a 4 corners polygon primitive as box body*
4,1,4,$2,$3,$4,$5,$6,$7,$8,$9,$2,$3,0*
0 Add four circle primitives for the rounded corners*
1,1,$1+$1,$2,$3*
1,1,$1+$1,$4,$5*
1,1,$1+$1,$6,$7*
1,1,$1+$1,$8,$9*
0 Add four rect primitives between the rounded corners*
20,1,$1+$1,$2,$3,$4,$5,0*
20,1,$1+$1,$4,$5,$6,$7,0*
20,1,$1+$1,$6,$7,$8,$9,0*
20,1,$1+$1,$8,$9,$2,$3,0*%
%AMHorizOval*
0 Thick line with rounded ends*
0 $1 width*
0 $2 $3 position (X,Y) of the first rounded end (center of the circle)*
0 $4 $5 position (X,Y) of the second rounded end (center of the circle)*
0 Add line between two ends*
20,1,$1,$2,$3,$4,$5,0*
0 Add two circle primitives to create the rounded ends*
1,1,$1,$2,$3*
1,1,$1,$4,$5*%
%AMRotRect*
0 Rectangle, with rotation*
0 The origin of the aperture is its center*
0 $1 length*
0 $2 width*
0 $3 Rotation angle, in degrees counterclockwise*
0 Add horizontal line*
21,1,$1,$2,0,0,$3*%
%AMFreePoly0*
4,1,11,0.760000,0.825000,0.380000,0.510000,0.380000,-0.510000,0.760000,-0.825000,0.760000,-1.525000,-0.125000,-1.525000,-0.380000,-1.270000,-0.380000,1.270000,-0.125000,1.525000,0.760000,1.525000,0.760000,0.825000,0.760000,0.825000,$1*%
G04 Aperture macros list end*
%TA.AperFunction,ComponentPad*%
%ADD10O,1.727200X1.727200*%
%TD*%
%TA.AperFunction,ComponentPad*%
%ADD11R,1.727200X1.727200*%
%TD*%
%TA.AperFunction,ComponentPad*%
%ADD12C,1.727200*%
%TD*%
%TA.AperFunction,SMDPad,CuDef*%
%ADD13RoundRect,0.250000X0.475000X-0.250000X0.475000X0.250000X-0.475000X0.250000X-0.475000X-0.250000X0*%
%TD*%
%TA.AperFunction,SMDPad,CuDef*%
%ADD14RoundRect,0.250000X-0.262500X-0.450000X0.262500X-0.450000X0.262500X0.450000X-0.262500X0.450000X0*%
%TD*%
%TA.AperFunction,SMDPad,CuDef*%
%ADD15RoundRect,0.150000X0.150000X-0.825000X0.150000X0.825000X-0.150000X0.825000X-0.150000X-0.825000X0*%
%TD*%
%TA.AperFunction,SMDPad,CuDef*%
%ADD16RoundRect,0.250000X-0.450000X0.262500X-0.450000X-0.262500X0.450000X-0.262500X0.450000X0.262500X0*%
%TD*%
%TA.AperFunction,SMDPad,CuDef*%
%ADD17R,1.000000X2.750000*%
%TD*%
%TA.AperFunction,SMDPad,CuDef*%
%ADD18RoundRect,0.250000X0.262500X0.450000X-0.262500X0.450000X-0.262500X-0.450000X0.262500X-0.450000X0*%
%TD*%
%TA.AperFunction,SMDPad,CuDef*%
%ADD19RoundRect,0.250000X0.450000X-0.262500X0.450000X0.262500X-0.450000X0.262500X-0.450000X-0.262500X0*%
%TD*%
%TA.AperFunction,SMDPad,CuDef*%
%ADD20RoundRect,0.250000X-0.250000X-0.475000X0.250000X-0.475000X0.250000X0.475000X-0.250000X0.475000X0*%
%TD*%
%TA.AperFunction,SMDPad,CuDef*%
%ADD21RoundRect,0.250000X0.250000X0.475000X-0.250000X0.475000X-0.250000X-0.475000X0.250000X-0.475000X0*%
%TD*%
%TA.AperFunction,SMDPad,CuDef*%
%ADD22RoundRect,0.250000X-0.375000X-0.625000X0.375000X-0.625000X0.375000X0.625000X-0.375000X0.625000X0*%
%TD*%
%TA.AperFunction,SMDPad,CuDef*%
%ADD23RoundRect,0.250000X-0.475000X0.250000X-0.475000X-0.250000X0.475000X-0.250000X0.475000X0.250000X0*%
%TD*%
%TA.AperFunction,SMDPad,CuDef*%
%ADD24RotRect,0.900000X1.250000X349.000000*%
%TD*%
%TA.AperFunction,SMDPad,CuDef*%
%ADD25RotRect,0.800000X0.930000X349.000000*%
%TD*%
%TA.AperFunction,SMDPad,CuDef*%
%ADD26RoundRect,0.150000X-0.150000X0.825000X-0.150000X-0.825000X0.150000X-0.825000X0.150000X0.825000X0*%
%TD*%
%TA.AperFunction,SMDPad,CuDef*%
%ADD27RoundRect,0.250000X0.375000X0.625000X-0.375000X0.625000X-0.375000X-0.625000X0.375000X-0.625000X0*%
%TD*%
%TA.AperFunction,ComponentPad*%
%ADD28RotRect,1.700000X1.700000X230.000000*%
%TD*%
%TA.AperFunction,ComponentPad*%
%ADD29HorizOval,1.700000X0.000000X0.000000X0.000000X0.000000X0*%
%TD*%
%TA.AperFunction,SMDPad,CuDef*%
%ADD30RotRect,0.900000X1.250000X328.000000*%
%TD*%
%TA.AperFunction,SMDPad,CuDef*%
%ADD31RotRect,0.800000X0.930000X328.000000*%
%TD*%
%TA.AperFunction,SMDPad,CuDef*%
%ADD32R,1.500000X1.000000*%
%TD*%
%TA.AperFunction,SMDPad,CuDef*%
%ADD33RotRect,0.900000X1.250000X150.000000*%
%TD*%
%TA.AperFunction,SMDPad,CuDef*%
%ADD34RotRect,0.800000X0.930000X150.000000*%
%TD*%
%TA.AperFunction,ComponentPad*%
%ADD35R,2.000000X2.000000*%
%TD*%
%TA.AperFunction,ComponentPad*%
%ADD36C,2.000000*%
%TD*%
%TA.AperFunction,SMDPad,CuDef*%
%ADD37RotRect,0.300000X0.900000X135.000000*%
%TD*%
%TA.AperFunction,SMDPad,CuDef*%
%ADD38RotRect,0.250000X1.650000X225.000000*%
%TD*%
%TA.AperFunction,SMDPad,CuDef*%
%ADD39RotRect,0.600000X1.450000X219.000000*%
%TD*%
%TA.AperFunction,SMDPad,CuDef*%
%ADD40RotRect,0.300000X1.450000X219.000000*%
%TD*%
%TA.AperFunction,ComponentPad*%
%ADD41HorizOval,1.000000X-0.188796X0.233144X0.188796X-0.233144X0*%
%TD*%
%TA.AperFunction,ComponentPad*%
%ADD42HorizOval,1.000000X-0.346126X0.427430X0.346126X-0.427430X0*%
%TD*%
%TA.AperFunction,SMDPad,CuDef*%
%ADD43RotRect,0.900000X1.250000X40.000000*%
%TD*%
%TA.AperFunction,SMDPad,CuDef*%
%ADD44RotRect,0.800000X0.930000X40.000000*%
%TD*%
%TA.AperFunction,SMDPad,CuDef*%
%ADD45RotRect,0.900000X1.250000X210.000000*%
%TD*%
%TA.AperFunction,SMDPad,CuDef*%
%ADD46RotRect,0.800000X0.930000X210.000000*%
%TD*%
%TA.AperFunction,SMDPad,CuDef*%
%ADD47RotRect,0.900000X1.250000X30.000000*%
%TD*%
%TA.AperFunction,SMDPad,CuDef*%
%ADD48RotRect,0.800000X0.930000X30.000000*%
%TD*%
%TA.AperFunction,SMDPad,CuDef*%
%ADD49RoundRect,0.062500X-0.350000X-0.062500X0.350000X-0.062500X0.350000X0.062500X-0.350000X0.062500X0*%
%TD*%
%TA.AperFunction,HeatsinkPad*%
%ADD50R,1.200000X2.000000*%
%TD*%
%TA.AperFunction,SMDPad,CuDef*%
%ADD51RoundRect,0.150000X-0.825000X-0.150000X0.825000X-0.150000X0.825000X0.150000X-0.825000X0.150000X0*%
%TD*%
%TA.AperFunction,ComponentPad*%
%ADD52O,3.500000X2.200000*%
%TD*%
%TA.AperFunction,ComponentPad*%
%ADD53R,2.500000X1.500000*%
%TD*%
%TA.AperFunction,ComponentPad*%
%ADD54O,2.500000X1.500000*%
%TD*%
%TA.AperFunction,SMDPad,CuDef*%
%ADD55RoundRect,0.150000X0.587500X0.150000X-0.587500X0.150000X-0.587500X-0.150000X0.587500X-0.150000X0*%
%TD*%
%TA.AperFunction,SMDPad,CuDef*%
%ADD56RoundRect,0.225000X-0.225000X-0.375000X0.225000X-0.375000X0.225000X0.375000X-0.225000X0.375000X0*%
%TD*%
%TA.AperFunction,SMDPad,CuDef*%
%ADD57RoundRect,0.050000X-0.050000X0.387500X-0.050000X-0.387500X0.050000X-0.387500X0.050000X0.387500X0*%
%TD*%
%TA.AperFunction,SMDPad,CuDef*%
%ADD58RoundRect,0.050000X-0.387500X0.050000X-0.387500X-0.050000X0.387500X-0.050000X0.387500X0.050000X0*%
%TD*%
%TA.AperFunction,SMDPad,CuDef*%
%ADD59RoundRect,0.144000X-1.456000X1.456000X-1.456000X-1.456000X1.456000X-1.456000X1.456000X1.456000X0*%
%TD*%
%TA.AperFunction,SMDPad,CuDef*%
%ADD60RoundRect,0.250000X-0.625000X0.375000X-0.625000X-0.375000X0.625000X-0.375000X0.625000X0.375000X0*%
%TD*%
%TA.AperFunction,SMDPad,CuDef*%
%ADD61R,1.200000X1.100000*%
%TD*%
%TA.AperFunction,SMDPad,CuDef*%
%ADD62RoundRect,0.250000X-0.490341X-0.175988X-0.088168X-0.513452X0.490341X0.175988X0.088168X0.513452X0*%
%TD*%
%TA.AperFunction,SMDPad,CuDef*%
%ADD63FreePoly0,270.000000*%
%TD*%
%TA.AperFunction,SMDPad,CuDef*%
%ADD64FreePoly0,90.000000*%
%TD*%
%TA.AperFunction,ViaPad*%
%ADD65C,0.600000*%
%TD*%
%TA.AperFunction,Conductor*%
%ADD66C,1.000000*%
%TD*%
%TA.AperFunction,Conductor*%
%ADD67C,0.200000*%
%TD*%
%TA.AperFunction,Conductor*%
%ADD68C,0.500000*%
%TD*%
G04 APERTURE END LIST*
D10*
%TO.P,J7,1,Pin_1*%
%TO.N,+3V3*%
X214015000Y-106360000D03*
D11*
%TO.P,J7,2,Pin_2*%
%TO.N,GND*%
X214015000Y-108900000D03*
D10*
%TO.P,J7,3,Pin_3*%
%TO.N,unconnected-(J7-Pin_3-Pad3)*%
X216555000Y-106360000D03*
%TO.P,J7,4,Pin_4*%
%TO.N,unconnected-(J7-Pin_4-Pad4)*%
X216555000Y-108900000D03*
D12*
%TO.P,J7,5,Pin_5*%
%TO.N,SAO1_TX*%
X219095000Y-106360000D03*
%TO.P,J7,6,Pin_6*%
%TO.N,SAO1_RX*%
X219095000Y-108900000D03*
%TD*%
D10*
%TO.P,J5,1,Pin_1*%
%TO.N,+3V3*%
X190790000Y-44085000D03*
D11*
%TO.P,J5,2,Pin_2*%
%TO.N,GND*%
X190790000Y-46625000D03*
D10*
%TO.P,J5,3,Pin_3*%
%TO.N,unconnected-(J5-Pin_3-Pad3)*%
X193330000Y-44085000D03*
%TO.P,J5,4,Pin_4*%
%TO.N,unconnected-(J5-Pin_4-Pad4)*%
X193330000Y-46625000D03*
D12*
%TO.P,J5,5,Pin_5*%
%TO.N,SAO3_TX*%
X195870000Y-44085000D03*
%TO.P,J5,6,Pin_6*%
%TO.N,SAO3_RX*%
X195870000Y-46625000D03*
%TD*%
D10*
%TO.P,J3,1,Pin_1*%
%TO.N,+3V3*%
X111015000Y-106360000D03*
D11*
%TO.P,J3,2,Pin_2*%
%TO.N,GND*%
X111015000Y-108900000D03*
D10*
%TO.P,J3,3,Pin_3*%
%TO.N,unconnected-(J3-Pin_3-Pad3)*%
X113555000Y-106360000D03*
%TO.P,J3,4,Pin_4*%
%TO.N,unconnected-(J3-Pin_4-Pad4)*%
X113555000Y-108900000D03*
D12*
%TO.P,J3,5,Pin_5*%
%TO.N,SAO4_TX*%
X116095000Y-106360000D03*
%TO.P,J3,6,Pin_6*%
%TO.N,SAO4_RX*%
X116095000Y-108900000D03*
%TD*%
D10*
%TO.P,J4,1,Pin_1*%
%TO.N,+3V3*%
X94765000Y-44085000D03*
D11*
%TO.P,J4,2,Pin_2*%
%TO.N,GND*%
X94765000Y-46625000D03*
D10*
%TO.P,J4,3,Pin_3*%
%TO.N,unconnected-(J4-Pin_3-Pad3)*%
X97305000Y-44085000D03*
%TO.P,J4,4,Pin_4*%
%TO.N,unconnected-(J4-Pin_4-Pad4)*%
X97305000Y-46625000D03*
D12*
%TO.P,J4,5,Pin_5*%
%TO.N,SAO2_TX*%
X99845000Y-44085000D03*
%TO.P,J4,6,Pin_6*%
%TO.N,SAO2_RX*%
X99845000Y-46625000D03*
%TD*%
D13*
%TO.P,C3,1*%
%TO.N,GND*%
X105050000Y-49200000D03*
%TO.P,C3,2*%
%TO.N,+3V3*%
X105050000Y-47300000D03*
%TD*%
D14*
%TO.P,R40,1*%
%TO.N,LED_LINE_7*%
X92112500Y-100525000D03*
%TO.P,R40,2*%
%TO.N,Net-(D34-K)*%
X93937500Y-100525000D03*
%TD*%
D13*
%TO.P,C17,1*%
%TO.N,RP1_XTAL_OUT*%
X212862500Y-71675000D03*
%TO.P,C17,2*%
%TO.N,GND*%
X212862500Y-69775000D03*
%TD*%
D15*
%TO.P,U1,1,D*%
%TO.N,SAO2_TX*%
X107990000Y-44875000D03*
%TO.P,U1,2,GND*%
%TO.N,GND*%
X106720000Y-44875000D03*
%TO.P,U1,3,VCC*%
%TO.N,+3V3*%
X105450000Y-44875000D03*
%TO.P,U1,4,R*%
%TO.N,SAO2_RX*%
X104180000Y-44875000D03*
%TO.P,U1,5,Vref*%
%TO.N,unconnected-(U1-Vref-Pad5)*%
X104180000Y-39925000D03*
%TO.P,U1,6,CANL*%
%TO.N,Net-(J6-Pin_2)*%
X105450000Y-39925000D03*
%TO.P,U1,7,CANH*%
%TO.N,Net-(J6-Pin_3)*%
X106720000Y-39925000D03*
%TO.P,U1,8,Rs*%
%TO.N,Net-(D4-A)*%
X107990000Y-39925000D03*
%TD*%
D16*
%TO.P,R37,1*%
%TO.N,LED_LINE_8*%
X126525000Y-93162500D03*
%TO.P,R37,2*%
%TO.N,Net-(D32-K)*%
X126525000Y-94987500D03*
%TD*%
D17*
%TO.P,S2,1,A*%
%TO.N,RUN*%
X218000000Y-67740000D03*
X218000000Y-73500000D03*
%TO.P,S2,2,B*%
%TO.N,GND*%
X222000000Y-67740000D03*
X222000000Y-73500000D03*
%TD*%
D14*
%TO.P,R60,1*%
%TO.N,Net-(D22-K)*%
X224087500Y-93550000D03*
%TO.P,R60,2*%
%TO.N,GND*%
X225912500Y-93550000D03*
%TD*%
D18*
%TO.P,R17,1*%
%TO.N,LED_LINE_8*%
X192037500Y-35775000D03*
%TO.P,R17,2*%
%TO.N,Net-(D28-K)*%
X190212500Y-35775000D03*
%TD*%
D19*
%TO.P,R22,1*%
%TO.N,LED_LINE_11*%
X76475000Y-52512500D03*
%TO.P,R22,2*%
%TO.N,Net-(D37-K)*%
X76475000Y-50687500D03*
%TD*%
D20*
%TO.P,C29,1*%
%TO.N,+3V3*%
X79425000Y-104100000D03*
%TO.P,C29,2*%
%TO.N,GND*%
X81325000Y-104100000D03*
%TD*%
D21*
%TO.P,C12,1*%
%TO.N,+3V3*%
X193325000Y-74900000D03*
%TO.P,C12,2*%
%TO.N,GND*%
X191425000Y-74900000D03*
%TD*%
D22*
%TO.P,D16,1,K*%
%TO.N,Net-(D16-K)*%
X185600000Y-50375000D03*
%TO.P,D16,2,A*%
%TO.N,Net-(D16-A)*%
X188400000Y-50375000D03*
%TD*%
D19*
%TO.P,R53,1*%
%TO.N,LED_LINE_1*%
X230450000Y-93937500D03*
%TO.P,R53,2*%
%TO.N,Net-(D20-K)*%
X230450000Y-92112500D03*
%TD*%
D20*
%TO.P,C27,1*%
%TO.N,Common_Power*%
X79425000Y-97925000D03*
%TO.P,C27,2*%
%TO.N,GND*%
X81325000Y-97925000D03*
%TD*%
D14*
%TO.P,R14,1*%
%TO.N,USB_POWER*%
X86312500Y-87650000D03*
%TO.P,R14,2*%
%TO.N,GND*%
X88137500Y-87650000D03*
%TD*%
D16*
%TO.P,R51,1*%
%TO.N,LED_LINE_3*%
X198775000Y-100212500D03*
%TO.P,R51,2*%
%TO.N,Net-(D17-K)*%
X198775000Y-102037500D03*
%TD*%
D19*
%TO.P,R58,1*%
%TO.N,LED_LINE_3*%
X221575000Y-47012500D03*
%TO.P,R58,2*%
%TO.N,Net-(D26-K)*%
X221575000Y-45187500D03*
%TD*%
D18*
%TO.P,R42,1*%
%TO.N,LED_LINE_10*%
X103412500Y-33350000D03*
%TO.P,R42,2*%
%TO.N,Net-(D39-K)*%
X101587500Y-33350000D03*
%TD*%
%TO.P,R34,1*%
%TO.N,LED_LINE_8*%
X165262500Y-50350000D03*
%TO.P,R34,2*%
%TO.N,Net-(D30-K)*%
X163437500Y-50350000D03*
%TD*%
D17*
%TO.P,S3,1,A*%
%TO.N,~{RP1_USB_BOOT}*%
X188500000Y-72380000D03*
X188500000Y-66620000D03*
%TO.P,S3,2,B*%
%TO.N,GND*%
X184500000Y-72380000D03*
X184500000Y-66620000D03*
%TD*%
D19*
%TO.P,R3,1*%
%TO.N,Net-(J8-CC1)*%
X133675000Y-90187500D03*
%TO.P,R3,2*%
%TO.N,GND*%
X133675000Y-88362500D03*
%TD*%
D16*
%TO.P,R10,1*%
%TO.N,+3V3*%
X196362500Y-62987500D03*
%TO.P,R10,2*%
%TO.N,RP1_QSPI_CS*%
X196362500Y-64812500D03*
%TD*%
D22*
%TO.P,D2,1,K*%
%TO.N,Net-(D2-K)*%
X209825000Y-90600000D03*
%TO.P,D2,2,A*%
%TO.N,Net-(D2-A)*%
X212625000Y-90600000D03*
%TD*%
D16*
%TO.P,R54,1*%
%TO.N,LED_LINE_2*%
X235425000Y-80862500D03*
%TO.P,R54,2*%
%TO.N,Net-(D23-K)*%
X235425000Y-82687500D03*
%TD*%
%TO.P,R45,1*%
%TO.N,LED_LINE_10*%
X133725000Y-46787500D03*
%TO.P,R45,2*%
%TO.N,Net-(D41-K)*%
X133725000Y-48612500D03*
%TD*%
D23*
%TO.P,C7,1*%
%TO.N,+3V3*%
X200312500Y-80800000D03*
%TO.P,C7,2*%
%TO.N,GND*%
X200312500Y-82700000D03*
%TD*%
D13*
%TO.P,C11,1*%
%TO.N,+3V3*%
X198737500Y-68925000D03*
%TO.P,C11,2*%
%TO.N,GND*%
X198737500Y-67025000D03*
%TD*%
D24*
%TO.P,S1,1,1*%
%TO.N,unconnected-(S1-Pad1)*%
X191459020Y-110869730D03*
%TO.P,S1,2,2*%
%TO.N,Net-(D2-A)*%
X192931460Y-111155944D03*
%TO.P,S1,3,3*%
%TO.N,+3V3*%
X195876342Y-111728371D03*
D25*
%TO.P,S1,MP1,MP1*%
%TO.N,unconnected-(S1-PadMP1)*%
X189758137Y-111496706D03*
%TO.P,S1,MP2,MP2*%
%TO.N,unconnected-(S1-PadMP2)*%
X189325000Y-113725000D03*
%TO.P,S1,MP3,MP3*%
%TO.N,unconnected-(S1-PadMP3)*%
X197218504Y-112946854D03*
%TO.P,S1,MP4,MP4*%
%TO.N,unconnected-(S1-PadMP4)*%
X196785367Y-115175148D03*
%TD*%
D23*
%TO.P,C15,1*%
%TO.N,GND*%
X191462500Y-65375000D03*
%TO.P,C15,2*%
%TO.N,+3V3*%
X191462500Y-67275000D03*
%TD*%
%TO.P,C8,1*%
%TO.N,+3V3*%
X202387500Y-80800000D03*
%TO.P,C8,2*%
%TO.N,GND*%
X202387500Y-82700000D03*
%TD*%
D14*
%TO.P,R36,1*%
%TO.N,LED_LINE_6*%
X129475000Y-87925000D03*
%TO.P,R36,2*%
%TO.N,Net-(D31-K)*%
X131300000Y-87925000D03*
%TD*%
D16*
%TO.P,R9,1*%
%TO.N,~{RP1_USB_BOOT}*%
X193900000Y-63162500D03*
%TO.P,R9,2*%
%TO.N,RP1_QSPI_CS*%
X193900000Y-64987500D03*
%TD*%
D26*
%TO.P,U4,1,D*%
%TO.N,SAO3_TX*%
X199990000Y-41550000D03*
%TO.P,U4,2,GND*%
%TO.N,GND*%
X201260000Y-41550000D03*
%TO.P,U4,3,VCC*%
%TO.N,+3V3*%
X202530000Y-41550000D03*
%TO.P,U4,4,R*%
%TO.N,SAO3_RX*%
X203800000Y-41550000D03*
%TO.P,U4,5,Vref*%
%TO.N,unconnected-(U4-Vref-Pad5)*%
X203800000Y-46500000D03*
%TO.P,U4,6,CANL*%
%TO.N,Net-(J6-Pin_2)*%
X202530000Y-46500000D03*
%TO.P,U4,7,CANH*%
%TO.N,Net-(J6-Pin_3)*%
X201260000Y-46500000D03*
%TO.P,U4,8,Rs*%
%TO.N,Net-(D16-A)*%
X199990000Y-46500000D03*
%TD*%
D16*
%TO.P,R12,1*%
%TO.N,Net-(D4-A)*%
X117400000Y-42687500D03*
%TO.P,R12,2*%
%TO.N,GND*%
X117400000Y-44512500D03*
%TD*%
D27*
%TO.P,D22,1,K*%
%TO.N,Net-(D22-K)*%
X221500000Y-93575000D03*
%TO.P,D22,2,A*%
%TO.N,Net-(D22-A)*%
X218700000Y-93575000D03*
%TD*%
D19*
%TO.P,R48,1*%
%TO.N,LED_LINE_3*%
X166000000Y-90787500D03*
%TO.P,R48,2*%
%TO.N,Net-(D5-K)*%
X166000000Y-88962500D03*
%TD*%
D18*
%TO.P,R33,1*%
%TO.N,LED_LINE_7*%
X176400000Y-50325000D03*
%TO.P,R33,2*%
%TO.N,Net-(D29-K)*%
X174575000Y-50325000D03*
%TD*%
D14*
%TO.P,R35,1*%
%TO.N,LED_LINE_5*%
X138437500Y-88025000D03*
%TO.P,R35,2*%
%TO.N,Net-(D9-K)*%
X140262500Y-88025000D03*
%TD*%
D18*
%TO.P,R49,1*%
%TO.N,LED_LINE_4*%
X180875000Y-93200000D03*
%TO.P,R49,2*%
%TO.N,Net-(D14-K)*%
X179050000Y-93200000D03*
%TD*%
D28*
%TO.P,J6,1,Pin_1*%
%TO.N,GND*%
X162733494Y-95434639D03*
D29*
%TO.P,J6,2,Pin_2*%
%TO.N,Net-(J6-Pin_2)*%
X164679247Y-97067320D03*
%TO.P,J6,3,Pin_3*%
%TO.N,Net-(J6-Pin_3)*%
X166625000Y-98700000D03*
%TD*%
D30*
%TO.P,S8,1,1*%
%TO.N,Net-(J6-Pin_3)*%
X173565515Y-102424141D03*
%TO.P,S8,2,2*%
%TO.N,Net-(R28-Pad2)*%
X174837587Y-103219020D03*
%TO.P,S8,3,3*%
%TO.N,unconnected-(S8-Pad3)*%
X177381733Y-104808778D03*
D31*
%TO.P,S8,MP1,MP1*%
%TO.N,unconnected-(S8-PadMP1)*%
X171752917Y-102399931D03*
%TO.P,S8,MP2,MP2*%
%TO.N,unconnected-(S8-PadMP2)*%
X170550000Y-104325000D03*
%TO.P,S8,MP3,MP3*%
%TO.N,unconnected-(S8-PadMP3)*%
X178198082Y-106427318D03*
%TO.P,S8,MP4,MP4*%
%TO.N,unconnected-(S8-PadMP4)*%
X176995165Y-108352387D03*
%TD*%
D32*
%TO.P,J2,1,Pin_1*%
%TO.N,RP1_SWCLK*%
X209900000Y-79475000D03*
%TO.P,J2,2,Pin_2*%
%TO.N,RP1_SWD*%
X209900000Y-80775000D03*
%TD*%
D33*
%TO.P,S5,1,1*%
%TO.N,unconnected-(S5-Pad1)*%
X125962019Y-36122003D03*
%TO.P,S5,2,2*%
%TO.N,Net-(D4-A)*%
X124662981Y-35372003D03*
%TO.P,S5,3,3*%
%TO.N,+3V3*%
X122064905Y-33872003D03*
D34*
%TO.P,S5,MP1,MP1*%
%TO.N,unconnected-(S5-PadMP1)*%
X127774359Y-36082939D03*
%TO.P,S5,MP2,MP2*%
%TO.N,unconnected-(S5-PadMP2)*%
X128909359Y-34117061D03*
%TO.P,S5,MP3,MP3*%
%TO.N,unconnected-(S5-PadMP3)*%
X121192565Y-32282939D03*
%TO.P,S5,MP4,MP4*%
%TO.N,unconnected-(S5-PadMP4)*%
X122327565Y-30317061D03*
%TD*%
D16*
%TO.P,R21,1*%
%TO.N,LED_LINE_9*%
X71975000Y-59012500D03*
%TO.P,R21,2*%
%TO.N,Net-(D11-K)*%
X71975000Y-60837500D03*
%TD*%
D22*
%TO.P,D18,1,K*%
%TO.N,Net-(D18-K)*%
X112750000Y-93500000D03*
%TO.P,D18,2,A*%
%TO.N,Net-(D18-A)*%
X115550000Y-93500000D03*
%TD*%
D21*
%TO.P,C2,1*%
%TO.N,GND*%
X210112500Y-77250000D03*
%TO.P,C2,2*%
%TO.N,RP1_v1*%
X208212500Y-77250000D03*
%TD*%
D20*
%TO.P,C1,1*%
%TO.N,GND*%
X192287500Y-72925000D03*
%TO.P,C1,2*%
%TO.N,RP1_v1*%
X194187500Y-72925000D03*
%TD*%
D14*
%TO.P,R5,1*%
%TO.N,Net-(J8-D--PadA7)*%
X142112500Y-90650000D03*
%TO.P,R5,2*%
%TO.N,RP1_USB_D-*%
X143937500Y-90650000D03*
%TD*%
D19*
%TO.P,R4,1*%
%TO.N,Net-(J8-CC2)*%
X130900000Y-91750000D03*
%TO.P,R4,2*%
%TO.N,GND*%
X130900000Y-89925000D03*
%TD*%
D18*
%TO.P,R16,1*%
%TO.N,LED_LINE_7*%
X202712500Y-33500000D03*
%TO.P,R16,2*%
%TO.N,Net-(D27-K)*%
X200887500Y-33500000D03*
%TD*%
%TO.P,R23,1*%
%TO.N,LED_LINE_12*%
X84387500Y-44475000D03*
%TO.P,R23,2*%
%TO.N,Net-(D38-K)*%
X82562500Y-44475000D03*
%TD*%
%TO.P,R44,1*%
%TO.N,LED_LINE_9*%
X123525000Y-47025000D03*
%TO.P,R44,2*%
%TO.N,Net-(D13-K)*%
X121700000Y-47025000D03*
%TD*%
%TO.P,R32,1*%
%TO.N,LED_LINE_5*%
X182137500Y-40225000D03*
%TO.P,R32,2*%
%TO.N,Net-(D8-K)*%
X180312500Y-40225000D03*
%TD*%
D35*
%TO.P,BT1,1,+*%
%TO.N,Net-(BT1-+)*%
X123835000Y-77345000D03*
D36*
%TO.P,BT1,2,-*%
%TO.N,GND*%
X123835000Y-62355000D03*
%TD*%
D14*
%TO.P,R59,1*%
%TO.N,Net-(D22-A)*%
X221162500Y-97225000D03*
%TO.P,R59,2*%
%TO.N,GND*%
X222987500Y-97225000D03*
%TD*%
D19*
%TO.P,R24,1*%
%TO.N,Net-(D16-A)*%
X186075000Y-48137500D03*
%TO.P,R24,2*%
%TO.N,GND*%
X186075000Y-46312500D03*
%TD*%
D37*
%TO.P,IC1,1,~{CS}*%
%TO.N,RP1_QSPI_CS*%
X194951839Y-67114339D03*
%TO.P,IC1,2,DO(IO1)*%
%TO.N,RP1_QSPI_SD1*%
X195305393Y-67467893D03*
%TO.P,IC1,3,IO2*%
%TO.N,RP1_QSPI_SD2*%
X195658946Y-67821446D03*
%TO.P,IC1,4,GND*%
%TO.N,GND*%
X196012500Y-68175000D03*
%TO.P,IC1,5,DI(IO0)*%
%TO.N,RP1_QSPI_SD0*%
X194032601Y-70154899D03*
%TO.P,IC1,6,CLK*%
%TO.N,RP1_QSPI_SCLK*%
X193679047Y-69801345D03*
%TO.P,IC1,7,IO3*%
%TO.N,RP1_QSPI_SD3*%
X193325494Y-69447792D03*
%TO.P,IC1,8,VCC*%
%TO.N,+3V3*%
X192971940Y-69094238D03*
D38*
%TO.P,IC1,9,EP*%
%TO.N,GND*%
X194492220Y-68634619D03*
%TD*%
D16*
%TO.P,R20,1*%
%TO.N,LED_LINE_12*%
X70700000Y-69912500D03*
%TO.P,R20,2*%
%TO.N,Net-(D36-K)*%
X70700000Y-71737500D03*
%TD*%
D20*
%TO.P,C30,1*%
%TO.N,+3V3*%
X79425000Y-106225000D03*
%TO.P,C30,2*%
%TO.N,GND*%
X81325000Y-106225000D03*
%TD*%
D19*
%TO.P,R43,1*%
%TO.N,LED_LINE_12*%
X113525000Y-44175000D03*
%TO.P,R43,2*%
%TO.N,Net-(D40-K)*%
X113525000Y-42350000D03*
%TD*%
D39*
%TO.P,J8,A1,GND*%
%TO.N,GND*%
X135787066Y-91838814D03*
%TO.P,J8,A4,VBUS*%
%TO.N,USB_POWER*%
X135165350Y-92342271D03*
D40*
%TO.P,J8,A5,CC1*%
%TO.N,Net-(J8-CC1)*%
X134232774Y-93097455D03*
%TO.P,J8,A6,D+*%
%TO.N,Net-(J8-D+-PadA6)*%
X133455629Y-93726775D03*
%TO.P,J8,A7,D-*%
%TO.N,Net-(J8-D--PadA7)*%
X133067056Y-94041436D03*
%TO.P,J8,A8,SBU1*%
%TO.N,unconnected-(J8-SBU1-PadA8)*%
X132289910Y-94670756D03*
D39*
%TO.P,J8,A9,VBUS*%
%TO.N,USB_POWER*%
X131357334Y-95425941D03*
%TO.P,J8,A12,GND*%
%TO.N,GND*%
X130735618Y-95929397D03*
%TO.P,J8,B1,GND*%
X130735618Y-95929397D03*
%TO.P,J8,B4,VBUS*%
%TO.N,USB_POWER*%
X131357334Y-95425941D03*
D40*
%TO.P,J8,B5,CC2*%
%TO.N,Net-(J8-CC2)*%
X131901337Y-94985416D03*
%TO.P,J8,B6,D+*%
%TO.N,Net-(J8-D+-PadA6)*%
X132678483Y-94356096D03*
%TO.P,J8,B7,D-*%
%TO.N,Net-(J8-D--PadA7)*%
X133844201Y-93412115D03*
%TO.P,J8,B8,SBU2*%
%TO.N,unconnected-(J8-SBU2-PadB8)*%
X134621347Y-92782795D03*
D39*
%TO.P,J8,B9,VBUS*%
%TO.N,USB_POWER*%
X135165350Y-92342271D03*
%TO.P,J8,B12,GND*%
%TO.N,GND*%
X135787066Y-91838814D03*
D41*
%TO.P,J8,S1,SHIELD*%
X139825000Y-95125000D03*
D42*
X137194441Y-91876530D03*
D41*
X133110459Y-100562328D03*
D42*
X130479900Y-97313858D03*
%TD*%
D15*
%TO.P,U6,1,D*%
%TO.N,SAO4_TX*%
X115545000Y-102325000D03*
%TO.P,U6,2,GND*%
%TO.N,GND*%
X114275000Y-102325000D03*
%TO.P,U6,3,VCC*%
%TO.N,+3V3*%
X113005000Y-102325000D03*
%TO.P,U6,4,R*%
%TO.N,SAO4_RX*%
X111735000Y-102325000D03*
%TO.P,U6,5,Vref*%
%TO.N,unconnected-(U6-Vref-Pad5)*%
X111735000Y-97375000D03*
%TO.P,U6,6,CANL*%
%TO.N,Net-(J6-Pin_2)*%
X113005000Y-97375000D03*
%TO.P,U6,7,CANH*%
%TO.N,Net-(J6-Pin_3)*%
X114275000Y-97375000D03*
%TO.P,U6,8,Rs*%
%TO.N,Net-(D18-A)*%
X115545000Y-97375000D03*
%TD*%
D18*
%TO.P,R7,1*%
%TO.N,Net-(D2-A)*%
X212637500Y-93475000D03*
%TO.P,R7,2*%
%TO.N,GND*%
X210812500Y-93475000D03*
%TD*%
%TO.P,R27,1*%
%TO.N,Net-(D18-K)*%
X110012500Y-93500000D03*
%TO.P,R27,2*%
%TO.N,GND*%
X108187500Y-93500000D03*
%TD*%
D21*
%TO.P,C19,1*%
%TO.N,GND*%
X204445000Y-38450000D03*
%TO.P,C19,2*%
%TO.N,+3V3*%
X202545000Y-38450000D03*
%TD*%
D43*
%TO.P,S9,1,1*%
%TO.N,unconnected-(S9-Pad1)*%
X227343549Y-104170911D03*
%TO.P,S9,2,2*%
%TO.N,Net-(D22-A)*%
X228492615Y-103206729D03*
%TO.P,S9,3,3*%
%TO.N,+3V3*%
X230790749Y-101278367D03*
D44*
%TO.P,S9,MP1,MP1*%
%TO.N,unconnected-(S9-PadMP1)*%
X226760400Y-105887313D03*
%TO.P,S9,MP2,MP2*%
%TO.N,unconnected-(S9-PadMP2)*%
X228219528Y-107626234D03*
%TO.P,S9,MP3,MP3*%
%TO.N,unconnected-(S9-PadMP3)*%
X232582338Y-101002128D03*
%TO.P,S9,MP4,MP4*%
%TO.N,unconnected-(S9-PadMP4)*%
X234041466Y-102741049D03*
%TD*%
D45*
%TO.P,S6,1,1*%
%TO.N,unconnected-(S6-Pad1)*%
X179500000Y-34000000D03*
%TO.P,S6,2,2*%
%TO.N,Net-(D16-A)*%
X178200962Y-34750000D03*
%TO.P,S6,3,3*%
%TO.N,+3V3*%
X175602886Y-36250000D03*
D46*
%TO.P,S6,MP1,MP1*%
%TO.N,unconnected-(S6-PadMP1)*%
X180372340Y-32410936D03*
%TO.P,S6,MP2,MP2*%
%TO.N,unconnected-(S6-PadMP2)*%
X179237340Y-30445058D03*
%TO.P,S6,MP3,MP3*%
%TO.N,unconnected-(S6-PadMP3)*%
X173790546Y-36210936D03*
%TO.P,S6,MP4,MP4*%
%TO.N,unconnected-(S6-PadMP4)*%
X172655546Y-34245058D03*
%TD*%
D16*
%TO.P,R18,1*%
%TO.N,LED_LINE_10*%
X72625000Y-92950000D03*
%TO.P,R18,2*%
%TO.N,Net-(D10-K)*%
X72625000Y-94775000D03*
%TD*%
D19*
%TO.P,R57,1*%
%TO.N,LED_LINE_2*%
X229925000Y-55175000D03*
%TO.P,R57,2*%
%TO.N,Net-(D25-K)*%
X229925000Y-53350000D03*
%TD*%
D18*
%TO.P,R25,1*%
%TO.N,Net-(D16-K)*%
X182662500Y-50375000D03*
%TO.P,R25,2*%
%TO.N,GND*%
X180837500Y-50375000D03*
%TD*%
D47*
%TO.P,S7,1,1*%
%TO.N,unconnected-(S7-Pad1)*%
X121725000Y-106225000D03*
%TO.P,S7,2,2*%
%TO.N,Net-(D18-A)*%
X123024038Y-105475000D03*
%TO.P,S7,3,3*%
%TO.N,+3V3*%
X125622114Y-103975000D03*
D48*
%TO.P,S7,MP1,MP1*%
%TO.N,unconnected-(S7-PadMP1)*%
X120852660Y-107814064D03*
%TO.P,S7,MP2,MP2*%
%TO.N,unconnected-(S7-PadMP2)*%
X121987660Y-109779942D03*
%TO.P,S7,MP3,MP3*%
%TO.N,unconnected-(S7-PadMP3)*%
X127434454Y-104014064D03*
%TO.P,S7,MP4,MP4*%
%TO.N,unconnected-(S7-PadMP4)*%
X128569454Y-105979942D03*
%TD*%
D49*
%TO.P,U5,1,VOUT*%
%TO.N,+3V3*%
X80112500Y-102002654D03*
%TO.P,U5,2,L2*%
%TO.N,Net-(U5-L2)*%
X80112500Y-101502654D03*
%TO.P,U5,3,PGND*%
%TO.N,GND*%
X80112500Y-101002654D03*
%TO.P,U5,4,L1*%
%TO.N,Net-(U5-L1)*%
X80112500Y-100502654D03*
%TO.P,U5,5,VIN*%
%TO.N,Common_Power*%
X80112500Y-100002654D03*
%TO.P,U5,6,EN*%
%TO.N,Net-(U5-EN)*%
X82537500Y-100002654D03*
%TO.P,U5,7,PS/SYNC*%
X82537500Y-100502654D03*
%TO.P,U5,8,VINA*%
X82537500Y-101002654D03*
%TO.P,U5,9,GND*%
%TO.N,GND*%
X82537500Y-101502654D03*
%TO.P,U5,10,FB*%
%TO.N,+3V3*%
X82537500Y-102002654D03*
D50*
%TO.P,U5,11,PGND*%
%TO.N,GND*%
X81325000Y-101002654D03*
%TD*%
D20*
%TO.P,C5,1*%
%TO.N,GND*%
X193962500Y-80000000D03*
%TO.P,C5,2*%
%TO.N,+3V3*%
X195862500Y-80000000D03*
%TD*%
D13*
%TO.P,C10,1*%
%TO.N,+3V3*%
X202450000Y-68925000D03*
%TO.P,C10,2*%
%TO.N,GND*%
X202450000Y-67025000D03*
%TD*%
D16*
%TO.P,R19,1*%
%TO.N,LED_LINE_11*%
X66350000Y-81812500D03*
%TO.P,R19,2*%
%TO.N,Net-(D35-K)*%
X66350000Y-83637500D03*
%TD*%
D51*
%TO.P,U8,1,D*%
%TO.N,RP1_CAN_TX*%
X213350000Y-87840000D03*
%TO.P,U8,2,GND*%
%TO.N,GND*%
X213350000Y-86570000D03*
%TO.P,U8,3,VCC*%
%TO.N,+3V3*%
X213350000Y-85300000D03*
%TO.P,U8,4,R*%
%TO.N,RP1_CAN_RX*%
X213350000Y-84030000D03*
%TO.P,U8,5,Vref*%
%TO.N,unconnected-(U8-Vref-Pad5)*%
X218300000Y-84030000D03*
%TO.P,U8,6,CANL*%
%TO.N,Net-(J6-Pin_2)*%
X218300000Y-85300000D03*
%TO.P,U8,7,CANH*%
%TO.N,Net-(J6-Pin_3)*%
X218300000Y-86570000D03*
%TO.P,U8,8,Rs*%
%TO.N,Net-(D2-A)*%
X218300000Y-87840000D03*
%TD*%
D19*
%TO.P,R56,1*%
%TO.N,LED_LINE_1*%
X237300000Y-62550000D03*
%TO.P,R56,2*%
%TO.N,Net-(D21-K)*%
X237300000Y-60725000D03*
%TD*%
D16*
%TO.P,R52,1*%
%TO.N,LED_LINE_4*%
X212850000Y-96112500D03*
%TO.P,R52,2*%
%TO.N,Net-(D19-K)*%
X212850000Y-97937500D03*
%TD*%
D20*
%TO.P,C16,1*%
%TO.N,RP1_XTAL_IN*%
X209087500Y-67975000D03*
%TO.P,C16,2*%
%TO.N,GND*%
X210987500Y-67975000D03*
%TD*%
D18*
%TO.P,R41,1*%
%TO.N,LED_LINE_9*%
X92250000Y-34300000D03*
%TO.P,R41,2*%
%TO.N,Net-(D12-K)*%
X90425000Y-34300000D03*
%TD*%
D20*
%TO.P,C4,1*%
%TO.N,GND*%
X193962500Y-77950000D03*
%TO.P,C4,2*%
%TO.N,RP1_v1*%
X195862500Y-77950000D03*
%TD*%
D23*
%TO.P,C13,1*%
%TO.N,+3V3*%
X198062500Y-80800000D03*
%TO.P,C13,2*%
%TO.N,GND*%
X198062500Y-82700000D03*
%TD*%
D19*
%TO.P,R47,1*%
%TO.N,LED_LINE_2*%
X161600000Y-90012500D03*
%TO.P,R47,2*%
%TO.N,Net-(D3-K)*%
X161600000Y-88187500D03*
%TD*%
%TO.P,R1,1*%
%TO.N,Net-(J6-Pin_2)*%
X89275000Y-43725000D03*
%TO.P,R1,2*%
%TO.N,Net-(J6-Pin_3)*%
X89275000Y-41900000D03*
%TD*%
D20*
%TO.P,C9,1*%
%TO.N,+3V3*%
X208212500Y-75225000D03*
%TO.P,C9,2*%
%TO.N,GND*%
X210112500Y-75225000D03*
%TD*%
D52*
%TO.P,SW1,*%
%TO.N,*%
X118110000Y-82550000D03*
X118110000Y-90750000D03*
D53*
%TO.P,SW1,1,A*%
%TO.N,Net-(BT1-+)*%
X118110000Y-84650000D03*
D54*
%TO.P,SW1,2,B*%
%TO.N,Net-(Q1-D)*%
X118110000Y-86650000D03*
%TO.P,SW1,3,C*%
%TO.N,unconnected-(SW1-C-Pad3)*%
X118110000Y-88650000D03*
%TD*%
D14*
%TO.P,R39,1*%
%TO.N,LED_LINE_6*%
X101887500Y-101175000D03*
%TO.P,R39,2*%
%TO.N,Net-(D33-K)*%
X103712500Y-101175000D03*
%TD*%
D19*
%TO.P,R15,1*%
%TO.N,LED_LINE_6*%
X212725000Y-42375000D03*
%TO.P,R15,2*%
%TO.N,Net-(D7-K)*%
X212725000Y-40550000D03*
%TD*%
D14*
%TO.P,R26,1*%
%TO.N,Net-(D18-A)*%
X117850000Y-97375000D03*
%TO.P,R26,2*%
%TO.N,GND*%
X119675000Y-97375000D03*
%TD*%
D55*
%TO.P,Q1,1,D*%
%TO.N,Net-(Q1-D)*%
X83575000Y-85725000D03*
%TO.P,Q1,2,G*%
%TO.N,USB_POWER*%
X83575000Y-87625000D03*
%TO.P,Q1,3,S*%
%TO.N,Common_Power*%
X81700000Y-86675000D03*
%TD*%
D56*
%TO.P,D1,1,K*%
%TO.N,Common_Power*%
X81700000Y-90350000D03*
%TO.P,D1,2,A*%
%TO.N,USB_POWER*%
X85000000Y-90350000D03*
%TD*%
D15*
%TO.P,U7,1,D*%
%TO.N,SAO1_TX*%
X218695000Y-102175000D03*
%TO.P,U7,2,GND*%
%TO.N,GND*%
X217425000Y-102175000D03*
%TO.P,U7,3,VCC*%
%TO.N,+3V3*%
X216155000Y-102175000D03*
%TO.P,U7,4,R*%
%TO.N,SAO1_RX*%
X214885000Y-102175000D03*
%TO.P,U7,5,Vref*%
%TO.N,unconnected-(U7-Vref-Pad5)*%
X214885000Y-97225000D03*
%TO.P,U7,6,CANL*%
%TO.N,Net-(J6-Pin_2)*%
X216155000Y-97225000D03*
%TO.P,U7,7,CANH*%
%TO.N,Net-(J6-Pin_3)*%
X217425000Y-97225000D03*
%TO.P,U7,8,Rs*%
%TO.N,Net-(D22-A)*%
X218695000Y-97225000D03*
%TD*%
D20*
%TO.P,C21,1*%
%TO.N,GND*%
X107600000Y-100975000D03*
%TO.P,C21,2*%
%TO.N,+3V3*%
X109500000Y-100975000D03*
%TD*%
D16*
%TO.P,R38,1*%
%TO.N,LED_LINE_5*%
X119325000Y-93612500D03*
%TO.P,R38,2*%
%TO.N,Net-(D6-K)*%
X119325000Y-95437500D03*
%TD*%
D14*
%TO.P,R46,1*%
%TO.N,LED_LINE_11*%
X136562500Y-49325000D03*
%TO.P,R46,2*%
%TO.N,Net-(D42-K)*%
X138387500Y-49325000D03*
%TD*%
D18*
%TO.P,R13,1*%
%TO.N,Net-(D4-K)*%
X113612500Y-33850000D03*
%TO.P,R13,2*%
%TO.N,GND*%
X111787500Y-33850000D03*
%TD*%
D20*
%TO.P,C6,1*%
%TO.N,GND*%
X214425000Y-82025000D03*
%TO.P,C6,2*%
%TO.N,+3V3*%
X216325000Y-82025000D03*
%TD*%
D19*
%TO.P,R2,1*%
%TO.N,+3V3*%
X216325000Y-79887500D03*
%TO.P,R2,2*%
%TO.N,RUN*%
X216325000Y-78062500D03*
%TD*%
D14*
%TO.P,R6,1*%
%TO.N,Net-(J8-D+-PadA6)*%
X142112500Y-88425000D03*
%TO.P,R6,2*%
%TO.N,RP1_USB_D+*%
X143937500Y-88425000D03*
%TD*%
D23*
%TO.P,C28,1*%
%TO.N,Net-(U5-EN)*%
X84875000Y-100300000D03*
%TO.P,C28,2*%
%TO.N,GND*%
X84875000Y-102200000D03*
%TD*%
D57*
%TO.P,U2,1,IOVDD*%
%TO.N,+3V3*%
X198775000Y-71612500D03*
%TO.P,U2,2,GPIO0*%
%TO.N,unconnected-(U2-GPIO0-Pad2)*%
X199175000Y-71612500D03*
%TO.P,U2,3,GPIO1*%
%TO.N,unconnected-(U2-GPIO1-Pad3)*%
X199575000Y-71612500D03*
%TO.P,U2,4,GPIO2*%
%TO.N,LED_LINE_4*%
X199975000Y-71612500D03*
%TO.P,U2,5,GPIO3*%
%TO.N,LED_LINE_3*%
X200375000Y-71612500D03*
%TO.P,U2,6,GPIO4*%
%TO.N,LED_LINE_2*%
X200775000Y-71612500D03*
%TO.P,U2,7,GPIO5*%
%TO.N,LED_LINE_1*%
X201175000Y-71612500D03*
%TO.P,U2,8,GPIO6*%
%TO.N,unconnected-(U2-GPIO6-Pad8)*%
X201575000Y-71612500D03*
%TO.P,U2,9,GPIO7*%
%TO.N,unconnected-(U2-GPIO7-Pad9)*%
X201975000Y-71612500D03*
%TO.P,U2,10,IOVDD*%
%TO.N,+3V3*%
X202375000Y-71612500D03*
%TO.P,U2,11,GPIO8*%
%TO.N,LED_LINE_8*%
X202775000Y-71612500D03*
%TO.P,U2,12,GPIO9*%
%TO.N,LED_LINE_7*%
X203175000Y-71612500D03*
%TO.P,U2,13,GPIO10*%
%TO.N,LED_LINE_6*%
X203575000Y-71612500D03*
%TO.P,U2,14,GPIO11*%
%TO.N,LED_LINE_5*%
X203975000Y-71612500D03*
D58*
%TO.P,U2,15,GPIO12*%
%TO.N,LED_LINE_12*%
X204812500Y-72450000D03*
%TO.P,U2,16,GPIO13*%
%TO.N,LED_LINE_11*%
X204812500Y-72850000D03*
%TO.P,U2,17,GPIO14*%
%TO.N,LED_LINE_10*%
X204812500Y-73250000D03*
%TO.P,U2,18,GPIO15*%
%TO.N,LED_LINE_9*%
X204812500Y-73650000D03*
%TO.P,U2,19,TESTEN*%
%TO.N,GND*%
X204812500Y-74050000D03*
%TO.P,U2,20,XIN*%
%TO.N,RP1_XTAL_IN*%
X204812500Y-74450000D03*
%TO.P,U2,21,XOUT*%
%TO.N,RP1_XTAL_OUT*%
X204812500Y-74850000D03*
%TO.P,U2,22,IOVDD*%
%TO.N,+3V3*%
X204812500Y-75250000D03*
%TO.P,U2,23,DVDD*%
%TO.N,RP1_v1*%
X204812500Y-75650000D03*
%TO.P,U2,24,SWCLK*%
%TO.N,RP1_SWCLK*%
X204812500Y-76050000D03*
%TO.P,U2,25,SWD*%
%TO.N,RP1_SWD*%
X204812500Y-76450000D03*
%TO.P,U2,26,RUN*%
%TO.N,RUN*%
X204812500Y-76850000D03*
%TO.P,U2,27,GPIO16*%
%TO.N,unconnected-(U2-GPIO16-Pad27)*%
X204812500Y-77250000D03*
%TO.P,U2,28,GPIO17*%
%TO.N,RP1_CAN_RX*%
X204812500Y-77650000D03*
D57*
%TO.P,U2,29,GPIO18*%
%TO.N,RP1_CAN_TX*%
X203975000Y-78487500D03*
%TO.P,U2,30,GPIO19*%
%TO.N,unconnected-(U2-GPIO19-Pad30)*%
X203575000Y-78487500D03*
%TO.P,U2,31,GPIO20*%
%TO.N,unconnected-(U2-GPIO20-Pad31)*%
X203175000Y-78487500D03*
%TO.P,U2,32,GPIO21*%
%TO.N,unconnected-(U2-GPIO21-Pad32)*%
X202775000Y-78487500D03*
%TO.P,U2,33,IOVDD*%
%TO.N,+3V3*%
X202375000Y-78487500D03*
%TO.P,U2,34,GPIO22*%
%TO.N,unconnected-(U2-GPIO22-Pad34)*%
X201975000Y-78487500D03*
%TO.P,U2,35,GPIO23*%
%TO.N,unconnected-(U2-GPIO23-Pad35)*%
X201575000Y-78487500D03*
%TO.P,U2,36,GPIO24*%
%TO.N,unconnected-(U2-GPIO24-Pad36)*%
X201175000Y-78487500D03*
%TO.P,U2,37,GPIO25*%
%TO.N,unconnected-(U2-GPIO25-Pad37)*%
X200775000Y-78487500D03*
%TO.P,U2,38,GPIO26_ADC0*%
%TO.N,unconnected-(U2-GPIO26_ADC0-Pad38)*%
X200375000Y-78487500D03*
%TO.P,U2,39,GPIO27_ADC1*%
%TO.N,unconnected-(U2-GPIO27_ADC1-Pad39)*%
X199975000Y-78487500D03*
%TO.P,U2,40,GPIO28_ADC2*%
%TO.N,unconnected-(U2-GPIO28_ADC2-Pad40)*%
X199575000Y-78487500D03*
%TO.P,U2,41,GPIO29_ADC3*%
%TO.N,unconnected-(U2-GPIO29_ADC3-Pad41)*%
X199175000Y-78487500D03*
%TO.P,U2,42,IOVDD*%
%TO.N,+3V3*%
X198775000Y-78487500D03*
D58*
%TO.P,U2,43,ADC_AVDD*%
X197937500Y-77650000D03*
%TO.P,U2,44,VREG_IN*%
X197937500Y-77250000D03*
%TO.P,U2,45,VREG_VOUT*%
%TO.N,RP1_v1*%
X197937500Y-76850000D03*
%TO.P,U2,46,USB_DM*%
%TO.N,RP1_USB_D-*%
X197937500Y-76450000D03*
%TO.P,U2,47,USB_DP*%
%TO.N,RP1_USB_D+*%
X197937500Y-76050000D03*
%TO.P,U2,48,USB_VDD*%
%TO.N,+3V3*%
X197937500Y-75650000D03*
%TO.P,U2,49,IOVDD*%
X197937500Y-75250000D03*
%TO.P,U2,50,DVDD*%
%TO.N,RP1_v1*%
X197937500Y-74850000D03*
%TO.P,U2,51,QSPI_SD3*%
%TO.N,RP1_QSPI_SD3*%
X197937500Y-74450000D03*
%TO.P,U2,52,QSPI_SCLK*%
%TO.N,RP1_QSPI_SCLK*%
X197937500Y-74050000D03*
%TO.P,U2,53,QSPI_SD0*%
%TO.N,RP1_QSPI_SD0*%
X197937500Y-73650000D03*
%TO.P,U2,54,QSPI_SD2*%
%TO.N,RP1_QSPI_SD2*%
X197937500Y-73250000D03*
%TO.P,U2,55,QSPI_SD1*%
%TO.N,RP1_QSPI_SD1*%
X197937500Y-72850000D03*
%TO.P,U2,56,QSPI_SS*%
%TO.N,RP1_QSPI_CS*%
X197937500Y-72450000D03*
D59*
%TO.P,U2,57,GND*%
%TO.N,GND*%
X201375000Y-75050000D03*
%TD*%
D18*
%TO.P,R8,1*%
%TO.N,Net-(D2-K)*%
X207862500Y-90650000D03*
%TO.P,R8,2*%
%TO.N,GND*%
X206037500Y-90650000D03*
%TD*%
D16*
%TO.P,R55,1*%
%TO.N,LED_LINE_4*%
X237525000Y-69587500D03*
%TO.P,R55,2*%
%TO.N,Net-(D24-K)*%
X237525000Y-71412500D03*
%TD*%
D60*
%TO.P,D4,1,K*%
%TO.N,Net-(D4-K)*%
X113600000Y-37125000D03*
%TO.P,D4,2,A*%
%TO.N,Net-(D4-A)*%
X113600000Y-39925000D03*
%TD*%
D18*
%TO.P,R50,1*%
%TO.N,LED_LINE_1*%
X188225000Y-104125000D03*
%TO.P,R50,2*%
%TO.N,Net-(D15-K)*%
X186400000Y-104125000D03*
%TD*%
D61*
%TO.P,Y1,1,1*%
%TO.N,RP1_XTAL_IN*%
X209252500Y-70025000D03*
%TO.P,Y1,2,2*%
%TO.N,GND*%
X210872500Y-70025000D03*
%TO.P,Y1,3,3*%
%TO.N,RP1_XTAL_OUT*%
X210872500Y-71625000D03*
%TO.P,Y1,4,4*%
%TO.N,GND*%
X209252500Y-71625000D03*
%TD*%
D62*
%TO.P,R28,1*%
%TO.N,Net-(J6-Pin_2)*%
X167513484Y-94038456D03*
%TO.P,R28,2*%
%TO.N,Net-(R28-Pad2)*%
X168911516Y-95211544D03*
%TD*%
D20*
%TO.P,C23,1*%
%TO.N,GND*%
X210625000Y-100600000D03*
%TO.P,C23,2*%
%TO.N,+3V3*%
X212525000Y-100600000D03*
%TD*%
D63*
%TO.P,L2,1,1*%
%TO.N,Net-(U5-L1)*%
X76475000Y-99705000D03*
D64*
%TO.P,L2,2,2*%
%TO.N,Net-(U5-L2)*%
X76475000Y-102245000D03*
%TD*%
D65*
%TO.N,GND*%
X81400000Y-96550000D03*
X217450000Y-104100000D03*
X209225000Y-93475000D03*
X202437500Y-65575000D03*
X192350000Y-77950000D03*
X189950000Y-74875000D03*
X87175000Y-89325000D03*
X198050000Y-84100000D03*
X215175000Y-87900000D03*
X103225000Y-49175000D03*
X200720000Y-43750000D03*
X212675000Y-68225000D03*
X212450000Y-82575000D03*
X81325000Y-100350000D03*
X81300000Y-101675000D03*
X106375000Y-100975000D03*
X180850000Y-52000000D03*
X222975000Y-99125000D03*
X211775000Y-77250000D03*
X224450000Y-68000000D03*
X191450000Y-63900000D03*
X192350000Y-80000000D03*
X227750000Y-93550000D03*
X117400000Y-46225000D03*
X187600000Y-46325000D03*
X210625000Y-102650000D03*
X200300000Y-84125000D03*
X204500000Y-90650000D03*
X211775000Y-75250000D03*
X214450000Y-69775000D03*
X196600000Y-68850000D03*
X198750000Y-65575000D03*
X114250000Y-104025000D03*
X184500000Y-64000000D03*
X210975000Y-66400000D03*
X136100000Y-88350000D03*
X120975000Y-99600000D03*
X202400000Y-84050000D03*
X203575000Y-74050000D03*
X208430270Y-72675994D03*
X205875000Y-38475000D03*
X110150000Y-33850000D03*
X106725000Y-47300000D03*
X129275000Y-89900000D03*
X106850000Y-93500000D03*
X193100000Y-67225000D03*
X190850000Y-72925000D03*
%TO.N,+3V3*%
X195850000Y-81350000D03*
X209325000Y-73925000D03*
X197920735Y-42770735D03*
X78925000Y-109750000D03*
X197925000Y-63000000D03*
X217775000Y-79900000D03*
X217650000Y-82025000D03*
X203900000Y-80800000D03*
X80175000Y-109750000D03*
X78300000Y-109750000D03*
X108597453Y-102190042D03*
X197725000Y-110950000D03*
X103325000Y-47300000D03*
X80175000Y-110400000D03*
X79550000Y-109750000D03*
X197450000Y-66975000D03*
X229725000Y-100325000D03*
X79550000Y-110400000D03*
X196825000Y-81725000D03*
X120800000Y-35150000D03*
X78925000Y-110400000D03*
X78300000Y-110400000D03*
X200300000Y-79725000D03*
X124575000Y-102925000D03*
X216150000Y-104025000D03*
X203750000Y-67950000D03*
X194650000Y-74550000D03*
X190025000Y-67275000D03*
X184150000Y-49000000D03*
%TO.N,USB_POWER*%
X133650000Y-95675000D03*
X135550000Y-93925000D03*
%TO.N,LED_LINE_8*%
X203875000Y-65550000D03*
X190211765Y-41836765D03*
X124325000Y-93150000D03*
X173437500Y-58537500D03*
%TO.N,Net-(D3-K)*%
X161350000Y-83425000D03*
%TO.N,Net-(D5-K)*%
X167425000Y-89050000D03*
%TO.N,Net-(D6-K)*%
X118661765Y-100763235D03*
%TO.N,LED_LINE_5*%
X205979313Y-65626726D03*
X186075000Y-42375000D03*
X122275000Y-91900000D03*
X132925000Y-83925000D03*
%TO.N,Net-(D7-K)*%
X211675000Y-39725000D03*
%TO.N,Net-(D8-K)*%
X180525000Y-41650000D03*
%TO.N,Net-(D9-K)*%
X141350000Y-83500000D03*
%TO.N,LED_LINE_6*%
X205400000Y-65075000D03*
X166012500Y-63612500D03*
X182600000Y-46950000D03*
X170575000Y-50843706D03*
X209912500Y-42637500D03*
X162800000Y-60400000D03*
X101875000Y-98475000D03*
X129475000Y-85875000D03*
X179175000Y-44175000D03*
X174687500Y-54937500D03*
%TO.N,Net-(D10-K)*%
X74475000Y-94025000D03*
%TO.N,Net-(D11-K)*%
X70575000Y-60750000D03*
%TO.N,Net-(D12-K)*%
X90600000Y-36100000D03*
%TO.N,LED_LINE_7*%
X135325000Y-83500000D03*
X92125000Y-99300000D03*
X204524229Y-65082555D03*
X123150000Y-93200000D03*
X137575000Y-83500000D03*
X178450000Y-52375000D03*
X122125000Y-95500000D03*
X126962500Y-89437500D03*
X128300000Y-90775000D03*
X207390686Y-41200000D03*
%TO.N,Net-(D13-K)*%
X121700000Y-45125000D03*
%TO.N,Net-(D14-K)*%
X177950000Y-94075000D03*
%TO.N,Net-(D15-K)*%
X186400000Y-102675000D03*
%TO.N,LED_LINE_9*%
X126025000Y-48725000D03*
X91950000Y-38975000D03*
X133600000Y-54700000D03*
X71725000Y-57925000D03*
%TO.N,Net-(D17-K)*%
X199325000Y-103225000D03*
%TO.N,Net-(D19-K)*%
X217350000Y-99200000D03*
%TO.N,Net-(D20-K)*%
X228775000Y-92000000D03*
%TO.N,LED_LINE_10*%
X102175000Y-39625000D03*
X84800000Y-41550000D03*
X86725000Y-42400000D03*
X73500000Y-91575000D03*
X133048999Y-55280002D03*
X71125000Y-57275000D03*
X79762500Y-49362500D03*
X77475000Y-48400000D03*
X72400000Y-56725000D03*
X127193997Y-49425000D03*
%TO.N,Net-(D21-K)*%
X235175000Y-60850000D03*
%TO.N,Net-(D23-K)*%
X233900000Y-82700000D03*
%TO.N,Net-(D24-K)*%
X235650000Y-71725000D03*
%TO.N,LED_LINE_11*%
X94575000Y-38375000D03*
X73400000Y-79450000D03*
X114625000Y-49075000D03*
X108662500Y-43112500D03*
X132465751Y-55827565D03*
X91800000Y-42775000D03*
X76462500Y-53887500D03*
X104750000Y-38375000D03*
X114925000Y-43600000D03*
%TO.N,Net-(D25-K)*%
X230675000Y-51750000D03*
%TO.N,Net-(D26-K)*%
X221375000Y-44325000D03*
%TO.N,Net-(D27-K)*%
X200900000Y-34950000D03*
%TO.N,LED_LINE_12*%
X124525000Y-50825000D03*
X86626400Y-45248600D03*
X113225000Y-48725000D03*
X131900000Y-56400000D03*
X74200000Y-69900000D03*
X124525000Y-48125000D03*
%TO.N,Net-(D28-K)*%
X188875000Y-37200000D03*
%TO.N,Net-(D29-K)*%
X172975000Y-50400000D03*
%TO.N,Net-(D30-K)*%
X163425000Y-55125000D03*
%TO.N,LED_LINE_1*%
X182495267Y-58804206D03*
X231900000Y-64429772D03*
X189400000Y-100340942D03*
X221462908Y-95199883D03*
%TO.N,Net-(D31-K)*%
X132400000Y-87925000D03*
%TO.N,Net-(D32-K)*%
X126525000Y-96400000D03*
%TO.N,Net-(D33-K)*%
X104300000Y-102600000D03*
%TO.N,LED_LINE_2*%
X190750000Y-99888799D03*
X201950000Y-103125000D03*
X229325000Y-56550000D03*
X188825000Y-101800000D03*
X201950000Y-101600000D03*
X168550000Y-85608241D03*
X221850000Y-95900000D03*
X220058386Y-95208386D03*
X229705811Y-80000000D03*
X183150850Y-59262698D03*
%TO.N,Net-(D34-K)*%
X93925000Y-102025000D03*
%TO.N,Net-(D35-K)*%
X68075000Y-83600000D03*
%TO.N,Net-(D36-K)*%
X69325000Y-71750000D03*
%TO.N,LED_LINE_3*%
X201025000Y-100598136D03*
X232025000Y-78325000D03*
X232700000Y-68025000D03*
X221850000Y-48475000D03*
X226900000Y-89700000D03*
X229635367Y-76175000D03*
X229975000Y-68050000D03*
X223657674Y-89707674D03*
X183624170Y-59907657D03*
X172048704Y-85497862D03*
%TO.N,Net-(D37-K)*%
X75000000Y-50700000D03*
%TO.N,Net-(D38-K)*%
X81100000Y-44475000D03*
%TO.N,Net-(D39-K)*%
X101600000Y-34800000D03*
%TO.N,LED_LINE_4*%
X211209825Y-97915910D03*
X227234921Y-58865079D03*
X181369774Y-91605226D03*
X228900000Y-69600000D03*
X230500000Y-57650000D03*
X184025000Y-60600000D03*
%TO.N,Net-(D40-K)*%
X112100000Y-40875000D03*
%TO.N,Net-(D41-K)*%
X132200000Y-48725000D03*
%TO.N,Net-(D42-K)*%
X138775000Y-54775000D03*
%TO.N,Net-(J6-Pin_2)*%
X113000000Y-95450000D03*
X120077944Y-53075000D03*
X214187500Y-93387500D03*
X108877944Y-41875000D03*
X222200000Y-85375000D03*
X206212500Y-43887500D03*
X92475000Y-41875000D03*
%TO.N,Net-(J6-Pin_3)*%
X215798528Y-93473528D03*
X92500000Y-40675000D03*
X109363235Y-40686765D03*
X223450000Y-85822056D03*
X120536748Y-51836748D03*
X206486028Y-42463972D03*
X114275000Y-95425000D03*
%TD*%
D66*
%TO.N,Net-(BT1-+)*%
X123835000Y-77345000D02*
X123835000Y-81175000D01*
X123835000Y-81175000D02*
X120360000Y-84650000D01*
X120360000Y-84650000D02*
X118110000Y-84650000D01*
D67*
%TO.N,GND*%
X210872500Y-70025000D02*
X210875000Y-70025000D01*
X198737500Y-65587500D02*
X198750000Y-65575000D01*
X111787500Y-33850000D02*
X110150000Y-33850000D01*
X193100000Y-67225000D02*
X194492220Y-68617220D01*
X200312500Y-84112500D02*
X200300000Y-84125000D01*
X106720000Y-44875000D02*
X106720000Y-47295000D01*
X206037500Y-90650000D02*
X204500000Y-90650000D01*
X196012500Y-68262500D02*
X196600000Y-68850000D01*
X184500000Y-72380000D02*
X184500000Y-66620000D01*
X210872500Y-70025000D02*
X212612500Y-70025000D01*
X210112500Y-77250000D02*
X211775000Y-77250000D01*
X136087500Y-88362500D02*
X136100000Y-88350000D01*
X209252500Y-71625000D02*
X209272500Y-71625000D01*
D68*
X130735618Y-95929397D02*
X130735618Y-97058140D01*
D67*
X133675000Y-88362500D02*
X133662500Y-88362500D01*
D68*
X88137500Y-88362500D02*
X88137500Y-87650000D01*
D67*
X210872500Y-68090000D02*
X210987500Y-67975000D01*
X82537500Y-101502654D02*
X83825000Y-101502654D01*
X191462500Y-65375000D02*
X191462500Y-63912500D01*
D68*
X135787066Y-91838814D02*
X137156725Y-91838814D01*
D67*
X204445000Y-38450000D02*
X205850000Y-38450000D01*
X192287500Y-72925000D02*
X190850000Y-72925000D01*
X210625000Y-100600000D02*
X210625000Y-102650000D01*
X81825000Y-101502654D02*
X81325000Y-101002654D01*
X191425000Y-74900000D02*
X189975000Y-74900000D01*
X180837500Y-51987500D02*
X180850000Y-52000000D01*
X184500000Y-66620000D02*
X184500000Y-64000000D01*
X217425000Y-104075000D02*
X217450000Y-104100000D01*
X119675000Y-97375000D02*
X119675000Y-98300000D01*
X180837500Y-50375000D02*
X180837500Y-51987500D01*
X103250000Y-49200000D02*
X103225000Y-49175000D01*
X105050000Y-49200000D02*
X103250000Y-49200000D01*
X202450000Y-67025000D02*
X202450000Y-65587500D01*
X210875000Y-70025000D02*
X212675000Y-68225000D01*
X209272500Y-71625000D02*
X210872500Y-70025000D01*
X198062500Y-82700000D02*
X198062500Y-84087500D01*
X210112500Y-75225000D02*
X211750000Y-75225000D01*
X212612500Y-70025000D02*
X212862500Y-69775000D01*
X133675000Y-88362500D02*
X136087500Y-88362500D01*
X224190000Y-67740000D02*
X224450000Y-68000000D01*
X193962500Y-77950000D02*
X192350000Y-77950000D01*
X196012500Y-68175000D02*
X196012500Y-68262500D01*
X201260000Y-43210000D02*
X201260000Y-41550000D01*
X187587500Y-46312500D02*
X187600000Y-46325000D01*
X210987500Y-66412500D02*
X210975000Y-66400000D01*
X82537500Y-101502654D02*
X81825000Y-101502654D01*
X204812500Y-74050000D02*
X203575000Y-74050000D01*
X129300000Y-89925000D02*
X129275000Y-89900000D01*
D68*
X130735618Y-97058140D02*
X130479900Y-97313858D01*
X202575000Y-75050000D02*
X203575000Y-74050000D01*
D67*
X191462500Y-63912500D02*
X191450000Y-63900000D01*
X202450000Y-65587500D02*
X202437500Y-65575000D01*
X213845000Y-86570000D02*
X215175000Y-87900000D01*
X213875000Y-82575000D02*
X212450000Y-82575000D01*
X222987500Y-97225000D02*
X222987500Y-99112500D01*
X211750000Y-75225000D02*
X211775000Y-75250000D01*
X202387500Y-84037500D02*
X202400000Y-84050000D01*
D68*
X137156725Y-91838814D02*
X137194441Y-91876530D01*
D67*
X210812500Y-93475000D02*
X209225000Y-93475000D01*
X80112500Y-101002654D02*
X81325000Y-101002654D01*
X222000000Y-73500000D02*
X222000000Y-67740000D01*
X117400000Y-44512500D02*
X117400000Y-46225000D01*
X130900000Y-89925000D02*
X129300000Y-89925000D01*
X83825000Y-101502654D02*
X84177654Y-101502654D01*
X114275000Y-104000000D02*
X114250000Y-104025000D01*
X209252500Y-71625000D02*
X209252500Y-71853764D01*
X210872500Y-70025000D02*
X210872500Y-68090000D01*
X212862500Y-69775000D02*
X214450000Y-69775000D01*
X213350000Y-86570000D02*
X213845000Y-86570000D01*
X210987500Y-67975000D02*
X210987500Y-66412500D01*
X107600000Y-100975000D02*
X106375000Y-100975000D01*
X181250000Y-50400000D02*
X181225000Y-50425000D01*
X214425000Y-82025000D02*
X213875000Y-82575000D01*
X225912500Y-93550000D02*
X227750000Y-93550000D01*
X186075000Y-46312500D02*
X187587500Y-46312500D01*
X189975000Y-74900000D02*
X189950000Y-74875000D01*
X222000000Y-67740000D02*
X224190000Y-67740000D01*
X198737500Y-67025000D02*
X198737500Y-65587500D01*
X205850000Y-38450000D02*
X205875000Y-38475000D01*
X222987500Y-99112500D02*
X222975000Y-99125000D01*
X200720000Y-43750000D02*
X201260000Y-43210000D01*
X200312500Y-82700000D02*
X200312500Y-84112500D01*
X194492220Y-68617220D02*
X194492220Y-68634619D01*
D68*
X87175000Y-89325000D02*
X88137500Y-88362500D01*
D67*
X84177654Y-101502654D02*
X84875000Y-102200000D01*
X108187500Y-93500000D02*
X106850000Y-93500000D01*
X217425000Y-102175000D02*
X217425000Y-104075000D01*
X119675000Y-98300000D02*
X120975000Y-99600000D01*
X198062500Y-84087500D02*
X198050000Y-84100000D01*
X106720000Y-47295000D02*
X106725000Y-47300000D01*
D68*
X201375000Y-75050000D02*
X202575000Y-75050000D01*
D67*
X114275000Y-102325000D02*
X114275000Y-104000000D01*
X193962500Y-80000000D02*
X192350000Y-80000000D01*
X209252500Y-71853764D02*
X208430270Y-72675994D01*
X202387500Y-82700000D02*
X202387500Y-84037500D01*
%TO.N,RP1_v1*%
X197937500Y-74850000D02*
X196575210Y-74849999D01*
X198600000Y-76850000D02*
X197937500Y-76850000D01*
X206612500Y-75650000D02*
X204812500Y-75650000D01*
X198575000Y-76850000D02*
X199075000Y-76350000D01*
X203150000Y-77075000D02*
X198825000Y-77075000D01*
X194650211Y-72925000D02*
X194187500Y-72925000D01*
X197937500Y-76850000D02*
X198575000Y-76850000D01*
X198825000Y-77075000D02*
X198600000Y-76850000D01*
X203725000Y-76203640D02*
X203725000Y-76500000D01*
X196575210Y-74849999D02*
X194650211Y-72925000D01*
X199075000Y-76350000D02*
X199075000Y-75453640D01*
X204278640Y-75650000D02*
X203725000Y-76203640D01*
X198471360Y-74850000D02*
X197937500Y-74850000D01*
X197937500Y-76850000D02*
X196962500Y-76850000D01*
X208212500Y-77250000D02*
X206612500Y-75650000D01*
X199075000Y-75453640D02*
X198471360Y-74850000D01*
X203725000Y-76500000D02*
X203150000Y-77075000D01*
X204812500Y-75650000D02*
X204278640Y-75650000D01*
X196962500Y-76850000D02*
X195862500Y-77950000D01*
%TO.N,+3V3*%
X208212500Y-75225000D02*
X208187500Y-75250000D01*
X175602886Y-38231072D02*
X184150000Y-46778186D01*
X202387500Y-80775000D02*
X202375000Y-80762500D01*
X105050000Y-47300000D02*
X103325000Y-47300000D01*
X197237500Y-77250000D02*
X197937500Y-77250000D01*
X193325000Y-74900000D02*
X194300000Y-74900000D01*
X192971940Y-69094238D02*
X191462500Y-67584798D01*
X216325000Y-79887500D02*
X217762500Y-79887500D01*
X125622114Y-103975000D02*
X125622114Y-103972114D01*
X212525000Y-100600000D02*
X215554999Y-100600000D01*
X198737500Y-68534744D02*
X197450000Y-67247244D01*
X198775000Y-68962500D02*
X198737500Y-68925000D01*
X109500000Y-100975000D02*
X109500000Y-101287495D01*
X195862500Y-81337500D02*
X195850000Y-81350000D01*
X194075000Y-75650000D02*
X193325000Y-74900000D01*
X208187500Y-75250000D02*
X204812500Y-75250000D01*
X197920735Y-42003713D02*
X197920735Y-42770735D01*
X191462500Y-67275000D02*
X190025000Y-67275000D01*
X213350000Y-85300000D02*
X214324999Y-85300000D01*
X195862500Y-80000000D02*
X195862500Y-81337500D01*
D68*
X83150000Y-102615154D02*
X82612500Y-102077654D01*
D67*
X216325000Y-82025000D02*
X217650000Y-82025000D01*
X175602886Y-36250000D02*
X175602886Y-38231072D01*
X196946629Y-111728371D02*
X197725000Y-110950000D01*
X217762500Y-79887500D02*
X217775000Y-79900000D01*
X197912500Y-62987500D02*
X197925000Y-63000000D01*
X195862500Y-80000000D02*
X196962500Y-78900000D01*
X197937500Y-75250000D02*
X193674999Y-75249999D01*
X194300000Y-74900000D02*
X194650000Y-74550000D01*
X214324999Y-85300000D02*
X216325000Y-83299999D01*
X216325000Y-83299999D02*
X216325000Y-82025000D01*
X202450000Y-68925000D02*
X202775000Y-68925000D01*
X202375000Y-69000000D02*
X202450000Y-68925000D01*
X208212500Y-75225000D02*
X208212500Y-75037500D01*
X202375000Y-80762500D02*
X202375000Y-78487500D01*
X230678367Y-101278367D02*
X229725000Y-100325000D01*
X216155000Y-104020000D02*
X216150000Y-104025000D01*
D68*
X83150000Y-107600000D02*
X83150000Y-102615154D01*
D67*
X193674999Y-75249999D02*
X193325000Y-74900000D01*
X196362500Y-62987500D02*
X197912500Y-62987500D01*
X202545000Y-38450000D02*
X201474448Y-38450000D01*
X198737500Y-68925000D02*
X198737500Y-68534744D01*
X202530000Y-41550000D02*
X202530000Y-38465000D01*
X113005000Y-102325000D02*
X113005000Y-101350001D01*
X216155000Y-101200001D02*
X216155000Y-102175000D01*
X105450000Y-46900000D02*
X105450000Y-44875000D01*
X201474448Y-38450000D02*
X197920735Y-42003713D01*
X191462500Y-67584798D02*
X191462500Y-67275000D01*
X198775000Y-79262500D02*
X198775000Y-78487500D01*
X198062500Y-80800000D02*
X197750000Y-80800000D01*
X208212500Y-75037500D02*
X209325000Y-73925000D01*
X202530000Y-38465000D02*
X202545000Y-38450000D01*
X122064905Y-33872003D02*
X122064905Y-33885095D01*
X200312500Y-79737500D02*
X200300000Y-79725000D01*
X198775000Y-71612500D02*
X198775000Y-68962500D01*
X230790749Y-101278367D02*
X230678367Y-101278367D01*
X198062500Y-80575000D02*
X198062500Y-77775000D01*
X202387500Y-80800000D02*
X203900000Y-80800000D01*
X109500000Y-101287495D02*
X108597453Y-102190042D01*
X184150000Y-46778186D02*
X184150000Y-49000000D01*
X198062500Y-77775000D02*
X197937500Y-77650000D01*
X196962500Y-77525000D02*
X197237500Y-77250000D01*
X105050000Y-47300000D02*
X105450000Y-46900000D01*
X125622114Y-103972114D02*
X124575000Y-102925000D01*
X215554999Y-100600000D02*
X216155000Y-101200001D01*
X198737500Y-68925000D02*
X198737500Y-68587500D01*
D68*
X82800000Y-107950000D02*
X83150000Y-107600000D01*
D67*
X200312500Y-80800000D02*
X198775000Y-79262500D01*
X197450000Y-67247244D02*
X197450000Y-66975000D01*
X200312500Y-80800000D02*
X200312500Y-79737500D01*
X197937500Y-75650000D02*
X194075000Y-75650000D01*
X122064905Y-33885095D02*
X120800000Y-35150000D01*
X202375000Y-71612500D02*
X202375000Y-69000000D01*
X216155000Y-102175000D02*
X216155000Y-104020000D01*
D68*
X79400000Y-107950000D02*
X82800000Y-107950000D01*
X82612500Y-102077654D02*
X82537500Y-102077654D01*
D67*
X196962500Y-78900000D02*
X196962500Y-77525000D01*
X195876342Y-111728371D02*
X196946629Y-111728371D01*
X112629999Y-100975000D02*
X109500000Y-100975000D01*
X197750000Y-80800000D02*
X196825000Y-81725000D01*
X113005000Y-101350001D02*
X112629999Y-100975000D01*
X202775000Y-68925000D02*
X203750000Y-67950000D01*
%TO.N,RP1_XTAL_IN*%
X205443418Y-74450000D02*
X205609209Y-74284209D01*
X209087500Y-69860000D02*
X209252500Y-70025000D01*
X206351670Y-73541745D02*
X206351671Y-73541745D01*
X206245605Y-74284209D02*
X206351671Y-74178142D01*
X209087500Y-67975000D02*
X209087500Y-69860000D01*
X206351670Y-73859943D02*
X206351671Y-73859944D01*
X208352500Y-70925000D02*
X209252500Y-70025000D01*
X206351671Y-73541745D02*
X208352500Y-71540918D01*
X208352500Y-71540918D02*
X208352500Y-70925000D01*
X206245606Y-74284208D02*
X206245605Y-74284209D01*
X204812500Y-74450000D02*
X205443418Y-74450000D01*
X205609210Y-74284210D02*
G75*
G02*
X205927406Y-74284210I159098J-159098D01*
G01*
X206351672Y-73859943D02*
G75*
G02*
X206351627Y-73541702I159128J159143D01*
G01*
X205927408Y-74284208D02*
G75*
G03*
X206245599Y-74284201I159092J159108D01*
G01*
X206351671Y-74178142D02*
G75*
G03*
X206351713Y-73859900I-159071J159142D01*
G01*
%TO.N,RP1_XTAL_OUT*%
X207775000Y-73325000D02*
X206250000Y-74850000D01*
X209172500Y-73325000D02*
X207775000Y-73325000D01*
X210922500Y-71675000D02*
X210872500Y-71625000D01*
X206250000Y-74850000D02*
X204812500Y-74850000D01*
X210872500Y-71625000D02*
X209172500Y-73325000D01*
X212862500Y-71675000D02*
X210922500Y-71675000D01*
D68*
%TO.N,Common_Power*%
X81700000Y-86675000D02*
X81700000Y-90350000D01*
%TO.N,Net-(U5-EN)*%
X82537500Y-100002654D02*
X82537500Y-100927654D01*
D67*
X82537500Y-101002654D02*
X84172346Y-101002654D01*
X84172346Y-101002654D02*
X84875000Y-100300000D01*
D68*
%TO.N,USB_POWER*%
X86312500Y-87650000D02*
X83600000Y-87650000D01*
X85000000Y-90350000D02*
X85025000Y-90375000D01*
X119951056Y-92456000D02*
X116745000Y-92456000D01*
X126371733Y-90375000D02*
X122032056Y-90375000D01*
X114639000Y-90350000D02*
X85000000Y-90350000D01*
D67*
X133650000Y-95675000D02*
X133381755Y-95943245D01*
X135550000Y-92726921D02*
X135550000Y-93925000D01*
D68*
X83575000Y-87625000D02*
X83575000Y-88550000D01*
D67*
X133381755Y-95943245D02*
X131874638Y-95943245D01*
D68*
X83600000Y-87650000D02*
X83575000Y-87625000D01*
X131402504Y-95405771D02*
X126371733Y-90375000D01*
X85000000Y-89975000D02*
X85000000Y-90350000D01*
X122032056Y-90375000D02*
X119951056Y-92456000D01*
X83575000Y-88550000D02*
X85000000Y-89975000D01*
X116745000Y-92456000D02*
X114639000Y-90350000D01*
D67*
X135165350Y-92342271D02*
X135550000Y-92726921D01*
X131874638Y-95943245D02*
X131357334Y-95425941D01*
%TO.N,Net-(D2-K)*%
X209825000Y-90600000D02*
X207912500Y-90600000D01*
X207912500Y-90600000D02*
X207862500Y-90650000D01*
%TO.N,Net-(D2-A)*%
X215540000Y-90600000D02*
X212625000Y-90600000D01*
X218300000Y-87840000D02*
X215540000Y-90600000D01*
X212637500Y-93475000D02*
X212637500Y-90612500D01*
X212637500Y-90612500D02*
X212625000Y-90600000D01*
X212637500Y-93475000D02*
X194956556Y-111155944D01*
X194956556Y-111155944D02*
X192931460Y-111155944D01*
X218312500Y-87852500D02*
X218300000Y-87840000D01*
%TO.N,Net-(D4-K)*%
X113612500Y-37112500D02*
X113600000Y-37125000D01*
X113612500Y-33850000D02*
X113612500Y-37112500D01*
%TO.N,Net-(D4-A)*%
X107990000Y-39925000D02*
X113600000Y-39925000D01*
X117400000Y-42634984D02*
X117400000Y-42687500D01*
X124662981Y-35372003D02*
X117400000Y-42634984D01*
X116362500Y-42687500D02*
X113600000Y-39925000D01*
X117400000Y-42687500D02*
X116362500Y-42687500D01*
X117387500Y-42700000D02*
X117400000Y-42687500D01*
%TO.N,LED_LINE_8*%
X202775000Y-71612500D02*
X202775000Y-70747268D01*
X124337500Y-93162500D02*
X124325000Y-93150000D01*
X204375000Y-66050000D02*
X203875000Y-65550000D01*
X204375000Y-68500000D02*
X204375000Y-66050000D01*
X202775000Y-70747268D02*
X204375000Y-69147268D01*
X165262500Y-50350000D02*
X165262500Y-50362500D01*
X165262500Y-50362500D02*
X173437500Y-58537500D01*
X204375000Y-69147268D02*
X204375000Y-68500000D01*
X126525000Y-93162500D02*
X124337500Y-93162500D01*
X192037500Y-35775000D02*
X192037500Y-40011030D01*
X192037500Y-40011030D02*
X190211765Y-41836765D01*
%TO.N,Net-(D3-K)*%
X161350000Y-83425000D02*
X161350000Y-87937500D01*
X161350000Y-87937500D02*
X161600000Y-88187500D01*
%TO.N,Net-(D5-K)*%
X167425000Y-89050000D02*
X166087500Y-89050000D01*
X166087500Y-89050000D02*
X166000000Y-88962500D01*
%TO.N,Net-(D6-K)*%
X118775000Y-100650000D02*
X118661765Y-100763235D01*
X119325000Y-95437500D02*
X118775000Y-95987500D01*
X118775000Y-95987500D02*
X118775000Y-100650000D01*
%TO.N,LED_LINE_5*%
X205575000Y-67750000D02*
X205575000Y-66031039D01*
X205575000Y-66031039D02*
X205979313Y-65626726D01*
X120562500Y-93612500D02*
X122275000Y-91900000D01*
X137025000Y-88025000D02*
X132925000Y-83925000D01*
X119325000Y-93612500D02*
X120562500Y-93612500D01*
X205575000Y-70012500D02*
X205575000Y-67750000D01*
X183925000Y-40225000D02*
X186075000Y-42375000D01*
X138437500Y-88025000D02*
X137025000Y-88025000D01*
X182137500Y-40225000D02*
X183925000Y-40225000D01*
X203975000Y-71612500D02*
X205575000Y-70012500D01*
%TO.N,Net-(D7-K)*%
X212500000Y-40550000D02*
X212725000Y-40550000D01*
X211675000Y-39725000D02*
X212500000Y-40550000D01*
%TO.N,Net-(D8-K)*%
X180525000Y-40437500D02*
X180312500Y-40225000D01*
X180525000Y-41650000D02*
X180525000Y-40437500D01*
%TO.N,Net-(D9-K)*%
X140262500Y-88025000D02*
X141350000Y-86937500D01*
X141350000Y-86937500D02*
X141350000Y-83500000D01*
%TO.N,LED_LINE_6*%
X205175000Y-69478640D02*
X205175000Y-67775000D01*
X129475000Y-87925000D02*
X129475000Y-85875000D01*
X101887500Y-101175000D02*
X101887500Y-98487500D01*
X170575000Y-50843706D02*
X170593706Y-50843706D01*
X181225000Y-45600000D02*
X180600000Y-45600000D01*
X205175000Y-67775000D02*
X205175000Y-65300000D01*
X182600000Y-46950000D02*
X182575000Y-46950000D01*
X212725000Y-42375000D02*
X210175000Y-42375000D01*
X170593706Y-50843706D02*
X174687500Y-54937500D01*
X203575000Y-71078640D02*
X205175000Y-69478640D01*
X180600000Y-45600000D02*
X179175000Y-44175000D01*
X205175000Y-65300000D02*
X205400000Y-65075000D01*
X182575000Y-46950000D02*
X181225000Y-45600000D01*
X203575000Y-71612500D02*
X203575000Y-71078640D01*
X101887500Y-98487500D02*
X101875000Y-98475000D01*
X162800000Y-60400000D02*
X166012500Y-63612500D01*
X210175000Y-42375000D02*
X209912500Y-42637500D01*
%TO.N,Net-(D10-K)*%
X73725000Y-94775000D02*
X74475000Y-94025000D01*
X72625000Y-94775000D02*
X73725000Y-94775000D01*
%TO.N,Net-(D11-K)*%
X70575000Y-60750000D02*
X71887500Y-60750000D01*
X71887500Y-60750000D02*
X71975000Y-60837500D01*
%TO.N,Net-(D12-K)*%
X90600000Y-36100000D02*
X90600000Y-34475000D01*
X90600000Y-34475000D02*
X90425000Y-34300000D01*
%TO.N,LED_LINE_7*%
X204775000Y-67825000D02*
X204775000Y-65333326D01*
X204775000Y-69312954D02*
X204775000Y-67825000D01*
X203175000Y-70912954D02*
X204775000Y-69312954D01*
X207390686Y-38178186D02*
X207390686Y-41200000D01*
X137575000Y-83500000D02*
X135325000Y-83500000D01*
X92112500Y-100525000D02*
X92112500Y-99312500D01*
X122125000Y-94225000D02*
X123150000Y-93200000D01*
X204775000Y-65333326D02*
X204524229Y-65082555D01*
X122125000Y-95500000D02*
X122125000Y-94225000D01*
X128300000Y-90775000D02*
X126962500Y-89437500D01*
X92112500Y-99312500D02*
X92125000Y-99300000D01*
X203175000Y-71612500D02*
X203175000Y-70912954D01*
X202712500Y-33500000D02*
X207390686Y-38178186D01*
X176400000Y-50325000D02*
X178450000Y-52375000D01*
%TO.N,Net-(D13-K)*%
X121700000Y-47025000D02*
X121700000Y-45125000D01*
%TO.N,Net-(D14-K)*%
X177950000Y-94075000D02*
X178175000Y-94075000D01*
X178175000Y-94075000D02*
X179050000Y-93200000D01*
%TO.N,Net-(D15-K)*%
X186400000Y-102675000D02*
X186400000Y-104125000D01*
%TO.N,LED_LINE_9*%
X146300000Y-67400000D02*
X133600000Y-54700000D01*
X123525000Y-47025000D02*
X124325000Y-47025000D01*
X92250000Y-38675000D02*
X91950000Y-38975000D01*
X207175000Y-67831371D02*
X207779313Y-67227057D01*
X190000000Y-56925000D02*
X177675000Y-56925000D01*
X204812500Y-73650000D02*
X205677732Y-73650000D01*
X207175000Y-72152731D02*
X207175000Y-67831371D01*
X71975000Y-59012500D02*
X71975000Y-58175000D01*
X124325000Y-47025000D02*
X126025000Y-48725000D01*
X199840685Y-56925000D02*
X190000000Y-56925000D01*
X71975000Y-58175000D02*
X71725000Y-57925000D01*
X92250000Y-34300000D02*
X92250000Y-38675000D01*
X207779313Y-64863627D02*
X199840685Y-56925000D01*
X177675000Y-56925000D02*
X167200000Y-67400000D01*
X207779313Y-67227057D02*
X207779313Y-64863627D01*
X167200000Y-67400000D02*
X146300000Y-67400000D01*
X205677732Y-73650000D02*
X207175000Y-72152731D01*
%TO.N,Net-(D17-K)*%
X199325000Y-103225000D02*
X199325000Y-102587500D01*
X199325000Y-102587500D02*
X198775000Y-102037500D01*
%TO.N,Net-(D19-K)*%
X217350000Y-99200000D02*
X214112500Y-99200000D01*
X214112500Y-99200000D02*
X212850000Y-97937500D01*
%TO.N,Net-(D20-K)*%
X230337500Y-92000000D02*
X230450000Y-92112500D01*
X228775000Y-92000000D02*
X230337500Y-92000000D01*
%TO.N,LED_LINE_10*%
X71125000Y-57275000D02*
X71675000Y-56725000D01*
X78800000Y-48400000D02*
X79762500Y-49362500D01*
X206775000Y-71987045D02*
X206775000Y-67665686D01*
X103412500Y-33350000D02*
X103412500Y-38387500D01*
X84800000Y-41550000D02*
X85875000Y-41550000D01*
X71675000Y-56725000D02*
X72400000Y-56725000D01*
X77475000Y-48400000D02*
X78800000Y-48400000D01*
X145568997Y-67800000D02*
X133048999Y-55280002D01*
X204812500Y-73250000D02*
X205512046Y-73250000D01*
X129831497Y-46787500D02*
X127193997Y-49425000D01*
X207379313Y-65029313D02*
X199675000Y-57325000D01*
X206775000Y-67665686D02*
X207379313Y-67061372D01*
X177875000Y-57325000D02*
X167400000Y-67800000D01*
X205512046Y-73250000D02*
X206775000Y-71987045D01*
X133725000Y-46787500D02*
X129831497Y-46787500D01*
X103412500Y-38387500D02*
X102175000Y-39625000D01*
X85875000Y-41550000D02*
X86725000Y-42400000D01*
X72625000Y-92450000D02*
X72625000Y-92950000D01*
X207379313Y-67061372D02*
X207379313Y-65029313D01*
X167400000Y-67800000D02*
X145568997Y-67800000D01*
X199675000Y-57325000D02*
X177875000Y-57325000D01*
X73500000Y-91575000D02*
X72625000Y-92450000D01*
%TO.N,Net-(D21-K)*%
X235175000Y-60850000D02*
X235300000Y-60725000D01*
X235300000Y-60725000D02*
X237300000Y-60725000D01*
%TO.N,Net-(D23-K)*%
X233912500Y-82687500D02*
X233900000Y-82700000D01*
X235425000Y-82687500D02*
X233912500Y-82687500D01*
%TO.N,Net-(D24-K)*%
X237212500Y-71725000D02*
X237525000Y-71412500D01*
X235650000Y-71725000D02*
X237212500Y-71725000D01*
%TO.N,LED_LINE_11*%
X199566802Y-57800000D02*
X178000000Y-57800000D01*
X66350000Y-81812500D02*
X71037500Y-81812500D01*
X132300000Y-53587500D02*
X132300000Y-55661814D01*
X206375000Y-71821360D02*
X206375000Y-67500000D01*
X206979313Y-65212511D02*
X199566802Y-57800000D01*
X104780000Y-40870552D02*
X106184448Y-42275000D01*
X206375000Y-67500000D02*
X206979313Y-66895687D01*
X206979313Y-66895687D02*
X206979313Y-65212511D01*
X136562500Y-49325000D02*
X132300000Y-53587500D01*
X114925000Y-48775000D02*
X114625000Y-49075000D01*
X132300000Y-55661814D02*
X132465751Y-55827565D01*
X107825000Y-42275000D02*
X108662500Y-43112500D01*
X76475000Y-53875000D02*
X76462500Y-53887500D01*
X92423529Y-42775000D02*
X91800000Y-42775000D01*
X94575000Y-40623529D02*
X92423529Y-42775000D01*
X71037500Y-81812500D02*
X73400000Y-79450000D01*
X205346360Y-72850000D02*
X206375000Y-71821360D01*
X114925000Y-43600000D02*
X114925000Y-48775000D01*
X204812500Y-72850000D02*
X205346360Y-72850000D01*
X106184448Y-42275000D02*
X107825000Y-42275000D01*
X94575000Y-38375000D02*
X94575000Y-40623529D01*
X104780000Y-38405000D02*
X104780000Y-40870552D01*
X144838186Y-68200000D02*
X132465751Y-55827565D01*
X178000000Y-57800000D02*
X167600000Y-68200000D01*
X167600000Y-68200000D02*
X144838186Y-68200000D01*
X76475000Y-52512500D02*
X76475000Y-53875000D01*
X104750000Y-38375000D02*
X104780000Y-38405000D01*
%TO.N,Net-(D25-K)*%
X230675000Y-52600000D02*
X229925000Y-53350000D01*
X230675000Y-51750000D02*
X230675000Y-52600000D01*
%TO.N,Net-(D26-K)*%
X221375000Y-44325000D02*
X221375000Y-44987500D01*
X221375000Y-44987500D02*
X221575000Y-45187500D01*
%TO.N,Net-(D27-K)*%
X200900000Y-33512500D02*
X200887500Y-33500000D01*
X200900000Y-34950000D02*
X200900000Y-33512500D01*
%TO.N,LED_LINE_12*%
X199401116Y-58200000D02*
X178200000Y-58200000D01*
X144100000Y-68600000D02*
X131900000Y-56400000D01*
X167800000Y-68600000D02*
X144100000Y-68600000D01*
X178200000Y-58200000D02*
X167800000Y-68600000D01*
X70700000Y-69912500D02*
X74187500Y-69912500D01*
X204812500Y-72450000D02*
X205975000Y-71287500D01*
X85852800Y-44475000D02*
X86626400Y-45248600D01*
X206579313Y-65378197D02*
X199401116Y-58200000D01*
X205975000Y-71287500D02*
X205975000Y-67334315D01*
X84387500Y-44475000D02*
X85852800Y-44475000D01*
X113525000Y-48425000D02*
X113225000Y-48725000D01*
X205975000Y-67334315D02*
X206579313Y-66730002D01*
X206579313Y-66730002D02*
X206579313Y-65378197D01*
X113525000Y-44175000D02*
X113525000Y-48425000D01*
X124525000Y-48125000D02*
X124525000Y-50825000D01*
X74187500Y-69912500D02*
X74200000Y-69900000D01*
%TO.N,Net-(D28-K)*%
X188875000Y-37200000D02*
X188875000Y-37112500D01*
X188875000Y-37112500D02*
X190212500Y-35775000D01*
%TO.N,Net-(D29-K)*%
X174500000Y-50400000D02*
X174575000Y-50325000D01*
X172975000Y-50400000D02*
X174500000Y-50400000D01*
%TO.N,Net-(D30-K)*%
X163437500Y-55112500D02*
X163437500Y-50350000D01*
X163425000Y-55125000D02*
X163437500Y-55112500D01*
%TO.N,LED_LINE_1*%
X184252942Y-58675001D02*
X184240639Y-58662698D01*
X197347057Y-58675000D02*
X184252942Y-58675001D01*
X233779772Y-62550000D02*
X231900000Y-64429772D01*
X230450000Y-93937500D02*
X229187617Y-95199883D01*
X188225000Y-101515942D02*
X189400000Y-100340942D01*
X201175000Y-62502942D02*
X197347057Y-58675000D01*
X201175000Y-71612500D02*
X201175000Y-62502942D01*
X229187617Y-95199883D02*
X221462908Y-95199883D01*
X237300000Y-62550000D02*
X233779772Y-62550000D01*
X184240639Y-58662698D02*
X182636775Y-58662698D01*
X182636775Y-58662698D02*
X182495267Y-58804206D01*
X188225000Y-104125000D02*
X188225000Y-101515942D01*
%TO.N,Net-(D31-K)*%
X132400000Y-87925000D02*
X131300000Y-87925000D01*
%TO.N,Net-(D32-K)*%
X126525000Y-96400000D02*
X126525000Y-94987500D01*
%TO.N,Net-(D33-K)*%
X104300000Y-101762500D02*
X103712500Y-101175000D01*
X104300000Y-102600000D02*
X104300000Y-101762500D01*
%TO.N,LED_LINE_2*%
X200775000Y-71612500D02*
X200775000Y-62668628D01*
X230568311Y-80862500D02*
X229705811Y-80000000D01*
X229325000Y-55775000D02*
X229925000Y-55175000D01*
X197181370Y-59075000D02*
X184418628Y-59075000D01*
X221850000Y-95900000D02*
X220750000Y-95900000D01*
X166004259Y-85608241D02*
X168550000Y-85608241D01*
X188838799Y-101800000D02*
X190750000Y-99888799D01*
X183338548Y-59075000D02*
X183150850Y-59262698D01*
X200775000Y-62668628D02*
X197181370Y-59075000D01*
X220750000Y-95900000D02*
X220058386Y-95208386D01*
X161600000Y-90012500D02*
X166004259Y-85608241D01*
X229325000Y-56550000D02*
X229325000Y-55775000D01*
X201950000Y-103125000D02*
X201950000Y-101600000D01*
X188825000Y-101800000D02*
X188838799Y-101800000D01*
X184418628Y-59075000D02*
X183338548Y-59075000D01*
X235425000Y-80862500D02*
X230568311Y-80862500D01*
%TO.N,Net-(D34-K)*%
X93925000Y-102025000D02*
X93925000Y-100537500D01*
X93925000Y-100537500D02*
X93937500Y-100525000D01*
%TO.N,Net-(D35-K)*%
X66387500Y-83600000D02*
X66350000Y-83637500D01*
X68075000Y-83600000D02*
X66387500Y-83600000D01*
%TO.N,Net-(D36-K)*%
X70687500Y-71750000D02*
X70700000Y-71737500D01*
X69325000Y-71750000D02*
X70687500Y-71750000D01*
%TO.N,Net-(D16-K)*%
X185600000Y-50375000D02*
X182662500Y-50375000D01*
%TO.N,Net-(D16-A)*%
X198352500Y-48137500D02*
X186075000Y-48137500D01*
X186162500Y-48137500D02*
X188400000Y-50375000D01*
X186075000Y-48137500D02*
X186162500Y-48137500D01*
X178200962Y-34750000D02*
X178200962Y-40263462D01*
X199990000Y-46500000D02*
X198352500Y-48137500D01*
X178200962Y-40263462D02*
X186075000Y-48137500D01*
%TO.N,Net-(D18-K)*%
X112750000Y-93500000D02*
X110012500Y-93500000D01*
%TO.N,Net-(D18-A)*%
X122525000Y-105475000D02*
X117850000Y-100800000D01*
X115545000Y-93505000D02*
X115550000Y-93500000D01*
X115545000Y-97375000D02*
X117850000Y-97375000D01*
X117850000Y-100800000D02*
X117850000Y-97375000D01*
X123024038Y-105475000D02*
X122525000Y-105475000D01*
X115545000Y-97375000D02*
X115545000Y-93505000D01*
%TO.N,LED_LINE_3*%
X232025000Y-78325000D02*
X231785367Y-78325000D01*
X166759066Y-90787500D02*
X172048704Y-85497862D01*
X200375000Y-62834314D02*
X197015685Y-59475000D01*
X184584314Y-59475000D02*
X184056827Y-59475000D01*
X166000000Y-90787500D02*
X166759066Y-90787500D01*
X223665348Y-89700000D02*
X223657674Y-89707674D01*
X200639364Y-100212500D02*
X201025000Y-100598136D01*
X221575000Y-48200000D02*
X221850000Y-48475000D01*
X221575000Y-47012500D02*
X221575000Y-48200000D01*
X184056827Y-59475000D02*
X183624170Y-59907657D01*
X226900000Y-89700000D02*
X223665348Y-89700000D01*
X197015685Y-59475000D02*
X184584314Y-59475000D01*
X230000000Y-68025000D02*
X229975000Y-68050000D01*
X200375000Y-71612500D02*
X200375000Y-62834314D01*
X198775000Y-100212500D02*
X200639364Y-100212500D01*
X232700000Y-68025000D02*
X230000000Y-68025000D01*
X231785367Y-78325000D02*
X229635367Y-76175000D01*
%TO.N,Net-(D37-K)*%
X75000000Y-50700000D02*
X76462500Y-50700000D01*
X76462500Y-50700000D02*
X76475000Y-50687500D01*
%TO.N,Net-(D38-K)*%
X81100000Y-44475000D02*
X82562500Y-44475000D01*
%TO.N,Net-(D39-K)*%
X101587500Y-33350000D02*
X101587500Y-34787500D01*
X101587500Y-34787500D02*
X101600000Y-34800000D01*
%TO.N,LED_LINE_4*%
X199975000Y-63000000D02*
X196850000Y-59875000D01*
X196850000Y-59875000D02*
X184750000Y-59875000D01*
X212850000Y-96112500D02*
X212850000Y-96275735D01*
X237525000Y-69587500D02*
X228912500Y-69587500D01*
X199975000Y-71612500D02*
X199975000Y-63000000D01*
X212850000Y-96275735D02*
X211209825Y-97915910D01*
X180875000Y-93200000D02*
X180875000Y-92100000D01*
X230500000Y-57650000D02*
X228450000Y-57650000D01*
X228450000Y-57650000D02*
X227234921Y-58865079D01*
X228912500Y-69587500D02*
X228900000Y-69600000D01*
X184750000Y-59875000D02*
X184025000Y-60600000D01*
X180875000Y-92100000D02*
X181369774Y-91605226D01*
%TO.N,Net-(D40-K)*%
X112100000Y-40925000D02*
X112100000Y-40875000D01*
X113525000Y-42350000D02*
X112100000Y-40925000D01*
%TO.N,Net-(D41-K)*%
X133612500Y-48725000D02*
X133725000Y-48612500D01*
X132200000Y-48725000D02*
X133612500Y-48725000D01*
%TO.N,Net-(D42-K)*%
X138775000Y-54775000D02*
X138387500Y-54387500D01*
X138387500Y-54387500D02*
X138387500Y-49325000D01*
%TO.N,Net-(D22-K)*%
X221500000Y-93575000D02*
X224062500Y-93575000D01*
X224062500Y-93575000D02*
X224087500Y-93550000D01*
%TO.N,Net-(D22-A)*%
X218695000Y-93580000D02*
X218700000Y-93575000D01*
X228492615Y-103206729D02*
X226935886Y-101650000D01*
X218695000Y-97225000D02*
X218695000Y-93580000D01*
X226935886Y-101650000D02*
X223625000Y-101650000D01*
X221162500Y-99187500D02*
X221162500Y-97225000D01*
X223625000Y-101650000D02*
X221162500Y-99187500D01*
X218695000Y-97225000D02*
X221162500Y-97225000D01*
%TO.N,RP1_QSPI_CS*%
X197600000Y-72112500D02*
X197600000Y-68071814D01*
X194951839Y-67114339D02*
X193900000Y-66062500D01*
X195368996Y-66697182D02*
X194951839Y-67114339D01*
X197937500Y-72450000D02*
X197600000Y-72112500D01*
X197600000Y-68071814D02*
X196384682Y-66856496D01*
X195368996Y-66697182D02*
X196225367Y-66697182D01*
X193900000Y-66062500D02*
X193900000Y-64987500D01*
X196362500Y-66834314D02*
X196362500Y-64812500D01*
X196225367Y-66697182D02*
X196362500Y-66834314D01*
X196384682Y-66856496D02*
X196362500Y-66834314D01*
%TO.N,RP1_QSPI_SD1*%
X197200000Y-68237500D02*
X196059682Y-67097182D01*
X195676104Y-67097182D02*
X195305393Y-67467893D01*
X197937500Y-72850000D02*
X197403640Y-72850000D01*
X196059682Y-67097182D02*
X195676104Y-67097182D01*
X197200000Y-72646360D02*
X197200000Y-68237500D01*
X197403640Y-72850000D02*
X197200000Y-72646360D01*
%TO.N,RP1_QSPI_SD2*%
X195288236Y-68511396D02*
X195288236Y-68192156D01*
X196800000Y-70023160D02*
X195288236Y-68511396D01*
X195288236Y-68192156D02*
X195658946Y-67821446D01*
X197237954Y-73250000D02*
X196800000Y-72812045D01*
X197937500Y-73250000D02*
X197237954Y-73250000D01*
X196800000Y-72812045D02*
X196800000Y-70023160D01*
%TO.N,RP1_QSPI_SD0*%
X196400000Y-72977730D02*
X196400000Y-71037500D01*
X197937500Y-73650000D02*
X197072268Y-73649999D01*
X195975735Y-71037499D02*
X195975734Y-71037499D01*
X195445403Y-71143565D02*
X195445404Y-71143566D01*
X195517399Y-70154899D02*
X194032601Y-70154899D01*
X195975734Y-71037499D02*
X195869668Y-71143566D01*
X195551470Y-70188970D02*
X195517399Y-70154899D01*
X195551469Y-70188969D02*
X195551470Y-70188970D01*
X195445403Y-70719300D02*
X195551470Y-70613234D01*
X195445403Y-70719301D02*
X195445403Y-70719300D01*
X197072268Y-73649999D02*
X196400000Y-72977730D01*
X195445404Y-71143566D02*
G75*
G02*
X195445370Y-70719268I212096J212166D01*
G01*
X196400000Y-71037500D02*
G75*
G03*
X195975769Y-71037532I-212100J-212100D01*
G01*
X195869668Y-71143566D02*
G75*
G02*
X195445367Y-71143601I-212168J212166D01*
G01*
X195551470Y-70613234D02*
G75*
G03*
X195551471Y-70188967I-212170J212134D01*
G01*
%TO.N,RP1_QSPI_SCLK*%
X196000000Y-73143415D02*
X196000000Y-72312500D01*
X197937500Y-74050000D02*
X196906582Y-74049999D01*
X196906582Y-74049999D02*
X196000000Y-73143415D01*
X196000000Y-72312500D02*
X194566663Y-70879163D01*
X193308337Y-70172055D02*
X193679047Y-69801345D01*
X193308337Y-70491295D02*
X193308337Y-70172055D01*
X193696205Y-70879163D02*
X193308337Y-70491295D01*
X194566663Y-70879163D02*
X193696205Y-70879163D01*
%TO.N,RP1_QSPI_SD3*%
X195600000Y-73309103D02*
X195600000Y-72712500D01*
X197937500Y-74450000D02*
X196740896Y-74449999D01*
X194166663Y-71279163D02*
X193530519Y-71279163D01*
X195600000Y-72712500D02*
X194166663Y-71279163D01*
X193530519Y-71279163D02*
X192908337Y-70656981D01*
X192908337Y-69864949D02*
X193325494Y-69447792D01*
X192908337Y-70656981D02*
X192908337Y-69864949D01*
X196740896Y-74449999D02*
X195600000Y-73309103D01*
%TO.N,RP1_SWCLK*%
X208615686Y-79475000D02*
X209900000Y-79475000D01*
X207350000Y-77722268D02*
X207350000Y-78209314D01*
X204812500Y-76050000D02*
X205677732Y-76050000D01*
X207350000Y-78209314D02*
X208615686Y-79475000D01*
X205677732Y-76050000D02*
X207350000Y-77722268D01*
%TO.N,RP1_SWD*%
X206950000Y-77887954D02*
X205512046Y-76450000D01*
X209900000Y-80775000D02*
X209350000Y-80775000D01*
X206950000Y-78374999D02*
X206950000Y-77887954D01*
X205512046Y-76450000D02*
X204812500Y-76450000D01*
X209350000Y-80775000D02*
X206950000Y-78374999D01*
%TO.N,SAO4_TX*%
X115545000Y-105810000D02*
X116095000Y-106360000D01*
X115545000Y-102325000D02*
X115545000Y-105810000D01*
%TO.N,SAO4_RX*%
X112900000Y-104925000D02*
X113765579Y-104925000D01*
X111735000Y-103760000D02*
X112900000Y-104925000D01*
X114931400Y-107736400D02*
X116095000Y-108900000D01*
X114931400Y-106090821D02*
X114931400Y-107736400D01*
X111735000Y-102325000D02*
X111735000Y-103760000D01*
X113765579Y-104925000D02*
X114931400Y-106090821D01*
%TO.N,SAO2_TX*%
X107990000Y-43900001D02*
X107314999Y-43225000D01*
X107990000Y-44875000D02*
X107990000Y-43900001D01*
X100705000Y-43225000D02*
X99845000Y-44085000D01*
X107314999Y-43225000D02*
X100705000Y-43225000D01*
%TO.N,SAO2_RX*%
X104180000Y-44875000D02*
X102430000Y-46625000D01*
X102430000Y-46625000D02*
X99845000Y-46625000D01*
%TO.N,SAO3_TX*%
X197455000Y-44085000D02*
X195870000Y-44085000D01*
X199990000Y-41550000D02*
X197455000Y-44085000D01*
%TO.N,SAO3_RX*%
X203800000Y-42050000D02*
X201400000Y-44450000D01*
X198045000Y-44450000D02*
X195870000Y-46625000D01*
X203800000Y-41550000D02*
X203800000Y-42050000D01*
X201400000Y-44450000D02*
X198045000Y-44450000D01*
%TO.N,Net-(J6-Pin_2)*%
X89275000Y-43725000D02*
X91125000Y-41875000D01*
D66*
X164679247Y-96872693D02*
X167513484Y-94038456D01*
D67*
X203180001Y-44875000D02*
X205225000Y-44875000D01*
X105450000Y-39925000D02*
X105450000Y-40899999D01*
X202530000Y-45525001D02*
X203180001Y-44875000D01*
X216155000Y-97225000D02*
X216155000Y-95355000D01*
D66*
X164679247Y-97067320D02*
X164679247Y-96872693D01*
D67*
X106425001Y-41875000D02*
X108877944Y-41875000D01*
X218300000Y-85300000D02*
X222125000Y-85300000D01*
X91125000Y-41875000D02*
X92475000Y-41875000D01*
X202530000Y-46500000D02*
X202530000Y-45525001D01*
X113005000Y-95455000D02*
X113000000Y-95450000D01*
X105450000Y-40899999D02*
X106425001Y-41875000D01*
X205225000Y-44875000D02*
X206212500Y-43887500D01*
X216155000Y-95355000D02*
X214187500Y-93387500D01*
X222125000Y-85300000D02*
X222200000Y-85375000D01*
X113005000Y-97375000D02*
X113005000Y-95455000D01*
%TO.N,Net-(J6-Pin_3)*%
X90500000Y-40675000D02*
X92500000Y-40675000D01*
X202310001Y-44475000D02*
X204475000Y-44475000D01*
X114275000Y-97375000D02*
X114275000Y-95425000D01*
X89275000Y-41900000D02*
X90500000Y-40675000D01*
X217425000Y-97225000D02*
X217425000Y-95100000D01*
X204475000Y-44475000D02*
X206486028Y-42463972D01*
X201260000Y-45525001D02*
X202310001Y-44475000D01*
X106720000Y-40899999D02*
X107020001Y-41200000D01*
X217425000Y-95100000D02*
X215798528Y-93473528D01*
X108850000Y-41200000D02*
X109363235Y-40686765D01*
D68*
X173565515Y-102424141D02*
X169841374Y-98700000D01*
D67*
X222702056Y-86570000D02*
X223450000Y-85822056D01*
X106720000Y-39925000D02*
X106720000Y-40899999D01*
X218300000Y-86570000D02*
X222702056Y-86570000D01*
X107020001Y-41200000D02*
X108850000Y-41200000D01*
X201260000Y-46500000D02*
X201260000Y-45525001D01*
D68*
X169841374Y-98700000D02*
X166625000Y-98700000D01*
D67*
%TO.N,SAO1_TX*%
X218695000Y-102175000D02*
X218695000Y-105960000D01*
X218695000Y-105960000D02*
X219095000Y-106360000D01*
%TO.N,SAO1_RX*%
X216100000Y-104975000D02*
X217050000Y-104975000D01*
X217775000Y-107580000D02*
X219095000Y-108900000D01*
X217050000Y-104975000D02*
X217775000Y-105700000D01*
X214885000Y-103760000D02*
X216100000Y-104975000D01*
X214885000Y-102175000D02*
X214885000Y-103760000D01*
X217775000Y-105700000D02*
X217775000Y-107580000D01*
%TO.N,Net-(J8-CC1)*%
X133675000Y-92500504D02*
X133675000Y-90187500D01*
X134252363Y-93077867D02*
X133675000Y-92500504D01*
%TO.N,Net-(J8-D+-PadA6)*%
X132764685Y-92960928D02*
X132166283Y-93445505D01*
X133175000Y-89175000D02*
X132403450Y-89946550D01*
X132140413Y-93691636D02*
X132678482Y-94356096D01*
X133455628Y-93726776D02*
X132842041Y-92969058D01*
X132403450Y-89946550D02*
X132403450Y-93253450D01*
X142112500Y-88425000D02*
X141362500Y-89175000D01*
X141362500Y-89175000D02*
X133175000Y-89175000D01*
X132842041Y-92969058D02*
X132764685Y-92960928D01*
X132166283Y-93445505D02*
X132140413Y-93691636D01*
%TO.N,Net-(J8-D--PadA7)*%
X133680643Y-94799153D02*
X133067055Y-94041436D01*
X134810241Y-94600000D02*
X138162500Y-94600000D01*
X134457789Y-94169833D02*
X134450397Y-94240156D01*
X133844201Y-93412116D02*
X134457789Y-94169833D01*
X134450397Y-94240156D02*
X134810241Y-94600000D01*
X138162500Y-94600000D02*
X142112500Y-90650000D01*
X133750966Y-94806545D02*
X133680643Y-94799153D01*
X134450397Y-94240156D02*
X133750966Y-94806545D01*
%TO.N,Net-(J8-CC2)*%
X130900000Y-93984079D02*
X131901337Y-94985416D01*
X130900000Y-91750000D02*
X130900000Y-93984079D01*
D66*
%TO.N,Net-(Q1-D)*%
X115935000Y-85725000D02*
X83575000Y-85725000D01*
X116860000Y-86650000D02*
X115935000Y-85725000D01*
X118110000Y-86650000D02*
X116860000Y-86650000D01*
D68*
X83525000Y-85775000D02*
X83575000Y-85725000D01*
D67*
%TO.N,RUN*%
X209000000Y-81575000D02*
X212825000Y-81575000D01*
X216325000Y-78062500D02*
X218000000Y-76387500D01*
X204812500Y-76850000D02*
X205346360Y-76850000D01*
X206100000Y-77603640D02*
X206100000Y-78675000D01*
X218000000Y-76387500D02*
X218000000Y-73500000D01*
X216325000Y-78062500D02*
X212825000Y-81562500D01*
X205346360Y-76850000D02*
X206100000Y-77603640D01*
X212825000Y-81562500D02*
X212825000Y-81575000D01*
X218000000Y-73500000D02*
X218000000Y-67740000D01*
X206100000Y-78675000D02*
X209000000Y-81575000D01*
%TO.N,RP1_USB_D-*%
X143937500Y-90650000D02*
X158137500Y-76450000D01*
X158137500Y-76450000D02*
X197937500Y-76450000D01*
%TO.N,RP1_USB_D+*%
X156312500Y-76050000D02*
X143937500Y-88425000D01*
X197937500Y-76050000D02*
X156312500Y-76050000D01*
%TO.N,~{RP1_USB_BOOT}*%
X193900000Y-63162500D02*
X191082500Y-63162500D01*
X188500000Y-65745000D02*
X188500000Y-66620000D01*
X188500000Y-66620000D02*
X188500000Y-72380000D01*
X191082500Y-63162500D02*
X188500000Y-65745000D01*
D68*
%TO.N,Net-(R28-Pad2)*%
X168911516Y-95211544D02*
X168911516Y-96129359D01*
X168911516Y-96129359D02*
X174837587Y-102055430D01*
X174837587Y-102055430D02*
X174837587Y-103219020D01*
D67*
%TO.N,RP1_CAN_RX*%
X213350000Y-84030000D02*
X210332756Y-84030000D01*
X204812500Y-78509744D02*
X204812500Y-77650000D01*
X210332756Y-84030000D02*
X204812500Y-78509744D01*
%TO.N,RP1_CAN_TX*%
X203975000Y-78487500D02*
X203975000Y-78925000D01*
X213004448Y-87840000D02*
X203975000Y-78810552D01*
X213350000Y-87840000D02*
X213004448Y-87840000D01*
X203975000Y-78810552D02*
X203975000Y-78487500D01*
%TD*%
%TA.AperFunction,Conductor*%
%TO.N,Net-(U5-L2)*%
G36*
X80422715Y-101373228D02*
G01*
X80480568Y-101393140D01*
X80515669Y-101443255D01*
X80519999Y-101472213D01*
X80519999Y-101526000D01*
X80501092Y-101584191D01*
X80451592Y-101620155D01*
X80420999Y-101625000D01*
X79699999Y-101625000D01*
X79652790Y-101654050D01*
X79628145Y-101664914D01*
X79619440Y-101667405D01*
X79567272Y-101690574D01*
X79567269Y-101690575D01*
X77912951Y-102721529D01*
X77895739Y-102734710D01*
X77887435Y-102740423D01*
X77773865Y-102810314D01*
X77721978Y-102825000D01*
X75264449Y-102825000D01*
X75206258Y-102806093D01*
X75196362Y-102797869D01*
X74780913Y-102404286D01*
X74751673Y-102350540D01*
X74750000Y-102332417D01*
X74750000Y-101375728D01*
X74768907Y-101317537D01*
X74818407Y-101281573D01*
X74850708Y-101276743D01*
X80422715Y-101373228D01*
G37*
%TD.AperFunction*%
%TD*%
%TA.AperFunction,Conductor*%
%TO.N,Common_Power*%
G36*
X80325476Y-96251983D02*
G01*
X80325483Y-96251996D01*
X80325485Y-96252458D01*
X80325715Y-96265490D01*
X80325541Y-96265493D01*
X80325621Y-96283811D01*
X80319500Y-96322465D01*
X80319500Y-99612699D01*
X80322700Y-99648818D01*
X80328817Y-99683070D01*
X80330518Y-99691559D01*
X80330520Y-99691562D01*
X80369732Y-99774176D01*
X80369734Y-99774178D01*
X80407612Y-99822228D01*
X80454826Y-99865871D01*
X80476000Y-99880019D01*
X80513880Y-99928069D01*
X80519999Y-99962335D01*
X80519999Y-100026000D01*
X80501092Y-100084191D01*
X80451592Y-100120155D01*
X80420999Y-100125000D01*
X79730971Y-100125000D01*
X79674551Y-100107350D01*
X78192580Y-99079531D01*
X78155539Y-99030831D01*
X78150000Y-98998181D01*
X78150000Y-96225000D01*
X80325000Y-96225000D01*
X80325476Y-96251983D01*
G37*
%TD.AperFunction*%
%TD*%
%TA.AperFunction,Conductor*%
%TO.N,Common_Power*%
G36*
X80791866Y-89469685D02*
G01*
X80837621Y-89522489D01*
X80847565Y-89591647D01*
X80830365Y-89639098D01*
X80813455Y-89666511D01*
X80813452Y-89666518D01*
X80760144Y-89827393D01*
X80750000Y-89926677D01*
X80750000Y-90100000D01*
X81826000Y-90100000D01*
X81893039Y-90119685D01*
X81938794Y-90172489D01*
X81950000Y-90224000D01*
X81950000Y-91449999D01*
X81973308Y-91449999D01*
X81973322Y-91449998D01*
X82072607Y-91439855D01*
X82233481Y-91386547D01*
X82233488Y-91386544D01*
X82341528Y-91319903D01*
X82408920Y-91301462D01*
X82475584Y-91322384D01*
X82520354Y-91376025D01*
X82530620Y-91426657D01*
X82526216Y-91875858D01*
X82505875Y-91942701D01*
X82452625Y-91987936D01*
X82400860Y-91998635D01*
X80250000Y-91975000D01*
X80325000Y-96225000D01*
X78150000Y-96225000D01*
X78150000Y-90600000D01*
X80750001Y-90600000D01*
X80750001Y-90773322D01*
X80760144Y-90872607D01*
X80813452Y-91033481D01*
X80813457Y-91033492D01*
X80902424Y-91177728D01*
X80902427Y-91177732D01*
X81022267Y-91297572D01*
X81022271Y-91297575D01*
X81166507Y-91386542D01*
X81166518Y-91386547D01*
X81327393Y-91439855D01*
X81426683Y-91449999D01*
X81450000Y-91449998D01*
X81450000Y-90600000D01*
X80750001Y-90600000D01*
X78150000Y-90600000D01*
X78150000Y-89574000D01*
X78169685Y-89506961D01*
X78222489Y-89461206D01*
X78274000Y-89450000D01*
X80724827Y-89450000D01*
X80791866Y-89469685D01*
G37*
%TD.AperFunction*%
%TD*%
%TA.AperFunction,Conductor*%
%TO.N,Net-(U5-L1)*%
G36*
X77824766Y-99141293D02*
G01*
X79700000Y-100375000D01*
X80420999Y-100375000D01*
X80479190Y-100393907D01*
X80515154Y-100443407D01*
X80519999Y-100474000D01*
X80519999Y-100526896D01*
X80501092Y-100585087D01*
X80451592Y-100621051D01*
X80421856Y-100625892D01*
X74849857Y-100674135D01*
X74791505Y-100655732D01*
X74755114Y-100606546D01*
X74750000Y-100575139D01*
X74750000Y-99616008D01*
X74768907Y-99557817D01*
X74778996Y-99546004D01*
X75171004Y-99153996D01*
X75225521Y-99126219D01*
X75241008Y-99125000D01*
X77770355Y-99125000D01*
X77824766Y-99141293D01*
G37*
%TD.AperFunction*%
%TD*%
%TA.AperFunction,Conductor*%
%TO.N,GND*%
G36*
X82082932Y-96219567D02*
G01*
X82119665Y-96268499D01*
X82125000Y-96300559D01*
X82125000Y-99612691D01*
X82106093Y-99670882D01*
X82081002Y-99695006D01*
X81997891Y-99750539D01*
X81997886Y-99750544D01*
X81939762Y-99837533D01*
X81939759Y-99837540D01*
X81924501Y-99914243D01*
X81924500Y-99914253D01*
X81924500Y-100091051D01*
X81924501Y-100091058D01*
X81939759Y-100167769D01*
X81939759Y-100167770D01*
X81939760Y-100167771D01*
X81959726Y-100197653D01*
X81976334Y-100256541D01*
X81959727Y-100307653D01*
X81939761Y-100337534D01*
X81939759Y-100337540D01*
X81924501Y-100414243D01*
X81924500Y-100414253D01*
X81924500Y-100591051D01*
X81924501Y-100591058D01*
X81939759Y-100667769D01*
X81939759Y-100667770D01*
X81939760Y-100667771D01*
X81959726Y-100697653D01*
X81976334Y-100756541D01*
X81959727Y-100807653D01*
X81939761Y-100837534D01*
X81939759Y-100837540D01*
X81924501Y-100914243D01*
X81924500Y-100914253D01*
X81924500Y-101091051D01*
X81924501Y-101091058D01*
X81939759Y-101167770D01*
X81939760Y-101167772D01*
X81990102Y-101243114D01*
X81997888Y-101254766D01*
X82039657Y-101282675D01*
X82081002Y-101310301D01*
X82118881Y-101358350D01*
X82125000Y-101392616D01*
X82125000Y-101612691D01*
X82106093Y-101670882D01*
X82081002Y-101695006D01*
X81997891Y-101750539D01*
X81997886Y-101750544D01*
X81939762Y-101837533D01*
X81939759Y-101837540D01*
X81924501Y-101914243D01*
X81924500Y-101914253D01*
X81924500Y-102091051D01*
X81924501Y-102091058D01*
X81939759Y-102167770D01*
X81939760Y-102167772D01*
X81997494Y-102254177D01*
X81997888Y-102254766D01*
X82050765Y-102290097D01*
X82081002Y-102310301D01*
X82118881Y-102358350D01*
X82125000Y-102392616D01*
X82125000Y-107400500D01*
X82106093Y-107458691D01*
X82056593Y-107494655D01*
X82026000Y-107499500D01*
X80829500Y-107499500D01*
X80771309Y-107480593D01*
X80735345Y-107431093D01*
X80730500Y-107400500D01*
X80730500Y-102032341D01*
X80730252Y-102022257D01*
X80730119Y-102019545D01*
X80730000Y-102014696D01*
X80730000Y-101949006D01*
X80730000Y-101949000D01*
X80727470Y-101916856D01*
X80722625Y-101886263D01*
X80722616Y-101886206D01*
X80721853Y-101881719D01*
X80721852Y-101881713D01*
X80720618Y-101878827D01*
X80714555Y-101859232D01*
X80714487Y-101858894D01*
X80710240Y-101837537D01*
X80695171Y-101814985D01*
X80686451Y-101798889D01*
X80685908Y-101797617D01*
X80685904Y-101797612D01*
X80683718Y-101792494D01*
X80685622Y-101791680D01*
X80675096Y-101740236D01*
X80691155Y-101696332D01*
X80710240Y-101667771D01*
X80725500Y-101591055D01*
X80725499Y-101414254D01*
X80710240Y-101337537D01*
X80652112Y-101250542D01*
X80652108Y-101250539D01*
X80568998Y-101195006D01*
X80531119Y-101146956D01*
X80525000Y-101112691D01*
X80525000Y-100892616D01*
X80543907Y-100834425D01*
X80568998Y-100810301D01*
X80582354Y-100801376D01*
X80652112Y-100754766D01*
X80710240Y-100667771D01*
X80725500Y-100591055D01*
X80725499Y-100414254D01*
X80710240Y-100337537D01*
X80690273Y-100307655D01*
X80673665Y-100248768D01*
X80690274Y-100197652D01*
X80710238Y-100167774D01*
X80710238Y-100167773D01*
X80710240Y-100167771D01*
X80725500Y-100091055D01*
X80725499Y-99914254D01*
X80710240Y-99837537D01*
X80710237Y-99837533D01*
X80652113Y-99750544D01*
X80652112Y-99750542D01*
X80652108Y-99750539D01*
X80568998Y-99695006D01*
X80531119Y-99646956D01*
X80525000Y-99612691D01*
X80525000Y-96322465D01*
X80543907Y-96264274D01*
X80593407Y-96228310D01*
X80622451Y-96223477D01*
X82024453Y-96201571D01*
X82082932Y-96219567D01*
G37*
%TD.AperFunction*%
%TD*%
%TA.AperFunction,Conductor*%
%TO.N,+3V3*%
G36*
X80483691Y-101868907D02*
G01*
X80519655Y-101918407D01*
X80524500Y-101949000D01*
X80524500Y-102022398D01*
X80524523Y-102022632D01*
X80525000Y-102032341D01*
X80525000Y-110976000D01*
X80506093Y-111034191D01*
X80456593Y-111070155D01*
X80426000Y-111075000D01*
X78074000Y-111075000D01*
X78015809Y-111056093D01*
X77979845Y-111006593D01*
X77975000Y-110976000D01*
X77975000Y-102979954D01*
X77993907Y-102921763D01*
X78021638Y-102895935D01*
X79675962Y-101864979D01*
X79728322Y-101850000D01*
X80425500Y-101850000D01*
X80483691Y-101868907D01*
G37*
%TD.AperFunction*%
%TD*%
M02*
