%TF.GenerationSoftware,KiCad,Pcbnew,8.0.1*%
%TF.CreationDate,2024-06-19T14:17:48-04:00*%
%TF.ProjectId,CHV_DC32,4348565f-4443-4333-922e-6b696361645f,rev?*%
%TF.SameCoordinates,Original*%
%TF.FileFunction,OtherDrawing,Comment*%
%FSLAX46Y46*%
G04 Gerber Fmt 4.6, Leading zero omitted, Abs format (unit mm)*
G04 Created by KiCad (PCBNEW 8.0.1) date 2024-06-19 14:17:48*
%MOMM*%
%LPD*%
G01*
G04 APERTURE LIST*
%ADD10C,0.150000*%
%ADD11C,0.120000*%
G04 APERTURE END LIST*
D10*
X80144741Y-41403291D02*
X79571165Y-40584139D01*
X79571165Y-40584139D02*
X79766201Y-40447573D01*
X79766201Y-40447573D02*
X79910536Y-40404641D01*
X79910536Y-40404641D02*
X80043177Y-40428029D01*
X80043177Y-40428029D02*
X80136810Y-40478731D01*
X80136810Y-40478731D02*
X80285070Y-40607446D01*
X80285070Y-40607446D02*
X80367010Y-40724468D01*
X80367010Y-40724468D02*
X80437255Y-40907810D01*
X80437255Y-40907810D02*
X80452874Y-41013138D01*
X80452874Y-41013138D02*
X80429486Y-41145779D01*
X80429486Y-41145779D02*
X80339778Y-41266725D01*
X80339778Y-41266725D02*
X80144741Y-41403291D01*
X80312302Y-40065189D02*
X80819397Y-39710118D01*
X80819397Y-39710118D02*
X80764851Y-40213368D01*
X80764851Y-40213368D02*
X80881873Y-40131428D01*
X80881873Y-40131428D02*
X80987201Y-40115809D01*
X80987201Y-40115809D02*
X81053521Y-40127503D01*
X81053521Y-40127503D02*
X81147155Y-40178205D01*
X81147155Y-40178205D02*
X81283720Y-40373241D01*
X81283720Y-40373241D02*
X81299339Y-40478569D01*
X81299339Y-40478569D02*
X81287645Y-40544889D01*
X81287645Y-40544889D02*
X81236944Y-40638523D01*
X81236944Y-40638523D02*
X81002901Y-40802402D01*
X81002901Y-40802402D02*
X80897573Y-40818021D01*
X80897573Y-40818021D02*
X80831253Y-40806327D01*
X81533302Y-39733425D02*
X81427974Y-39749044D01*
X81427974Y-39749044D02*
X81361654Y-39737350D01*
X81361654Y-39737350D02*
X81268020Y-39686649D01*
X81268020Y-39686649D02*
X81240707Y-39647641D01*
X81240707Y-39647641D02*
X81225088Y-39542314D01*
X81225088Y-39542314D02*
X81236782Y-39475993D01*
X81236782Y-39475993D02*
X81287483Y-39382360D01*
X81287483Y-39382360D02*
X81443512Y-39273107D01*
X81443512Y-39273107D02*
X81548840Y-39257488D01*
X81548840Y-39257488D02*
X81615161Y-39269182D01*
X81615161Y-39269182D02*
X81708794Y-39319884D01*
X81708794Y-39319884D02*
X81736107Y-39358891D01*
X81736107Y-39358891D02*
X81751726Y-39464218D01*
X81751726Y-39464218D02*
X81740032Y-39530539D01*
X81740032Y-39530539D02*
X81689331Y-39624172D01*
X81689331Y-39624172D02*
X81533302Y-39733425D01*
X81533302Y-39733425D02*
X81482601Y-39827059D01*
X81482601Y-39827059D02*
X81470907Y-39893379D01*
X81470907Y-39893379D02*
X81486526Y-39998707D01*
X81486526Y-39998707D02*
X81595778Y-40154736D01*
X81595778Y-40154736D02*
X81689412Y-40205437D01*
X81689412Y-40205437D02*
X81755732Y-40217131D01*
X81755732Y-40217131D02*
X81861060Y-40201512D01*
X81861060Y-40201512D02*
X82017089Y-40092259D01*
X82017089Y-40092259D02*
X82067790Y-39998626D01*
X82067790Y-39998626D02*
X82079484Y-39932305D01*
X82079484Y-39932305D02*
X82063865Y-39826978D01*
X82063865Y-39826978D02*
X81954613Y-39670949D01*
X81954613Y-39670949D02*
X81860979Y-39620247D01*
X81860979Y-39620247D02*
X81794659Y-39608553D01*
X81794659Y-39608553D02*
X81689331Y-39624172D01*
X217900532Y-43166937D02*
X218474109Y-42347785D01*
X218474109Y-42347785D02*
X218669145Y-42484351D01*
X218669145Y-42484351D02*
X218758854Y-42605297D01*
X218758854Y-42605297D02*
X218782242Y-42737938D01*
X218782242Y-42737938D02*
X218766623Y-42843266D01*
X218766623Y-42843266D02*
X218696377Y-43026608D01*
X218696377Y-43026608D02*
X218614438Y-43143630D01*
X218614438Y-43143630D02*
X218466178Y-43272345D01*
X218466178Y-43272345D02*
X218372544Y-43323047D01*
X218372544Y-43323047D02*
X218239903Y-43346435D01*
X218239903Y-43346435D02*
X218095569Y-43303503D01*
X218095569Y-43303503D02*
X217900532Y-43166937D01*
X219199627Y-42972062D02*
X219265948Y-42960368D01*
X219265948Y-42960368D02*
X219371275Y-42975987D01*
X219371275Y-42975987D02*
X219566312Y-43112553D01*
X219566312Y-43112553D02*
X219617013Y-43206187D01*
X219617013Y-43206187D02*
X219628707Y-43272507D01*
X219628707Y-43272507D02*
X219613088Y-43377835D01*
X219613088Y-43377835D02*
X219558461Y-43455849D01*
X219558461Y-43455849D02*
X219437515Y-43545558D01*
X219437515Y-43545558D02*
X218641670Y-43685887D01*
X218641670Y-43685887D02*
X219148764Y-44040958D01*
X220424471Y-43713443D02*
X220268442Y-43604190D01*
X220268442Y-43604190D02*
X220163114Y-43588571D01*
X220163114Y-43588571D02*
X220096794Y-43600265D01*
X220096794Y-43600265D02*
X219936840Y-43662661D01*
X219936840Y-43662661D02*
X219788580Y-43791376D01*
X219788580Y-43791376D02*
X219570075Y-44103434D01*
X219570075Y-44103434D02*
X219554456Y-44208762D01*
X219554456Y-44208762D02*
X219566150Y-44275082D01*
X219566150Y-44275082D02*
X219616851Y-44368716D01*
X219616851Y-44368716D02*
X219772880Y-44477969D01*
X219772880Y-44477969D02*
X219878208Y-44493588D01*
X219878208Y-44493588D02*
X219944528Y-44481894D01*
X219944528Y-44481894D02*
X220038162Y-44431192D01*
X220038162Y-44431192D02*
X220174727Y-44236156D01*
X220174727Y-44236156D02*
X220190346Y-44130828D01*
X220190346Y-44130828D02*
X220178652Y-44064508D01*
X220178652Y-44064508D02*
X220127951Y-43970875D01*
X220127951Y-43970875D02*
X219971922Y-43861622D01*
X219971922Y-43861622D02*
X219866594Y-43846003D01*
X219866594Y-43846003D02*
X219800274Y-43857697D01*
X219800274Y-43857697D02*
X219706640Y-43908398D01*
X112900864Y-37326837D02*
X113242884Y-36387145D01*
X113242884Y-36387145D02*
X113466620Y-36468578D01*
X113466620Y-36468578D02*
X113584575Y-36562185D01*
X113584575Y-36562185D02*
X113641497Y-36684253D01*
X113641497Y-36684253D02*
X113653671Y-36790035D01*
X113653671Y-36790035D02*
X113633271Y-36985310D01*
X113633271Y-36985310D02*
X113584411Y-37119552D01*
X113584411Y-37119552D02*
X113474517Y-37282254D01*
X113474517Y-37282254D02*
X113397197Y-37355462D01*
X113397197Y-37355462D02*
X113275129Y-37412384D01*
X113275129Y-37412384D02*
X113124600Y-37408271D01*
X113124600Y-37408271D02*
X112900864Y-37326837D01*
X114471295Y-37188976D02*
X114243282Y-37815438D01*
X114377852Y-36749564D02*
X113909816Y-37339340D01*
X113909816Y-37339340D02*
X114491530Y-37551067D01*
X115256511Y-37120045D02*
X115346006Y-37152618D01*
X115346006Y-37152618D02*
X115419213Y-37229939D01*
X115419213Y-37229939D02*
X115447674Y-37290973D01*
X115447674Y-37290973D02*
X115459848Y-37396754D01*
X115459848Y-37396754D02*
X115439449Y-37592030D01*
X115439449Y-37592030D02*
X115358015Y-37815766D01*
X115358015Y-37815766D02*
X115248121Y-37978469D01*
X115248121Y-37978469D02*
X115170801Y-38051677D01*
X115170801Y-38051677D02*
X115109767Y-38080137D01*
X115109767Y-38080137D02*
X115003985Y-38092311D01*
X115003985Y-38092311D02*
X114914491Y-38059738D01*
X114914491Y-38059738D02*
X114841283Y-37982417D01*
X114841283Y-37982417D02*
X114812822Y-37921383D01*
X114812822Y-37921383D02*
X114800649Y-37815602D01*
X114800649Y-37815602D02*
X114821048Y-37620326D01*
X114821048Y-37620326D02*
X114902481Y-37396590D01*
X114902481Y-37396590D02*
X115012375Y-37233887D01*
X115012375Y-37233887D02*
X115089696Y-37160680D01*
X115089696Y-37160680D02*
X115150730Y-37132219D01*
X115150730Y-37132219D02*
X115256511Y-37120045D01*
X208973288Y-39581273D02*
X209232107Y-38615347D01*
X209232107Y-38615347D02*
X209462089Y-38676971D01*
X209462089Y-38676971D02*
X209587754Y-38759941D01*
X209587754Y-38759941D02*
X209655097Y-38876584D01*
X209655097Y-38876584D02*
X209676444Y-38980901D01*
X209676444Y-38980901D02*
X209673142Y-39177212D01*
X209673142Y-39177212D02*
X209636168Y-39315201D01*
X209636168Y-39315201D02*
X209540873Y-39486863D01*
X209540873Y-39486863D02*
X209470227Y-39566531D01*
X209470227Y-39566531D02*
X209353584Y-39633874D01*
X209353584Y-39633874D02*
X209203270Y-39642897D01*
X209203270Y-39642897D02*
X208973288Y-39581273D01*
X210106040Y-38849517D02*
X210749990Y-39022063D01*
X210749990Y-39022063D02*
X210077203Y-39877066D01*
X225935223Y-91061649D02*
X225116071Y-90488072D01*
X225116071Y-90488072D02*
X225252637Y-90293036D01*
X225252637Y-90293036D02*
X225373583Y-90203327D01*
X225373583Y-90203327D02*
X225506224Y-90179939D01*
X225506224Y-90179939D02*
X225611552Y-90195558D01*
X225611552Y-90195558D02*
X225794894Y-90265804D01*
X225794894Y-90265804D02*
X225911916Y-90347743D01*
X225911916Y-90347743D02*
X226040631Y-90496003D01*
X226040631Y-90496003D02*
X226091333Y-90589637D01*
X226091333Y-90589637D02*
X226114721Y-90722278D01*
X226114721Y-90722278D02*
X226071789Y-90866612D01*
X226071789Y-90866612D02*
X225935223Y-91061649D01*
X225740348Y-89762554D02*
X225728654Y-89696233D01*
X225728654Y-89696233D02*
X225744273Y-89590906D01*
X225744273Y-89590906D02*
X225880839Y-89395869D01*
X225880839Y-89395869D02*
X225974473Y-89345168D01*
X225974473Y-89345168D02*
X226040793Y-89333474D01*
X226040793Y-89333474D02*
X226146121Y-89349093D01*
X226146121Y-89349093D02*
X226224135Y-89403720D01*
X226224135Y-89403720D02*
X226313844Y-89524666D01*
X226313844Y-89524666D02*
X226454173Y-90320511D01*
X226454173Y-90320511D02*
X226809244Y-89813417D01*
X226345163Y-88732746D02*
X226399789Y-88654732D01*
X226399789Y-88654732D02*
X226493423Y-88604031D01*
X226493423Y-88604031D02*
X226559743Y-88592336D01*
X226559743Y-88592336D02*
X226665071Y-88607956D01*
X226665071Y-88607956D02*
X226848413Y-88678201D01*
X226848413Y-88678201D02*
X227043449Y-88814767D01*
X227043449Y-88814767D02*
X227172165Y-88963027D01*
X227172165Y-88963027D02*
X227222866Y-89056660D01*
X227222866Y-89056660D02*
X227234561Y-89122981D01*
X227234561Y-89122981D02*
X227218941Y-89228308D01*
X227218941Y-89228308D02*
X227164315Y-89306323D01*
X227164315Y-89306323D02*
X227070682Y-89357024D01*
X227070682Y-89357024D02*
X227004361Y-89368718D01*
X227004361Y-89368718D02*
X226899034Y-89353099D01*
X226899034Y-89353099D02*
X226715691Y-89282854D01*
X226715691Y-89282854D02*
X226520655Y-89146288D01*
X226520655Y-89146288D02*
X226391939Y-88998028D01*
X226391939Y-88998028D02*
X226341238Y-88904394D01*
X226341238Y-88904394D02*
X226329544Y-88838074D01*
X226329544Y-88838074D02*
X226345163Y-88732746D01*
X162793416Y-81087759D02*
X163500523Y-80380653D01*
X163500523Y-80380653D02*
X163668882Y-80549011D01*
X163668882Y-80549011D02*
X163736225Y-80683698D01*
X163736225Y-80683698D02*
X163736225Y-80818385D01*
X163736225Y-80818385D02*
X163702553Y-80919401D01*
X163702553Y-80919401D02*
X163601538Y-81087759D01*
X163601538Y-81087759D02*
X163500523Y-81188775D01*
X163500523Y-81188775D02*
X163332164Y-81289790D01*
X163332164Y-81289790D02*
X163231149Y-81323462D01*
X163231149Y-81323462D02*
X163096462Y-81323462D01*
X163096462Y-81323462D02*
X162961775Y-81256118D01*
X162961775Y-81256118D02*
X162793416Y-81087759D01*
X164140286Y-81020416D02*
X164578019Y-81458149D01*
X164578019Y-81458149D02*
X164072943Y-81491820D01*
X164072943Y-81491820D02*
X164173958Y-81592836D01*
X164173958Y-81592836D02*
X164207630Y-81693851D01*
X164207630Y-81693851D02*
X164207630Y-81761194D01*
X164207630Y-81761194D02*
X164173958Y-81862210D01*
X164173958Y-81862210D02*
X164005599Y-82030568D01*
X164005599Y-82030568D02*
X163904584Y-82064240D01*
X163904584Y-82064240D02*
X163837240Y-82064240D01*
X163837240Y-82064240D02*
X163736225Y-82030568D01*
X163736225Y-82030568D02*
X163534195Y-81828538D01*
X163534195Y-81828538D02*
X163500523Y-81727523D01*
X163500523Y-81727523D02*
X163500523Y-81660179D01*
X123138350Y-42260223D02*
X123711927Y-41441071D01*
X123711927Y-41441071D02*
X123906963Y-41577637D01*
X123906963Y-41577637D02*
X123996672Y-41698583D01*
X123996672Y-41698583D02*
X124020060Y-41831224D01*
X124020060Y-41831224D02*
X124004441Y-41936552D01*
X124004441Y-41936552D02*
X123934195Y-42119894D01*
X123934195Y-42119894D02*
X123852256Y-42236916D01*
X123852256Y-42236916D02*
X123703996Y-42365631D01*
X123703996Y-42365631D02*
X123610362Y-42416333D01*
X123610362Y-42416333D02*
X123477721Y-42439721D01*
X123477721Y-42439721D02*
X123333387Y-42396789D01*
X123333387Y-42396789D02*
X123138350Y-42260223D01*
X124386582Y-43134244D02*
X123918495Y-42806486D01*
X124152539Y-42970365D02*
X124726115Y-42151213D01*
X124726115Y-42151213D02*
X124566161Y-42213608D01*
X124566161Y-42213608D02*
X124433520Y-42236997D01*
X124433520Y-42236997D02*
X124328193Y-42221377D01*
X125233209Y-42506284D02*
X125740303Y-42861355D01*
X125740303Y-42861355D02*
X125248747Y-42982221D01*
X125248747Y-42982221D02*
X125365769Y-43064161D01*
X125365769Y-43064161D02*
X125416470Y-43157794D01*
X125416470Y-43157794D02*
X125428164Y-43224114D01*
X125428164Y-43224114D02*
X125412545Y-43329442D01*
X125412545Y-43329442D02*
X125275980Y-43524478D01*
X125275980Y-43524478D02*
X125182346Y-43575180D01*
X125182346Y-43575180D02*
X125116026Y-43586874D01*
X125116026Y-43586874D02*
X125010698Y-43571255D01*
X125010698Y-43571255D02*
X124776654Y-43407376D01*
X124776654Y-43407376D02*
X124725953Y-43313742D01*
X124725953Y-43313742D02*
X124714259Y-43247422D01*
X66876066Y-80538560D02*
X67841992Y-80279741D01*
X67841992Y-80279741D02*
X67903615Y-80509724D01*
X67903615Y-80509724D02*
X67894593Y-80660038D01*
X67894593Y-80660038D02*
X67827249Y-80776680D01*
X67827249Y-80776680D02*
X67747581Y-80847326D01*
X67747581Y-80847326D02*
X67575920Y-80942621D01*
X67575920Y-80942621D02*
X67437931Y-80979596D01*
X67437931Y-80979596D02*
X67241620Y-80982898D01*
X67241620Y-80982898D02*
X67137302Y-80961551D01*
X67137302Y-80961551D02*
X67020660Y-80894207D01*
X67020660Y-80894207D02*
X66937689Y-80768543D01*
X66937689Y-80768543D02*
X66876066Y-80538560D01*
X68076161Y-81153674D02*
X68236383Y-81751628D01*
X68236383Y-81751628D02*
X67782138Y-81528251D01*
X67782138Y-81528251D02*
X67819112Y-81666240D01*
X67819112Y-81666240D02*
X67797765Y-81770558D01*
X67797765Y-81770558D02*
X67764093Y-81828879D01*
X67764093Y-81828879D02*
X67684425Y-81899525D01*
X67684425Y-81899525D02*
X67454443Y-81961148D01*
X67454443Y-81961148D02*
X67350125Y-81939801D01*
X67350125Y-81939801D02*
X67291804Y-81906130D01*
X67291804Y-81906130D02*
X67221158Y-81826461D01*
X67221158Y-81826461D02*
X67147210Y-81550483D01*
X67147210Y-81550483D02*
X67168557Y-81446165D01*
X67168557Y-81446165D02*
X67202228Y-81387844D01*
X68470552Y-82625561D02*
X68347305Y-82165597D01*
X68347305Y-82165597D02*
X67875016Y-82242847D01*
X67875016Y-82242847D02*
X67933337Y-82276519D01*
X67933337Y-82276519D02*
X68003983Y-82356187D01*
X68003983Y-82356187D02*
X68065606Y-82586170D01*
X68065606Y-82586170D02*
X68044259Y-82690487D01*
X68044259Y-82690487D02*
X68010587Y-82748808D01*
X68010587Y-82748808D02*
X67930919Y-82819454D01*
X67930919Y-82819454D02*
X67700937Y-82881078D01*
X67700937Y-82881078D02*
X67596619Y-82859731D01*
X67596619Y-82859731D02*
X67538298Y-82826059D01*
X67538298Y-82826059D02*
X67467652Y-82746391D01*
X67467652Y-82746391D02*
X67406029Y-82516409D01*
X67406029Y-82516409D02*
X67427376Y-82412091D01*
X67427376Y-82412091D02*
X67461047Y-82353770D01*
X132657028Y-92523140D02*
X132014240Y-91757096D01*
X132014240Y-91757096D02*
X132196632Y-91604051D01*
X132196632Y-91604051D02*
X132336675Y-91548702D01*
X132336675Y-91548702D02*
X132470850Y-91560441D01*
X132470850Y-91560441D02*
X132568546Y-91602789D01*
X132568546Y-91602789D02*
X132727460Y-91718093D01*
X132727460Y-91718093D02*
X132819287Y-91827528D01*
X132819287Y-91827528D02*
X132905244Y-92004050D01*
X132905244Y-92004050D02*
X132929984Y-92107616D01*
X132929984Y-92107616D02*
X132918245Y-92241790D01*
X132918245Y-92241790D02*
X132839419Y-92370095D01*
X132839419Y-92370095D02*
X132657028Y-92523140D01*
X132707328Y-91175526D02*
X133181546Y-90777610D01*
X133181546Y-90777610D02*
X133171069Y-91283699D01*
X133171069Y-91283699D02*
X133280504Y-91191872D01*
X133280504Y-91191872D02*
X133384070Y-91167132D01*
X133384070Y-91167132D02*
X133451157Y-91173002D01*
X133451157Y-91173002D02*
X133548853Y-91215349D01*
X133548853Y-91215349D02*
X133701898Y-91397741D01*
X133701898Y-91397741D02*
X133726637Y-91501306D01*
X133726637Y-91501306D02*
X133720768Y-91568394D01*
X133720768Y-91568394D02*
X133678420Y-91666090D01*
X133678420Y-91666090D02*
X133459550Y-91849743D01*
X133459550Y-91849743D02*
X133355985Y-91874483D01*
X133355985Y-91874483D02*
X133288898Y-91868614D01*
X134553900Y-90931475D02*
X134116160Y-91298783D01*
X134335030Y-91115129D02*
X133692242Y-90349085D01*
X133692242Y-90349085D02*
X133711112Y-90519737D01*
X133711112Y-90519737D02*
X133699374Y-90653912D01*
X133699374Y-90653912D02*
X133657026Y-90751608D01*
X232534819Y-71564285D02*
X231534819Y-71564285D01*
X231534819Y-71564285D02*
X231534819Y-71326190D01*
X231534819Y-71326190D02*
X231582438Y-71183333D01*
X231582438Y-71183333D02*
X231677676Y-71088095D01*
X231677676Y-71088095D02*
X231772914Y-71040476D01*
X231772914Y-71040476D02*
X231963390Y-70992857D01*
X231963390Y-70992857D02*
X232106247Y-70992857D01*
X232106247Y-70992857D02*
X232296723Y-71040476D01*
X232296723Y-71040476D02*
X232391961Y-71088095D01*
X232391961Y-71088095D02*
X232487200Y-71183333D01*
X232487200Y-71183333D02*
X232534819Y-71326190D01*
X232534819Y-71326190D02*
X232534819Y-71564285D01*
X231630057Y-70611904D02*
X231582438Y-70564285D01*
X231582438Y-70564285D02*
X231534819Y-70469047D01*
X231534819Y-70469047D02*
X231534819Y-70230952D01*
X231534819Y-70230952D02*
X231582438Y-70135714D01*
X231582438Y-70135714D02*
X231630057Y-70088095D01*
X231630057Y-70088095D02*
X231725295Y-70040476D01*
X231725295Y-70040476D02*
X231820533Y-70040476D01*
X231820533Y-70040476D02*
X231963390Y-70088095D01*
X231963390Y-70088095D02*
X232534819Y-70659523D01*
X232534819Y-70659523D02*
X232534819Y-70040476D01*
X231868152Y-69183333D02*
X232534819Y-69183333D01*
X231487200Y-69421428D02*
X232201485Y-69659523D01*
X232201485Y-69659523D02*
X232201485Y-69040476D01*
X141436627Y-84655451D02*
X140729521Y-83948344D01*
X140729521Y-83948344D02*
X140897879Y-83779985D01*
X140897879Y-83779985D02*
X141032566Y-83712642D01*
X141032566Y-83712642D02*
X141167253Y-83712642D01*
X141167253Y-83712642D02*
X141268269Y-83746314D01*
X141268269Y-83746314D02*
X141436627Y-83847329D01*
X141436627Y-83847329D02*
X141537643Y-83948344D01*
X141537643Y-83948344D02*
X141638658Y-84116703D01*
X141638658Y-84116703D02*
X141672330Y-84217718D01*
X141672330Y-84217718D02*
X141672330Y-84352405D01*
X141672330Y-84352405D02*
X141604986Y-84487092D01*
X141604986Y-84487092D02*
X141436627Y-84655451D01*
X142177406Y-83914672D02*
X142312093Y-83779985D01*
X142312093Y-83779985D02*
X142345765Y-83678970D01*
X142345765Y-83678970D02*
X142345765Y-83611627D01*
X142345765Y-83611627D02*
X142312093Y-83443268D01*
X142312093Y-83443268D02*
X142211078Y-83274909D01*
X142211078Y-83274909D02*
X141941704Y-83005535D01*
X141941704Y-83005535D02*
X141840688Y-82971863D01*
X141840688Y-82971863D02*
X141773345Y-82971863D01*
X141773345Y-82971863D02*
X141672330Y-83005535D01*
X141672330Y-83005535D02*
X141537643Y-83140222D01*
X141537643Y-83140222D02*
X141503971Y-83241237D01*
X141503971Y-83241237D02*
X141503971Y-83308581D01*
X141503971Y-83308581D02*
X141537643Y-83409596D01*
X141537643Y-83409596D02*
X141706001Y-83577955D01*
X141706001Y-83577955D02*
X141807017Y-83611627D01*
X141807017Y-83611627D02*
X141874360Y-83611627D01*
X141874360Y-83611627D02*
X141975375Y-83577955D01*
X141975375Y-83577955D02*
X142110062Y-83443268D01*
X142110062Y-83443268D02*
X142143734Y-83342253D01*
X142143734Y-83342253D02*
X142143734Y-83274909D01*
X142143734Y-83274909D02*
X142110062Y-83173894D01*
X90111027Y-104945679D02*
X90369846Y-103979753D01*
X90369846Y-103979753D02*
X90599828Y-104041376D01*
X90599828Y-104041376D02*
X90725493Y-104124347D01*
X90725493Y-104124347D02*
X90792836Y-104240989D01*
X90792836Y-104240989D02*
X90814183Y-104345307D01*
X90814183Y-104345307D02*
X90810881Y-104541618D01*
X90810881Y-104541618D02*
X90773907Y-104679607D01*
X90773907Y-104679607D02*
X90678611Y-104851268D01*
X90678611Y-104851268D02*
X90607966Y-104930936D01*
X90607966Y-104930936D02*
X90491323Y-104998280D01*
X90491323Y-104998280D02*
X90341009Y-105007302D01*
X90341009Y-105007302D02*
X90111027Y-104945679D01*
X91243779Y-104213922D02*
X91841733Y-104374144D01*
X91841733Y-104374144D02*
X91421160Y-104655843D01*
X91421160Y-104655843D02*
X91559149Y-104692817D01*
X91559149Y-104692817D02*
X91638817Y-104763463D01*
X91638817Y-104763463D02*
X91672489Y-104821784D01*
X91672489Y-104821784D02*
X91693836Y-104926101D01*
X91693836Y-104926101D02*
X91632213Y-105156084D01*
X91632213Y-105156084D02*
X91561567Y-105235752D01*
X91561567Y-105235752D02*
X91503245Y-105269424D01*
X91503245Y-105269424D02*
X91398928Y-105290771D01*
X91398928Y-105290771D02*
X91122949Y-105216822D01*
X91122949Y-105216822D02*
X91043281Y-105146177D01*
X91043281Y-105146177D02*
X91009609Y-105087855D01*
X92583396Y-104917964D02*
X92410850Y-105561915D01*
X92452012Y-104488369D02*
X92037158Y-105116692D01*
X92037158Y-105116692D02*
X92635113Y-105276913D01*
X225193098Y-50106910D02*
X226012250Y-49533334D01*
X226012250Y-49533334D02*
X226148816Y-49728370D01*
X226148816Y-49728370D02*
X226191748Y-49872705D01*
X226191748Y-49872705D02*
X226168360Y-50005346D01*
X226168360Y-50005346D02*
X226117658Y-50098979D01*
X226117658Y-50098979D02*
X225988943Y-50247239D01*
X225988943Y-50247239D02*
X225871921Y-50329179D01*
X225871921Y-50329179D02*
X225688579Y-50399424D01*
X225688579Y-50399424D02*
X225583251Y-50415043D01*
X225583251Y-50415043D02*
X225450610Y-50391655D01*
X225450610Y-50391655D02*
X225329664Y-50301947D01*
X225329664Y-50301947D02*
X225193098Y-50106910D01*
X226480499Y-50368105D02*
X226546819Y-50379799D01*
X226546819Y-50379799D02*
X226640453Y-50430500D01*
X226640453Y-50430500D02*
X226777018Y-50625537D01*
X226777018Y-50625537D02*
X226792638Y-50730864D01*
X226792638Y-50730864D02*
X226780943Y-50797185D01*
X226780943Y-50797185D02*
X226730242Y-50890818D01*
X226730242Y-50890818D02*
X226652228Y-50945445D01*
X226652228Y-50945445D02*
X226507893Y-50988377D01*
X226507893Y-50988377D02*
X225712048Y-50848048D01*
X225712048Y-50848048D02*
X226067119Y-51355142D01*
X227405221Y-51522703D02*
X227132090Y-51132631D01*
X227132090Y-51132631D02*
X226714704Y-51366755D01*
X226714704Y-51366755D02*
X226781024Y-51378449D01*
X226781024Y-51378449D02*
X226874658Y-51429151D01*
X226874658Y-51429151D02*
X227011224Y-51624187D01*
X227011224Y-51624187D02*
X227026843Y-51729514D01*
X227026843Y-51729514D02*
X227015149Y-51795835D01*
X227015149Y-51795835D02*
X226964448Y-51889468D01*
X226964448Y-51889468D02*
X226769411Y-52026034D01*
X226769411Y-52026034D02*
X226664084Y-52041653D01*
X226664084Y-52041653D02*
X226597763Y-52029959D01*
X226597763Y-52029959D02*
X226504130Y-51979258D01*
X226504130Y-51979258D02*
X226367564Y-51784222D01*
X226367564Y-51784222D02*
X226351945Y-51678894D01*
X226351945Y-51678894D02*
X226363639Y-51612574D01*
X90542100Y-36341417D02*
X90368452Y-35356610D01*
X90368452Y-35356610D02*
X90602930Y-35315265D01*
X90602930Y-35315265D02*
X90751886Y-35337354D01*
X90751886Y-35337354D02*
X90862215Y-35414607D01*
X90862215Y-35414607D02*
X90925648Y-35500129D01*
X90925648Y-35500129D02*
X91005620Y-35679443D01*
X91005620Y-35679443D02*
X91030427Y-35820129D01*
X91030427Y-35820129D02*
X91016607Y-36015981D01*
X91016607Y-36015981D02*
X90986249Y-36118041D01*
X90986249Y-36118041D02*
X90908996Y-36228370D01*
X90908996Y-36228370D02*
X90776578Y-36300073D01*
X90776578Y-36300073D02*
X90542100Y-36341417D01*
X92042759Y-36076811D02*
X91480012Y-36176038D01*
X91761386Y-36126424D02*
X91587738Y-35141617D01*
X91587738Y-35141617D02*
X91518753Y-35298841D01*
X91518753Y-35298841D02*
X91441500Y-35409170D01*
X91441500Y-35409170D02*
X91355978Y-35472604D01*
X92260814Y-35119642D02*
X92299441Y-35064478D01*
X92299441Y-35064478D02*
X92384963Y-35001044D01*
X92384963Y-35001044D02*
X92619441Y-34959699D01*
X92619441Y-34959699D02*
X92721501Y-34990057D01*
X92721501Y-34990057D02*
X92776666Y-35028684D01*
X92776666Y-35028684D02*
X92840099Y-35114206D01*
X92840099Y-35114206D02*
X92856637Y-35207997D01*
X92856637Y-35207997D02*
X92834548Y-35356953D01*
X92834548Y-35356953D02*
X92371029Y-36018928D01*
X92371029Y-36018928D02*
X92980672Y-35911431D01*
X72385223Y-49761649D02*
X71566071Y-49188072D01*
X71566071Y-49188072D02*
X71702637Y-48993036D01*
X71702637Y-48993036D02*
X71823583Y-48903327D01*
X71823583Y-48903327D02*
X71956224Y-48879939D01*
X71956224Y-48879939D02*
X72061552Y-48895558D01*
X72061552Y-48895558D02*
X72244894Y-48965804D01*
X72244894Y-48965804D02*
X72361916Y-49047743D01*
X72361916Y-49047743D02*
X72490631Y-49196003D01*
X72490631Y-49196003D02*
X72541333Y-49289637D01*
X72541333Y-49289637D02*
X72564721Y-49422278D01*
X72564721Y-49422278D02*
X72521789Y-49566612D01*
X72521789Y-49566612D02*
X72385223Y-49761649D01*
X72085021Y-48446935D02*
X72440092Y-47939841D01*
X72440092Y-47939841D02*
X72560958Y-48431397D01*
X72560958Y-48431397D02*
X72642897Y-48314375D01*
X72642897Y-48314375D02*
X72736531Y-48263673D01*
X72736531Y-48263673D02*
X72802851Y-48251979D01*
X72802851Y-48251979D02*
X72908179Y-48267598D01*
X72908179Y-48267598D02*
X73103215Y-48404164D01*
X73103215Y-48404164D02*
X73153916Y-48497798D01*
X73153916Y-48497798D02*
X73165610Y-48564118D01*
X73165610Y-48564118D02*
X73149991Y-48669446D01*
X73149991Y-48669446D02*
X72986112Y-48903489D01*
X72986112Y-48903489D02*
X72892479Y-48954191D01*
X72892479Y-48954191D02*
X72826158Y-48965885D01*
X72631284Y-47666790D02*
X73013668Y-47120688D01*
X73013668Y-47120688D02*
X73587002Y-48045330D01*
X163174909Y-60517169D02*
X162467803Y-59810062D01*
X162467803Y-59810062D02*
X162636161Y-59641703D01*
X162636161Y-59641703D02*
X162770848Y-59574360D01*
X162770848Y-59574360D02*
X162905535Y-59574360D01*
X162905535Y-59574360D02*
X163006551Y-59608032D01*
X163006551Y-59608032D02*
X163174909Y-59709047D01*
X163174909Y-59709047D02*
X163275925Y-59810062D01*
X163275925Y-59810062D02*
X163376940Y-59978421D01*
X163376940Y-59978421D02*
X163410612Y-60079436D01*
X163410612Y-60079436D02*
X163410612Y-60214123D01*
X163410612Y-60214123D02*
X163343268Y-60348810D01*
X163343268Y-60348810D02*
X163174909Y-60517169D01*
X163107566Y-59170299D02*
X163545299Y-58732566D01*
X163545299Y-58732566D02*
X163578970Y-59237642D01*
X163578970Y-59237642D02*
X163679986Y-59136627D01*
X163679986Y-59136627D02*
X163781001Y-59102955D01*
X163781001Y-59102955D02*
X163848344Y-59102955D01*
X163848344Y-59102955D02*
X163949360Y-59136627D01*
X163949360Y-59136627D02*
X164117718Y-59304986D01*
X164117718Y-59304986D02*
X164151390Y-59406001D01*
X164151390Y-59406001D02*
X164151390Y-59473345D01*
X164151390Y-59473345D02*
X164117718Y-59574360D01*
X164117718Y-59574360D02*
X163915688Y-59776390D01*
X163915688Y-59776390D02*
X163814673Y-59810062D01*
X163814673Y-59810062D02*
X163747329Y-59810062D01*
X163983032Y-58294833D02*
X164050375Y-58227490D01*
X164050375Y-58227490D02*
X164151390Y-58193818D01*
X164151390Y-58193818D02*
X164218734Y-58193818D01*
X164218734Y-58193818D02*
X164319749Y-58227490D01*
X164319749Y-58227490D02*
X164488108Y-58328505D01*
X164488108Y-58328505D02*
X164656467Y-58496864D01*
X164656467Y-58496864D02*
X164757482Y-58665222D01*
X164757482Y-58665222D02*
X164791154Y-58766238D01*
X164791154Y-58766238D02*
X164791154Y-58833581D01*
X164791154Y-58833581D02*
X164757482Y-58934596D01*
X164757482Y-58934596D02*
X164690138Y-59001940D01*
X164690138Y-59001940D02*
X164589123Y-59035612D01*
X164589123Y-59035612D02*
X164521780Y-59035612D01*
X164521780Y-59035612D02*
X164420764Y-59001940D01*
X164420764Y-59001940D02*
X164252406Y-58900925D01*
X164252406Y-58900925D02*
X164084047Y-58732566D01*
X164084047Y-58732566D02*
X163983032Y-58564207D01*
X163983032Y-58564207D02*
X163949360Y-58463192D01*
X163949360Y-58463192D02*
X163949360Y-58395848D01*
X163949360Y-58395848D02*
X163983032Y-58294833D01*
X113709452Y-104140075D02*
X113367431Y-103200382D01*
X113367431Y-103200382D02*
X113591168Y-103118949D01*
X113591168Y-103118949D02*
X113741696Y-103114836D01*
X113741696Y-103114836D02*
X113863764Y-103171757D01*
X113863764Y-103171757D02*
X113941085Y-103244965D01*
X113941085Y-103244965D02*
X114050979Y-103407668D01*
X114050979Y-103407668D02*
X114099839Y-103541909D01*
X114099839Y-103541909D02*
X114120238Y-103737185D01*
X114120238Y-103737185D02*
X114108064Y-103842966D01*
X114108064Y-103842966D02*
X114051143Y-103965034D01*
X114051143Y-103965034D02*
X113933188Y-104058642D01*
X113933188Y-104058642D02*
X113709452Y-104140075D01*
X114709849Y-102711782D02*
X114530860Y-102776929D01*
X114530860Y-102776929D02*
X114457653Y-102854249D01*
X114457653Y-102854249D02*
X114429192Y-102915283D01*
X114429192Y-102915283D02*
X114388557Y-103082098D01*
X114388557Y-103082098D02*
X114408957Y-103277374D01*
X114408957Y-103277374D02*
X114539250Y-103635352D01*
X114539250Y-103635352D02*
X114616571Y-103708560D01*
X114616571Y-103708560D02*
X114677605Y-103737021D01*
X114677605Y-103737021D02*
X114783386Y-103749195D01*
X114783386Y-103749195D02*
X114962375Y-103684048D01*
X114962375Y-103684048D02*
X115035583Y-103606727D01*
X115035583Y-103606727D02*
X115064044Y-103545693D01*
X115064044Y-103545693D02*
X115076217Y-103439912D01*
X115076217Y-103439912D02*
X114994784Y-103216176D01*
X114994784Y-103216176D02*
X114917463Y-103142968D01*
X114917463Y-103142968D02*
X114856430Y-103114507D01*
X114856430Y-103114507D02*
X114750648Y-103102334D01*
X114750648Y-103102334D02*
X114571659Y-103167480D01*
X114571659Y-103167480D02*
X114498451Y-103244801D01*
X114498451Y-103244801D02*
X114469991Y-103305835D01*
X114469991Y-103305835D02*
X114457817Y-103411616D01*
X123585097Y-99084908D02*
X123011521Y-98265756D01*
X123011521Y-98265756D02*
X123206557Y-98129190D01*
X123206557Y-98129190D02*
X123350892Y-98086258D01*
X123350892Y-98086258D02*
X123483533Y-98109646D01*
X123483533Y-98109646D02*
X123577166Y-98160348D01*
X123577166Y-98160348D02*
X123725426Y-98289063D01*
X123725426Y-98289063D02*
X123807366Y-98406085D01*
X123807366Y-98406085D02*
X123877611Y-98589427D01*
X123877611Y-98589427D02*
X123893230Y-98694755D01*
X123893230Y-98694755D02*
X123869842Y-98827396D01*
X123869842Y-98827396D02*
X123780134Y-98948342D01*
X123780134Y-98948342D02*
X123585097Y-99084908D01*
X123752658Y-97746806D02*
X124259753Y-97391735D01*
X124259753Y-97391735D02*
X124205207Y-97894985D01*
X124205207Y-97894985D02*
X124322229Y-97813045D01*
X124322229Y-97813045D02*
X124427557Y-97797426D01*
X124427557Y-97797426D02*
X124493877Y-97809120D01*
X124493877Y-97809120D02*
X124587511Y-97859822D01*
X124587511Y-97859822D02*
X124724076Y-98054858D01*
X124724076Y-98054858D02*
X124739695Y-98160186D01*
X124739695Y-98160186D02*
X124728001Y-98226506D01*
X124728001Y-98226506D02*
X124677300Y-98320140D01*
X124677300Y-98320140D02*
X124443257Y-98484019D01*
X124443257Y-98484019D02*
X124337929Y-98499638D01*
X124337929Y-98499638D02*
X124271609Y-98487944D01*
X124626437Y-97251244D02*
X124638131Y-97184924D01*
X124638131Y-97184924D02*
X124688832Y-97091290D01*
X124688832Y-97091290D02*
X124883868Y-96954724D01*
X124883868Y-96954724D02*
X124989196Y-96939105D01*
X124989196Y-96939105D02*
X125055517Y-96950799D01*
X125055517Y-96950799D02*
X125149150Y-97001501D01*
X125149150Y-97001501D02*
X125203776Y-97079515D01*
X125203776Y-97079515D02*
X125246709Y-97223850D01*
X125246709Y-97223850D02*
X125106380Y-98019695D01*
X125106380Y-98019695D02*
X125613474Y-97664624D01*
X66559819Y-71589285D02*
X65559819Y-71589285D01*
X65559819Y-71589285D02*
X65559819Y-71351190D01*
X65559819Y-71351190D02*
X65607438Y-71208333D01*
X65607438Y-71208333D02*
X65702676Y-71113095D01*
X65702676Y-71113095D02*
X65797914Y-71065476D01*
X65797914Y-71065476D02*
X65988390Y-71017857D01*
X65988390Y-71017857D02*
X66131247Y-71017857D01*
X66131247Y-71017857D02*
X66321723Y-71065476D01*
X66321723Y-71065476D02*
X66416961Y-71113095D01*
X66416961Y-71113095D02*
X66512200Y-71208333D01*
X66512200Y-71208333D02*
X66559819Y-71351190D01*
X66559819Y-71351190D02*
X66559819Y-71589285D01*
X65559819Y-70684523D02*
X65559819Y-70065476D01*
X65559819Y-70065476D02*
X65940771Y-70398809D01*
X65940771Y-70398809D02*
X65940771Y-70255952D01*
X65940771Y-70255952D02*
X65988390Y-70160714D01*
X65988390Y-70160714D02*
X66036009Y-70113095D01*
X66036009Y-70113095D02*
X66131247Y-70065476D01*
X66131247Y-70065476D02*
X66369342Y-70065476D01*
X66369342Y-70065476D02*
X66464580Y-70113095D01*
X66464580Y-70113095D02*
X66512200Y-70160714D01*
X66512200Y-70160714D02*
X66559819Y-70255952D01*
X66559819Y-70255952D02*
X66559819Y-70541666D01*
X66559819Y-70541666D02*
X66512200Y-70636904D01*
X66512200Y-70636904D02*
X66464580Y-70684523D01*
X65559819Y-69208333D02*
X65559819Y-69398809D01*
X65559819Y-69398809D02*
X65607438Y-69494047D01*
X65607438Y-69494047D02*
X65655057Y-69541666D01*
X65655057Y-69541666D02*
X65797914Y-69636904D01*
X65797914Y-69636904D02*
X65988390Y-69684523D01*
X65988390Y-69684523D02*
X66369342Y-69684523D01*
X66369342Y-69684523D02*
X66464580Y-69636904D01*
X66464580Y-69636904D02*
X66512200Y-69589285D01*
X66512200Y-69589285D02*
X66559819Y-69494047D01*
X66559819Y-69494047D02*
X66559819Y-69303571D01*
X66559819Y-69303571D02*
X66512200Y-69208333D01*
X66512200Y-69208333D02*
X66464580Y-69160714D01*
X66464580Y-69160714D02*
X66369342Y-69113095D01*
X66369342Y-69113095D02*
X66131247Y-69113095D01*
X66131247Y-69113095D02*
X66036009Y-69160714D01*
X66036009Y-69160714D02*
X65988390Y-69208333D01*
X65988390Y-69208333D02*
X65940771Y-69303571D01*
X65940771Y-69303571D02*
X65940771Y-69494047D01*
X65940771Y-69494047D02*
X65988390Y-69589285D01*
X65988390Y-69589285D02*
X66036009Y-69636904D01*
X66036009Y-69636904D02*
X66131247Y-69684523D01*
X218422279Y-98303194D02*
X217848703Y-97484042D01*
X217848703Y-97484042D02*
X218043739Y-97347476D01*
X218043739Y-97347476D02*
X218188074Y-97304544D01*
X218188074Y-97304544D02*
X218320715Y-97327932D01*
X218320715Y-97327932D02*
X218414348Y-97378634D01*
X218414348Y-97378634D02*
X218562608Y-97507349D01*
X218562608Y-97507349D02*
X218644548Y-97624371D01*
X218644548Y-97624371D02*
X218714793Y-97807713D01*
X218714793Y-97807713D02*
X218730412Y-97913041D01*
X218730412Y-97913041D02*
X218707024Y-98045682D01*
X218707024Y-98045682D02*
X218617316Y-98166628D01*
X218617316Y-98166628D02*
X218422279Y-98303194D01*
X219670511Y-97429173D02*
X219202424Y-97756931D01*
X219436468Y-97593052D02*
X218862891Y-96773900D01*
X218862891Y-96773900D02*
X218866816Y-96945548D01*
X218866816Y-96945548D02*
X218843428Y-97078189D01*
X218843428Y-97078189D02*
X218792727Y-97171822D01*
X220060583Y-97156041D02*
X220216612Y-97046789D01*
X220216612Y-97046789D02*
X220267314Y-96953155D01*
X220267314Y-96953155D02*
X220279008Y-96886835D01*
X220279008Y-96886835D02*
X220275083Y-96715187D01*
X220275083Y-96715187D02*
X220204837Y-96531844D01*
X220204837Y-96531844D02*
X219986332Y-96219787D01*
X219986332Y-96219787D02*
X219892699Y-96169085D01*
X219892699Y-96169085D02*
X219826378Y-96157391D01*
X219826378Y-96157391D02*
X219721050Y-96173010D01*
X219721050Y-96173010D02*
X219565021Y-96282263D01*
X219565021Y-96282263D02*
X219514320Y-96375896D01*
X219514320Y-96375896D02*
X219502626Y-96442217D01*
X219502626Y-96442217D02*
X219518245Y-96547544D01*
X219518245Y-96547544D02*
X219654811Y-96742581D01*
X219654811Y-96742581D02*
X219748445Y-96793282D01*
X219748445Y-96793282D02*
X219814765Y-96804976D01*
X219814765Y-96804976D02*
X219920093Y-96789357D01*
X219920093Y-96789357D02*
X220076122Y-96680104D01*
X220076122Y-96680104D02*
X220126823Y-96586471D01*
X220126823Y-96586471D02*
X220138517Y-96520150D01*
X220138517Y-96520150D02*
X220122898Y-96414823D01*
X179879530Y-46370287D02*
X179349611Y-45522238D01*
X179349611Y-45522238D02*
X179551527Y-45396067D01*
X179551527Y-45396067D02*
X179697911Y-45360748D01*
X179697911Y-45360748D02*
X179829146Y-45391046D01*
X179829146Y-45391046D02*
X179919998Y-45446578D01*
X179919998Y-45446578D02*
X180061318Y-45582877D01*
X180061318Y-45582877D02*
X180137021Y-45704026D01*
X180137021Y-45704026D02*
X180197574Y-45890794D01*
X180197574Y-45890794D02*
X180207660Y-45996794D01*
X180207660Y-45996794D02*
X180177362Y-46128029D01*
X180177362Y-46128029D02*
X180081446Y-46244115D01*
X180081446Y-46244115D02*
X179879530Y-46370287D01*
X180545917Y-45280066D02*
X180439916Y-45290151D01*
X180439916Y-45290151D02*
X180374299Y-45275002D01*
X180374299Y-45275002D02*
X180283447Y-45219470D01*
X180283447Y-45219470D02*
X180258213Y-45179086D01*
X180258213Y-45179086D02*
X180248127Y-45073086D01*
X180248127Y-45073086D02*
X180263276Y-45007468D01*
X180263276Y-45007468D02*
X180318809Y-44916616D01*
X180318809Y-44916616D02*
X180480342Y-44815679D01*
X180480342Y-44815679D02*
X180586342Y-44805594D01*
X180586342Y-44805594D02*
X180651960Y-44820743D01*
X180651960Y-44820743D02*
X180742812Y-44876275D01*
X180742812Y-44876275D02*
X180768046Y-44916659D01*
X180768046Y-44916659D02*
X180778131Y-45022659D01*
X180778131Y-45022659D02*
X180762982Y-45088277D01*
X180762982Y-45088277D02*
X180707450Y-45179129D01*
X180707450Y-45179129D02*
X180545917Y-45280066D01*
X180545917Y-45280066D02*
X180490385Y-45370917D01*
X180490385Y-45370917D02*
X180475236Y-45436535D01*
X180475236Y-45436535D02*
X180485321Y-45542536D01*
X180485321Y-45542536D02*
X180586258Y-45704069D01*
X180586258Y-45704069D02*
X180677110Y-45759601D01*
X180677110Y-45759601D02*
X180742727Y-45774750D01*
X180742727Y-45774750D02*
X180848728Y-45764665D01*
X180848728Y-45764665D02*
X181010261Y-45663728D01*
X181010261Y-45663728D02*
X181065793Y-45572876D01*
X181065793Y-45572876D02*
X181080942Y-45507258D01*
X181080942Y-45507258D02*
X181070857Y-45401258D01*
X181070857Y-45401258D02*
X180969920Y-45239725D01*
X180969920Y-45239725D02*
X180879068Y-45184192D01*
X180879068Y-45184192D02*
X180813451Y-45169043D01*
X180813451Y-45169043D02*
X180707450Y-45179129D01*
X101685714Y-106424819D02*
X101685714Y-105424819D01*
X101685714Y-105424819D02*
X101923809Y-105424819D01*
X101923809Y-105424819D02*
X102066666Y-105472438D01*
X102066666Y-105472438D02*
X102161904Y-105567676D01*
X102161904Y-105567676D02*
X102209523Y-105662914D01*
X102209523Y-105662914D02*
X102257142Y-105853390D01*
X102257142Y-105853390D02*
X102257142Y-105996247D01*
X102257142Y-105996247D02*
X102209523Y-106186723D01*
X102209523Y-106186723D02*
X102161904Y-106281961D01*
X102161904Y-106281961D02*
X102066666Y-106377200D01*
X102066666Y-106377200D02*
X101923809Y-106424819D01*
X101923809Y-106424819D02*
X101685714Y-106424819D01*
X102590476Y-105424819D02*
X103209523Y-105424819D01*
X103209523Y-105424819D02*
X102876190Y-105805771D01*
X102876190Y-105805771D02*
X103019047Y-105805771D01*
X103019047Y-105805771D02*
X103114285Y-105853390D01*
X103114285Y-105853390D02*
X103161904Y-105901009D01*
X103161904Y-105901009D02*
X103209523Y-105996247D01*
X103209523Y-105996247D02*
X103209523Y-106234342D01*
X103209523Y-106234342D02*
X103161904Y-106329580D01*
X103161904Y-106329580D02*
X103114285Y-106377200D01*
X103114285Y-106377200D02*
X103019047Y-106424819D01*
X103019047Y-106424819D02*
X102733333Y-106424819D01*
X102733333Y-106424819D02*
X102638095Y-106377200D01*
X102638095Y-106377200D02*
X102590476Y-106329580D01*
X103542857Y-105424819D02*
X104161904Y-105424819D01*
X104161904Y-105424819D02*
X103828571Y-105805771D01*
X103828571Y-105805771D02*
X103971428Y-105805771D01*
X103971428Y-105805771D02*
X104066666Y-105853390D01*
X104066666Y-105853390D02*
X104114285Y-105901009D01*
X104114285Y-105901009D02*
X104161904Y-105996247D01*
X104161904Y-105996247D02*
X104161904Y-106234342D01*
X104161904Y-106234342D02*
X104114285Y-106329580D01*
X104114285Y-106329580D02*
X104066666Y-106377200D01*
X104066666Y-106377200D02*
X103971428Y-106424819D01*
X103971428Y-106424819D02*
X103685714Y-106424819D01*
X103685714Y-106424819D02*
X103590476Y-106377200D01*
X103590476Y-106377200D02*
X103542857Y-106329580D01*
X71540091Y-91485097D02*
X72359243Y-90911521D01*
X72359243Y-90911521D02*
X72495809Y-91106557D01*
X72495809Y-91106557D02*
X72538741Y-91250892D01*
X72538741Y-91250892D02*
X72515353Y-91383533D01*
X72515353Y-91383533D02*
X72464651Y-91477166D01*
X72464651Y-91477166D02*
X72335936Y-91625426D01*
X72335936Y-91625426D02*
X72218914Y-91707366D01*
X72218914Y-91707366D02*
X72035572Y-91777611D01*
X72035572Y-91777611D02*
X71930244Y-91793230D01*
X71930244Y-91793230D02*
X71797603Y-91769842D01*
X71797603Y-91769842D02*
X71676657Y-91680134D01*
X71676657Y-91680134D02*
X71540091Y-91485097D01*
X72414112Y-92733329D02*
X72086354Y-92265242D01*
X72250233Y-92499286D02*
X73069385Y-91925709D01*
X73069385Y-91925709D02*
X72897737Y-91929634D01*
X72897737Y-91929634D02*
X72765096Y-91906246D01*
X72765096Y-91906246D02*
X72671463Y-91855545D01*
X73588335Y-92666847D02*
X73642962Y-92744861D01*
X73642962Y-92744861D02*
X73658581Y-92850189D01*
X73658581Y-92850189D02*
X73646887Y-92916509D01*
X73646887Y-92916509D02*
X73596185Y-93010143D01*
X73596185Y-93010143D02*
X73467470Y-93158403D01*
X73467470Y-93158403D02*
X73272433Y-93294969D01*
X73272433Y-93294969D02*
X73089091Y-93365214D01*
X73089091Y-93365214D02*
X72983764Y-93380833D01*
X72983764Y-93380833D02*
X72917443Y-93369139D01*
X72917443Y-93369139D02*
X72823810Y-93318438D01*
X72823810Y-93318438D02*
X72769183Y-93240423D01*
X72769183Y-93240423D02*
X72753564Y-93135096D01*
X72753564Y-93135096D02*
X72765258Y-93068775D01*
X72765258Y-93068775D02*
X72815960Y-92975142D01*
X72815960Y-92975142D02*
X72944675Y-92826882D01*
X72944675Y-92826882D02*
X73139712Y-92690316D01*
X73139712Y-92690316D02*
X73323054Y-92620070D01*
X73323054Y-92620070D02*
X73428381Y-92604451D01*
X73428381Y-92604451D02*
X73494702Y-92616145D01*
X73494702Y-92616145D02*
X73588335Y-92666847D01*
X188536978Y-41552942D02*
X188194958Y-40613249D01*
X188194958Y-40613249D02*
X188418695Y-40531816D01*
X188418695Y-40531816D02*
X188569223Y-40527703D01*
X188569223Y-40527703D02*
X188691291Y-40584624D01*
X188691291Y-40584624D02*
X188768612Y-40657832D01*
X188768612Y-40657832D02*
X188878506Y-40820534D01*
X188878506Y-40820534D02*
X188927366Y-40954776D01*
X188927366Y-40954776D02*
X188947765Y-41150052D01*
X188947765Y-41150052D02*
X188935591Y-41255833D01*
X188935591Y-41255833D02*
X188878670Y-41377901D01*
X188878670Y-41377901D02*
X188760715Y-41471508D01*
X188760715Y-41471508D02*
X188536978Y-41552942D01*
X189122477Y-40377010D02*
X189150938Y-40315976D01*
X189150938Y-40315976D02*
X189224145Y-40238656D01*
X189224145Y-40238656D02*
X189447882Y-40157222D01*
X189447882Y-40157222D02*
X189553663Y-40169396D01*
X189553663Y-40169396D02*
X189614697Y-40197857D01*
X189614697Y-40197857D02*
X189692018Y-40271065D01*
X189692018Y-40271065D02*
X189724591Y-40360559D01*
X189724591Y-40360559D02*
X189728704Y-40511088D01*
X189728704Y-40511088D02*
X189387176Y-41243495D01*
X189387176Y-41243495D02*
X189968891Y-41031768D01*
X190310418Y-40299361D02*
X190204637Y-40287187D01*
X190204637Y-40287187D02*
X190143603Y-40258726D01*
X190143603Y-40258726D02*
X190066282Y-40185519D01*
X190066282Y-40185519D02*
X190049996Y-40140771D01*
X190049996Y-40140771D02*
X190062170Y-40034990D01*
X190062170Y-40034990D02*
X190090630Y-39973956D01*
X190090630Y-39973956D02*
X190163838Y-39896636D01*
X190163838Y-39896636D02*
X190342827Y-39831489D01*
X190342827Y-39831489D02*
X190448608Y-39843663D01*
X190448608Y-39843663D02*
X190509642Y-39872123D01*
X190509642Y-39872123D02*
X190586963Y-39945331D01*
X190586963Y-39945331D02*
X190603250Y-39990078D01*
X190603250Y-39990078D02*
X190591076Y-40095860D01*
X190591076Y-40095860D02*
X190562615Y-40156894D01*
X190562615Y-40156894D02*
X190489407Y-40234214D01*
X190489407Y-40234214D02*
X190310418Y-40299361D01*
X190310418Y-40299361D02*
X190237210Y-40376682D01*
X190237210Y-40376682D02*
X190208750Y-40437715D01*
X190208750Y-40437715D02*
X190196576Y-40543497D01*
X190196576Y-40543497D02*
X190261722Y-40722486D01*
X190261722Y-40722486D02*
X190339043Y-40795694D01*
X190339043Y-40795694D02*
X190400077Y-40824154D01*
X190400077Y-40824154D02*
X190505858Y-40836328D01*
X190505858Y-40836328D02*
X190684847Y-40771181D01*
X190684847Y-40771181D02*
X190758055Y-40693861D01*
X190758055Y-40693861D02*
X190786516Y-40632827D01*
X190786516Y-40632827D02*
X190798690Y-40527046D01*
X190798690Y-40527046D02*
X190733543Y-40348057D01*
X190733543Y-40348057D02*
X190656222Y-40274849D01*
X190656222Y-40274849D02*
X190595188Y-40246388D01*
X190595188Y-40246388D02*
X190489407Y-40234214D01*
X230804709Y-81996870D02*
X229838783Y-81738051D01*
X229838783Y-81738051D02*
X229900406Y-81508069D01*
X229900406Y-81508069D02*
X229983377Y-81382404D01*
X229983377Y-81382404D02*
X230100019Y-81315061D01*
X230100019Y-81315061D02*
X230204337Y-81293714D01*
X230204337Y-81293714D02*
X230400648Y-81297016D01*
X230400648Y-81297016D02*
X230538637Y-81333990D01*
X230538637Y-81333990D02*
X230710298Y-81429286D01*
X230710298Y-81429286D02*
X230789966Y-81499931D01*
X230789966Y-81499931D02*
X230857310Y-81616574D01*
X230857310Y-81616574D02*
X230866332Y-81766888D01*
X230866332Y-81766888D02*
X230804709Y-81996870D01*
X230177270Y-80842771D02*
X230143598Y-80784450D01*
X230143598Y-80784450D02*
X230122251Y-80680133D01*
X230122251Y-80680133D02*
X230183875Y-80450150D01*
X230183875Y-80450150D02*
X230254521Y-80370482D01*
X230254521Y-80370482D02*
X230312842Y-80336810D01*
X230312842Y-80336810D02*
X230417160Y-80315463D01*
X230417160Y-80315463D02*
X230509153Y-80340113D01*
X230509153Y-80340113D02*
X230634817Y-80423083D01*
X230634817Y-80423083D02*
X231038878Y-81122937D01*
X231038878Y-81122937D02*
X231199100Y-80524983D01*
X230319447Y-79944189D02*
X230479668Y-79346235D01*
X230479668Y-79346235D02*
X230761367Y-79766808D01*
X230761367Y-79766808D02*
X230798341Y-79628818D01*
X230798341Y-79628818D02*
X230868987Y-79549150D01*
X230868987Y-79549150D02*
X230927308Y-79515479D01*
X230927308Y-79515479D02*
X231031626Y-79494131D01*
X231031626Y-79494131D02*
X231261608Y-79555755D01*
X231261608Y-79555755D02*
X231341276Y-79626401D01*
X231341276Y-79626401D02*
X231374948Y-79684722D01*
X231374948Y-79684722D02*
X231396295Y-79789040D01*
X231396295Y-79789040D02*
X231322347Y-80065019D01*
X231322347Y-80065019D02*
X231251701Y-80144687D01*
X231251701Y-80144687D02*
X231193380Y-80178359D01*
X67717056Y-60144574D02*
X66751130Y-59885755D01*
X66751130Y-59885755D02*
X66812753Y-59655773D01*
X66812753Y-59655773D02*
X66895724Y-59530108D01*
X66895724Y-59530108D02*
X67012366Y-59462765D01*
X67012366Y-59462765D02*
X67116684Y-59441418D01*
X67116684Y-59441418D02*
X67312995Y-59444720D01*
X67312995Y-59444720D02*
X67450984Y-59481694D01*
X67450984Y-59481694D02*
X67622645Y-59576990D01*
X67622645Y-59576990D02*
X67702313Y-59647635D01*
X67702313Y-59647635D02*
X67769657Y-59764278D01*
X67769657Y-59764278D02*
X67778679Y-59914592D01*
X67778679Y-59914592D02*
X67717056Y-60144574D01*
X68111447Y-58672687D02*
X67963550Y-59224645D01*
X68037498Y-58948666D02*
X67071572Y-58689847D01*
X67071572Y-58689847D02*
X67184912Y-58818814D01*
X67184912Y-58818814D02*
X67252256Y-58935457D01*
X67252256Y-58935457D02*
X67273603Y-59039774D01*
X68357941Y-57752758D02*
X68210044Y-58304716D01*
X68283993Y-58028737D02*
X67318067Y-57769918D01*
X67318067Y-57769918D02*
X67431407Y-57898885D01*
X67431407Y-57898885D02*
X67498750Y-58015527D01*
X67498750Y-58015527D02*
X67520097Y-58119845D01*
X170982028Y-53048140D02*
X170339240Y-52282096D01*
X170339240Y-52282096D02*
X170521632Y-52129051D01*
X170521632Y-52129051D02*
X170661675Y-52073702D01*
X170661675Y-52073702D02*
X170795850Y-52085441D01*
X170795850Y-52085441D02*
X170893546Y-52127789D01*
X170893546Y-52127789D02*
X171052460Y-52243093D01*
X171052460Y-52243093D02*
X171144287Y-52352528D01*
X171144287Y-52352528D02*
X171230244Y-52529050D01*
X171230244Y-52529050D02*
X171254984Y-52632616D01*
X171254984Y-52632616D02*
X171243245Y-52766790D01*
X171243245Y-52766790D02*
X171164419Y-52895095D01*
X171164419Y-52895095D02*
X170982028Y-53048140D01*
X171130024Y-51742873D02*
X171135893Y-51675786D01*
X171135893Y-51675786D02*
X171178241Y-51578090D01*
X171178241Y-51578090D02*
X171360633Y-51425045D01*
X171360633Y-51425045D02*
X171464198Y-51400306D01*
X171464198Y-51400306D02*
X171531285Y-51406175D01*
X171531285Y-51406175D02*
X171628982Y-51448523D01*
X171628982Y-51448523D02*
X171690199Y-51521479D01*
X171690199Y-51521479D02*
X171745548Y-51661523D01*
X171745548Y-51661523D02*
X171675116Y-52466570D01*
X171675116Y-52466570D02*
X172149334Y-52068654D01*
X172514117Y-51762565D02*
X172660030Y-51640129D01*
X172660030Y-51640129D02*
X172702378Y-51542433D01*
X172702378Y-51542433D02*
X172708247Y-51475346D01*
X172708247Y-51475346D02*
X172689377Y-51304693D01*
X172689377Y-51304693D02*
X172603419Y-51128171D01*
X172603419Y-51128171D02*
X172358548Y-50836344D01*
X172358548Y-50836344D02*
X172260852Y-50793996D01*
X172260852Y-50793996D02*
X172193764Y-50788127D01*
X172193764Y-50788127D02*
X172090199Y-50812867D01*
X172090199Y-50812867D02*
X171944286Y-50935302D01*
X171944286Y-50935302D02*
X171901938Y-51032999D01*
X171901938Y-51032999D02*
X171896069Y-51100086D01*
X171896069Y-51100086D02*
X171920808Y-51203651D01*
X171920808Y-51203651D02*
X172073853Y-51386043D01*
X172073853Y-51386043D02*
X172171549Y-51428391D01*
X172171549Y-51428391D02*
X172238636Y-51434260D01*
X172238636Y-51434260D02*
X172342202Y-51409520D01*
X172342202Y-51409520D02*
X172488115Y-51287085D01*
X172488115Y-51287085D02*
X172530463Y-51189388D01*
X172530463Y-51189388D02*
X172536332Y-51122301D01*
X172536332Y-51122301D02*
X172511592Y-51018736D01*
X198285714Y-38774819D02*
X198285714Y-37774819D01*
X198285714Y-37774819D02*
X198523809Y-37774819D01*
X198523809Y-37774819D02*
X198666666Y-37822438D01*
X198666666Y-37822438D02*
X198761904Y-37917676D01*
X198761904Y-37917676D02*
X198809523Y-38012914D01*
X198809523Y-38012914D02*
X198857142Y-38203390D01*
X198857142Y-38203390D02*
X198857142Y-38346247D01*
X198857142Y-38346247D02*
X198809523Y-38536723D01*
X198809523Y-38536723D02*
X198761904Y-38631961D01*
X198761904Y-38631961D02*
X198666666Y-38727200D01*
X198666666Y-38727200D02*
X198523809Y-38774819D01*
X198523809Y-38774819D02*
X198285714Y-38774819D01*
X199238095Y-37870057D02*
X199285714Y-37822438D01*
X199285714Y-37822438D02*
X199380952Y-37774819D01*
X199380952Y-37774819D02*
X199619047Y-37774819D01*
X199619047Y-37774819D02*
X199714285Y-37822438D01*
X199714285Y-37822438D02*
X199761904Y-37870057D01*
X199761904Y-37870057D02*
X199809523Y-37965295D01*
X199809523Y-37965295D02*
X199809523Y-38060533D01*
X199809523Y-38060533D02*
X199761904Y-38203390D01*
X199761904Y-38203390D02*
X199190476Y-38774819D01*
X199190476Y-38774819D02*
X199809523Y-38774819D01*
X200142857Y-37774819D02*
X200809523Y-37774819D01*
X200809523Y-37774819D02*
X200380952Y-38774819D01*
X140531698Y-56176041D02*
X141238805Y-55468935D01*
X141238805Y-55468935D02*
X141407164Y-55637293D01*
X141407164Y-55637293D02*
X141474507Y-55771980D01*
X141474507Y-55771980D02*
X141474507Y-55906667D01*
X141474507Y-55906667D02*
X141440835Y-56007683D01*
X141440835Y-56007683D02*
X141339820Y-56176041D01*
X141339820Y-56176041D02*
X141238805Y-56277057D01*
X141238805Y-56277057D02*
X141070446Y-56378072D01*
X141070446Y-56378072D02*
X140969431Y-56411744D01*
X140969431Y-56411744D02*
X140834744Y-56411744D01*
X140834744Y-56411744D02*
X140700057Y-56344400D01*
X140700057Y-56344400D02*
X140531698Y-56176041D01*
X142013255Y-56714789D02*
X141541851Y-57186194D01*
X142114270Y-56277057D02*
X141440835Y-56613774D01*
X141440835Y-56613774D02*
X141878568Y-57051507D01*
X142518332Y-56883148D02*
X142585675Y-56883148D01*
X142585675Y-56883148D02*
X142686690Y-56916820D01*
X142686690Y-56916820D02*
X142855049Y-57085179D01*
X142855049Y-57085179D02*
X142888721Y-57186194D01*
X142888721Y-57186194D02*
X142888721Y-57253538D01*
X142888721Y-57253538D02*
X142855049Y-57354553D01*
X142855049Y-57354553D02*
X142787706Y-57421896D01*
X142787706Y-57421896D02*
X142653019Y-57489240D01*
X142653019Y-57489240D02*
X141844897Y-57489240D01*
X141844897Y-57489240D02*
X142282629Y-57926973D01*
X229900885Y-59152548D02*
X230840578Y-58810528D01*
X230840578Y-58810528D02*
X230922011Y-59034265D01*
X230922011Y-59034265D02*
X230926124Y-59184793D01*
X230926124Y-59184793D02*
X230869203Y-59306861D01*
X230869203Y-59306861D02*
X230795995Y-59384182D01*
X230795995Y-59384182D02*
X230633293Y-59494076D01*
X230633293Y-59494076D02*
X230499051Y-59542936D01*
X230499051Y-59542936D02*
X230303775Y-59563335D01*
X230303775Y-59563335D02*
X230197994Y-59551161D01*
X230197994Y-59551161D02*
X230075926Y-59494240D01*
X230075926Y-59494240D02*
X229982319Y-59376285D01*
X229982319Y-59376285D02*
X229900885Y-59152548D01*
X231076817Y-59738047D02*
X231137851Y-59766508D01*
X231137851Y-59766508D02*
X231215171Y-59839715D01*
X231215171Y-59839715D02*
X231296605Y-60063452D01*
X231296605Y-60063452D02*
X231284431Y-60169233D01*
X231284431Y-60169233D02*
X231255970Y-60230267D01*
X231255970Y-60230267D02*
X231182762Y-60307588D01*
X231182762Y-60307588D02*
X231093268Y-60340161D01*
X231093268Y-60340161D02*
X230942739Y-60344274D01*
X230942739Y-60344274D02*
X230210332Y-60002746D01*
X230210332Y-60002746D02*
X230422059Y-60584461D01*
X230747792Y-61479406D02*
X230552352Y-60942439D01*
X230650072Y-61210923D02*
X231589765Y-60868903D01*
X231589765Y-60868903D02*
X231422950Y-60828268D01*
X231422950Y-60828268D02*
X231300882Y-60771347D01*
X231300882Y-60771347D02*
X231223561Y-60698139D01*
X101884317Y-34984182D02*
X101971473Y-33987987D01*
X101971473Y-33987987D02*
X102208662Y-34008739D01*
X102208662Y-34008739D02*
X102346826Y-34068627D01*
X102346826Y-34068627D02*
X102433401Y-34171803D01*
X102433401Y-34171803D02*
X102472538Y-34270829D01*
X102472538Y-34270829D02*
X102503375Y-34464731D01*
X102503375Y-34464731D02*
X102490924Y-34607045D01*
X102490924Y-34607045D02*
X102426885Y-34792646D01*
X102426885Y-34792646D02*
X102371147Y-34883371D01*
X102371147Y-34883371D02*
X102267970Y-34969946D01*
X102267970Y-34969946D02*
X102121507Y-35004933D01*
X102121507Y-35004933D02*
X101884317Y-34984182D01*
X102872792Y-34066842D02*
X103489484Y-34120796D01*
X103489484Y-34120796D02*
X103124217Y-34471247D01*
X103124217Y-34471247D02*
X103266531Y-34483698D01*
X103266531Y-34483698D02*
X103357256Y-34539436D01*
X103357256Y-34539436D02*
X103400544Y-34591024D01*
X103400544Y-34591024D02*
X103439681Y-34690050D01*
X103439681Y-34690050D02*
X103418929Y-34927239D01*
X103418929Y-34927239D02*
X103363191Y-35017965D01*
X103363191Y-35017965D02*
X103311603Y-35061252D01*
X103311603Y-35061252D02*
X103212577Y-35100390D01*
X103212577Y-35100390D02*
X102927950Y-35075488D01*
X102927950Y-35075488D02*
X102837224Y-35019749D01*
X102837224Y-35019749D02*
X102793937Y-34968161D01*
X103876707Y-35158493D02*
X104066458Y-35175094D01*
X104066458Y-35175094D02*
X104165484Y-35135957D01*
X104165484Y-35135957D02*
X104217072Y-35092670D01*
X104217072Y-35092670D02*
X104324399Y-34958657D01*
X104324399Y-34958657D02*
X104388438Y-34773055D01*
X104388438Y-34773055D02*
X104421640Y-34393553D01*
X104421640Y-34393553D02*
X104382503Y-34294527D01*
X104382503Y-34294527D02*
X104339215Y-34242939D01*
X104339215Y-34242939D02*
X104248490Y-34187200D01*
X104248490Y-34187200D02*
X104058738Y-34170599D01*
X104058738Y-34170599D02*
X103959712Y-34209736D01*
X103959712Y-34209736D02*
X103908124Y-34253024D01*
X103908124Y-34253024D02*
X103852386Y-34343749D01*
X103852386Y-34343749D02*
X103831634Y-34580939D01*
X103831634Y-34580939D02*
X103870772Y-34679965D01*
X103870772Y-34679965D02*
X103914059Y-34731553D01*
X103914059Y-34731553D02*
X104004785Y-34787291D01*
X104004785Y-34787291D02*
X104194536Y-34803892D01*
X104194536Y-34803892D02*
X104293562Y-34764755D01*
X104293562Y-34764755D02*
X104345150Y-34721467D01*
X104345150Y-34721467D02*
X104400889Y-34630742D01*
X178885163Y-94738230D02*
X179458740Y-93919078D01*
X179458740Y-93919078D02*
X179653776Y-94055644D01*
X179653776Y-94055644D02*
X179743485Y-94176590D01*
X179743485Y-94176590D02*
X179766873Y-94309231D01*
X179766873Y-94309231D02*
X179751254Y-94414559D01*
X179751254Y-94414559D02*
X179681008Y-94597901D01*
X179681008Y-94597901D02*
X179599069Y-94714923D01*
X179599069Y-94714923D02*
X179450809Y-94843638D01*
X179450809Y-94843638D02*
X179357175Y-94894340D01*
X179357175Y-94894340D02*
X179224534Y-94917728D01*
X179224534Y-94917728D02*
X179080200Y-94874796D01*
X179080200Y-94874796D02*
X178885163Y-94738230D01*
X180133395Y-95612251D02*
X179665308Y-95284493D01*
X179899352Y-95448372D02*
X180472928Y-94629220D01*
X180472928Y-94629220D02*
X180312974Y-94691615D01*
X180312974Y-94691615D02*
X180180333Y-94715004D01*
X180180333Y-94715004D02*
X180075006Y-94699384D01*
X181217910Y-95557787D02*
X180835525Y-96103888D01*
X181241379Y-95109163D02*
X180636645Y-95557706D01*
X180636645Y-95557706D02*
X181143739Y-95912777D01*
X188050864Y-99951837D02*
X188392884Y-99012145D01*
X188392884Y-99012145D02*
X188616620Y-99093578D01*
X188616620Y-99093578D02*
X188734575Y-99187185D01*
X188734575Y-99187185D02*
X188791497Y-99309253D01*
X188791497Y-99309253D02*
X188803671Y-99415035D01*
X188803671Y-99415035D02*
X188783271Y-99610310D01*
X188783271Y-99610310D02*
X188734411Y-99744552D01*
X188734411Y-99744552D02*
X188624517Y-99907254D01*
X188624517Y-99907254D02*
X188547197Y-99980462D01*
X188547197Y-99980462D02*
X188425129Y-100037384D01*
X188425129Y-100037384D02*
X188274600Y-100033271D01*
X188274600Y-100033271D02*
X188050864Y-99951837D01*
X189482776Y-100473011D02*
X188945809Y-100277571D01*
X189214293Y-100375291D02*
X189556313Y-99435598D01*
X189556313Y-99435598D02*
X189417958Y-99537267D01*
X189417958Y-99537267D02*
X189295891Y-99594188D01*
X189295891Y-99594188D02*
X189190109Y-99606362D01*
X190674995Y-99842765D02*
X190227522Y-99679898D01*
X190227522Y-99679898D02*
X190019908Y-100111084D01*
X190019908Y-100111084D02*
X190080942Y-100082624D01*
X190080942Y-100082624D02*
X190186723Y-100070450D01*
X190186723Y-100070450D02*
X190410460Y-100151883D01*
X190410460Y-100151883D02*
X190483667Y-100229204D01*
X190483667Y-100229204D02*
X190512128Y-100290238D01*
X190512128Y-100290238D02*
X190524302Y-100396019D01*
X190524302Y-100396019D02*
X190442869Y-100619755D01*
X190442869Y-100619755D02*
X190365548Y-100692963D01*
X190365548Y-100692963D02*
X190304514Y-100721424D01*
X190304514Y-100721424D02*
X190198733Y-100733598D01*
X190198733Y-100733598D02*
X189974996Y-100652164D01*
X189974996Y-100652164D02*
X189901789Y-100574844D01*
X189901789Y-100574844D02*
X189873328Y-100513810D01*
X198334317Y-102709182D02*
X198421473Y-101712987D01*
X198421473Y-101712987D02*
X198658662Y-101733739D01*
X198658662Y-101733739D02*
X198796826Y-101793627D01*
X198796826Y-101793627D02*
X198883401Y-101896803D01*
X198883401Y-101896803D02*
X198922538Y-101995829D01*
X198922538Y-101995829D02*
X198953375Y-102189731D01*
X198953375Y-102189731D02*
X198940924Y-102332045D01*
X198940924Y-102332045D02*
X198876885Y-102517646D01*
X198876885Y-102517646D02*
X198821147Y-102608371D01*
X198821147Y-102608371D02*
X198717970Y-102694946D01*
X198717970Y-102694946D02*
X198571507Y-102729933D01*
X198571507Y-102729933D02*
X198334317Y-102709182D01*
X199852328Y-102841991D02*
X199283074Y-102792187D01*
X199567701Y-102817089D02*
X199654857Y-101820894D01*
X199654857Y-101820894D02*
X199547531Y-101954907D01*
X199547531Y-101954907D02*
X199444354Y-102041482D01*
X199444354Y-102041482D02*
X199345328Y-102080620D01*
X200271549Y-101874848D02*
X200935679Y-101932952D01*
X200935679Y-101932952D02*
X200421582Y-102891794D01*
X132172324Y-48823682D02*
X132815111Y-48057638D01*
X132815111Y-48057638D02*
X132997503Y-48210682D01*
X132997503Y-48210682D02*
X133076329Y-48338988D01*
X133076329Y-48338988D02*
X133088067Y-48473162D01*
X133088067Y-48473162D02*
X133063328Y-48576728D01*
X133063328Y-48576728D02*
X132977370Y-48753250D01*
X132977370Y-48753250D02*
X132885544Y-48862685D01*
X132885544Y-48862685D02*
X132726630Y-48977989D01*
X132726630Y-48977989D02*
X132628933Y-49020337D01*
X132628933Y-49020337D02*
X132494759Y-49032075D01*
X132494759Y-49032075D02*
X132354715Y-48976727D01*
X132354715Y-48976727D02*
X132172324Y-48823682D01*
X133695198Y-49231254D02*
X133266673Y-49741950D01*
X133757678Y-48786383D02*
X133116152Y-49180513D01*
X133116152Y-49180513D02*
X133590370Y-49578429D01*
X134069196Y-50415347D02*
X133631456Y-50048040D01*
X133850326Y-50231693D02*
X134493113Y-49465649D01*
X134493113Y-49465649D02*
X134328330Y-49513866D01*
X134328330Y-49513866D02*
X134194155Y-49525605D01*
X134194155Y-49525605D02*
X134090590Y-49500865D01*
X170712107Y-88429772D02*
X171354895Y-87663727D01*
X171354895Y-87663727D02*
X171537286Y-87816772D01*
X171537286Y-87816772D02*
X171616112Y-87945077D01*
X171616112Y-87945077D02*
X171627851Y-88079252D01*
X171627851Y-88079252D02*
X171603111Y-88182817D01*
X171603111Y-88182817D02*
X171517154Y-88359339D01*
X171517154Y-88359339D02*
X171425327Y-88468774D01*
X171425327Y-88468774D02*
X171266413Y-88584079D01*
X171266413Y-88584079D02*
X171168717Y-88626426D01*
X171168717Y-88626426D02*
X171034542Y-88638165D01*
X171034542Y-88638165D02*
X170894499Y-88582817D01*
X170894499Y-88582817D02*
X170712107Y-88429772D01*
X172485722Y-88612604D02*
X172120939Y-88306515D01*
X172120939Y-88306515D02*
X171778371Y-88640689D01*
X171778371Y-88640689D02*
X171845459Y-88634820D01*
X171845459Y-88634820D02*
X171949024Y-88659559D01*
X171949024Y-88659559D02*
X172131416Y-88812604D01*
X172131416Y-88812604D02*
X172173763Y-88910300D01*
X172173763Y-88910300D02*
X172179633Y-88977388D01*
X172179633Y-88977388D02*
X172154893Y-89080953D01*
X172154893Y-89080953D02*
X172001849Y-89263345D01*
X172001849Y-89263345D02*
X171904152Y-89305692D01*
X171904152Y-89305692D02*
X171837065Y-89311562D01*
X171837065Y-89311562D02*
X171733500Y-89286822D01*
X171733500Y-89286822D02*
X171551108Y-89133777D01*
X171551108Y-89133777D02*
X171508760Y-89036081D01*
X171508760Y-89036081D02*
X171502891Y-88968994D01*
D11*
%TO.C,D38*%
X79399690Y-42205982D02*
X80701708Y-44065457D01*
X80701708Y-44065457D02*
X83884115Y-41837112D01*
X82582097Y-39977637D02*
X79399690Y-42205982D01*
%TO.C,D26*%
X218238347Y-42012015D02*
X221420753Y-44240360D01*
X221420753Y-44240360D02*
X222722772Y-42380885D01*
X222722772Y-42380885D02*
X219540366Y-40152540D01*
%TO.C,D40*%
X111039609Y-39310035D02*
X114690315Y-40638783D01*
X111815995Y-37176933D02*
X111039609Y-39310035D01*
X115466702Y-38505681D02*
X111815995Y-37176933D01*
%TO.C,D7*%
X208435758Y-38257215D02*
X212188381Y-39262727D01*
X212188381Y-39262727D02*
X212775901Y-37070076D01*
X212775901Y-37070076D02*
X209023278Y-36064564D01*
%TO.C,D20*%
X225509640Y-92070753D02*
X227369115Y-93372772D01*
X227369115Y-93372772D02*
X229597460Y-90190366D01*
X227737985Y-88888347D02*
X225509640Y-92070753D01*
%TO.C,D3*%
X159931694Y-81761826D02*
X162678805Y-84508937D01*
X161536827Y-80156695D02*
X159931694Y-81761826D01*
X164283938Y-82903805D02*
X161536827Y-80156695D01*
%TO.C,D13*%
X120827228Y-43694115D02*
X124009634Y-45922460D01*
X122129247Y-41834640D02*
X120827228Y-43694115D01*
X125311653Y-44062985D02*
X122129247Y-41834640D01*
%TO.C,D35*%
X67877216Y-79870981D02*
X68882729Y-83623604D01*
X68882729Y-83623604D02*
X71075381Y-83036086D01*
X71075381Y-83036086D02*
X70069868Y-79283463D01*
%TO.C,D31*%
X131628892Y-91897921D02*
X134604975Y-89400691D01*
X133145848Y-87661769D02*
X130169765Y-90159000D01*
X134604975Y-89400691D02*
X133145848Y-87661769D01*
%TO.C,D24*%
X232765000Y-68749999D02*
X232765000Y-72635000D01*
X232765000Y-72635000D02*
X235035000Y-72635001D01*
X235035000Y-72635001D02*
X235035000Y-68750000D01*
%TO.C,D9*%
X140021195Y-84458938D02*
X142768305Y-81711827D01*
X141163174Y-80106694D02*
X138416063Y-82853805D01*
X142768305Y-81711827D02*
X141163174Y-80106694D01*
%TO.C,D34*%
X90033462Y-103744868D02*
X93786085Y-104750380D01*
X93786085Y-104750380D02*
X94373605Y-102557729D01*
X94373605Y-102557729D02*
X90620982Y-101552217D01*
%TO.C,D25*%
X225905547Y-49137178D02*
X228133892Y-52319585D01*
X228133892Y-52319585D02*
X229993367Y-51017567D01*
X229993367Y-51017567D02*
X227765022Y-47835160D01*
%TO.C,D12*%
X89527624Y-36754029D02*
X89921804Y-38989543D01*
X89921804Y-38989543D02*
X93747783Y-38314920D01*
X93353603Y-36079406D02*
X89527624Y-36754029D01*
%TO.C,D37*%
X71959640Y-50770753D02*
X73819115Y-52072772D01*
X73819115Y-52072772D02*
X76047460Y-48890366D01*
X74187985Y-47588347D02*
X71959640Y-50770753D01*
%TO.C,D30*%
X162096195Y-59983938D02*
X164843305Y-57236827D01*
X163238174Y-55631694D02*
X160491063Y-58378805D01*
X164843305Y-57236827D02*
X163238174Y-55631694D01*
%TO.C,D6*%
X112509684Y-103363784D02*
X116160391Y-102035035D01*
X115384006Y-99901933D02*
X111733299Y-101230681D01*
X116160391Y-102035035D02*
X115384006Y-99901933D01*
%TO.C,D32*%
X122615365Y-98372460D02*
X125797772Y-96144115D01*
X124495754Y-94284640D02*
X121313347Y-96512985D01*
X125797772Y-96144115D02*
X124495754Y-94284640D01*
%TO.C,D36*%
X66790000Y-68774999D02*
X66790000Y-72660000D01*
X66790000Y-72660000D02*
X69060000Y-72660001D01*
X69060000Y-72660001D02*
X69060000Y-68775000D01*
%TO.C,D19*%
X217677228Y-99105885D02*
X218979246Y-100965360D01*
X218979246Y-100965360D02*
X222161653Y-98737015D01*
X220859635Y-96877540D02*
X217677228Y-99105885D01*
%TO.C,D8*%
X178544581Y-45860406D02*
X181839248Y-43801669D01*
X180636332Y-41876599D02*
X177341665Y-43935336D01*
X181839248Y-43801669D02*
X180636332Y-41876599D01*
%TO.C,D33*%
X101299999Y-105285000D02*
X105185000Y-105285000D01*
X105185000Y-105285000D02*
X105185001Y-103015000D01*
X105185001Y-103015000D02*
X101300000Y-103015000D01*
%TO.C,D10*%
X72252540Y-90515365D02*
X74480885Y-93697772D01*
X74480885Y-93697772D02*
X76340360Y-92395754D01*
X76340360Y-92395754D02*
X74112015Y-89213347D01*
%TO.C,D28*%
X187784684Y-40613784D02*
X191435391Y-39285035D01*
X190659006Y-37151933D02*
X187008299Y-38480681D01*
X191435391Y-39285035D02*
X190659006Y-37151933D01*
%TO.C,D23*%
X230749926Y-83090677D02*
X232942577Y-83678197D01*
X231755438Y-79338054D02*
X230749926Y-83090677D01*
X232942577Y-83678197D02*
X233948089Y-79925574D01*
%TO.C,D11*%
X67662273Y-61238381D02*
X69854924Y-61825901D01*
X68667785Y-57485758D02*
X67662273Y-61238381D01*
X69854924Y-61825901D02*
X70860436Y-58073278D01*
%TO.C,D29*%
X169953892Y-52422921D02*
X172929975Y-49925691D01*
X171470848Y-48186769D02*
X168494765Y-50684000D01*
X172929975Y-49925691D02*
X171470848Y-48186769D01*
%TO.C,D27*%
X197899999Y-37635000D02*
X201785000Y-37635000D01*
X201785000Y-37635000D02*
X201785001Y-35365000D01*
X201785001Y-35365000D02*
X197900000Y-35365000D01*
%TO.C,D42*%
X138006694Y-57186826D02*
X140753805Y-59933937D01*
X139611827Y-55581695D02*
X138006694Y-57186826D01*
X142358938Y-58328805D02*
X139611827Y-55581695D01*
%TO.C,D21*%
X230840044Y-58400254D02*
X232168793Y-62050961D01*
X232168793Y-62050961D02*
X234301895Y-61274576D01*
X234301895Y-61274576D02*
X232973147Y-57623869D01*
%TO.C,D39*%
X100599772Y-37381530D02*
X104469990Y-37720130D01*
X100797617Y-35120168D02*
X100599772Y-37381530D01*
X104667834Y-35458768D02*
X100797617Y-35120168D01*
%TO.C,D14*%
X176574041Y-96172122D02*
X179756447Y-98400467D01*
X177876060Y-94312647D02*
X176574041Y-96172122D01*
X181058466Y-96540992D02*
X177876060Y-94312647D01*
%TO.C,D15*%
X186189609Y-101935035D02*
X189840315Y-103263783D01*
X186965995Y-99801933D02*
X186189609Y-101935035D01*
X190616702Y-101130681D02*
X186965995Y-99801933D01*
%TO.C,D17*%
X197049772Y-105106530D02*
X200919990Y-105445130D01*
X197247617Y-102845168D02*
X197049772Y-105106530D01*
X201117834Y-103183768D02*
X197247617Y-102845168D01*
%TO.C,D41*%
X129745024Y-50050690D02*
X132721107Y-52547921D01*
X131204152Y-48311770D02*
X129745024Y-50050690D01*
X134180236Y-50809000D02*
X131204152Y-48311770D01*
%TO.C,D5*%
X167920024Y-89350690D02*
X170896107Y-91847921D01*
X169379152Y-87611770D02*
X167920024Y-89350690D01*
X172355236Y-90109000D02*
X169379152Y-87611770D01*
%TD*%
M02*
